<svg width="75" height="61" viewBox="0 0 75 61" fill="none" xmlns="http://www.w3.org/2000/svg">
<path d="M40.6367 60.8801H35.3633C33.4248 60.8801 31.8477 59.303 31.8477 57.3645C31.8477 55.7294 32.9697 54.3514 34.4844 53.9601V52.5016C34.4844 52.1682 34.2421 51.8793 33.9083 51.8144C31.1013 51.2689 28.4728 50.1802 26.0957 48.5786C25.8112 48.3867 25.4335 48.4188 25.1975 48.6545L24.1571 49.6948C24.8827 50.9579 24.7911 52.5851 23.837 53.7243C23.2025 54.4817 22.2753 54.9408 21.2928 54.9841C20.3104 55.0264 19.347 54.6534 18.6514 53.9579L14.9224 50.229C14.2584 49.565 13.8928 48.6822 13.8928 47.7431C13.8928 46.8039 14.2584 45.921 14.9224 45.257C15.5865 44.5931 16.4693 44.2274 17.4084 44.2274C18.047 44.2274 18.6596 44.3964 19.1949 44.7134L20.2257 43.6826C20.4616 43.4468 20.4935 43.069 20.3016 42.7844C18.7 40.4074 17.6114 37.7788 17.0659 34.972C17.0009 34.638 16.712 34.3958 16.3787 34.3958H14.9214C14.7623 35.0188 14.433 35.5871 13.9569 36.0467C13.2641 36.7154 12.3528 37.0628 11.3885 37.0304C9.4884 36.9626 8 35.3947 8 33.4607V28.2434C8 27.2821 8.38063 26.3846 9.0718 25.7161C9.76297 25.0479 10.675 24.6977 11.6352 24.7299C13.1898 24.7817 14.5037 25.8956 14.9052 27.3645H16.3786C16.712 27.3645 17.0009 27.1223 17.0657 26.7884C17.6112 23.9814 18.6999 21.3529 20.3015 18.9759C20.4934 18.6912 20.4614 18.3134 20.2256 18.0776L19.1948 17.0468C18.6595 17.3638 18.0468 17.5328 17.4083 17.5328C16.4691 17.5328 15.5864 17.1672 14.9223 16.5032C13.5515 15.1325 13.5515 12.902 14.9223 11.5312L18.6512 7.80239C20.0219 6.43153 22.2522 6.43177 23.6231 7.80239C24.2871 8.46649 24.6527 9.34927 24.6527 10.2884C24.6527 10.9268 24.4837 11.5395 24.1667 12.0749L25.1975 13.1057C25.4335 13.3417 25.8111 13.3735 26.0956 13.1817C28.4728 11.58 31.1013 10.4914 33.9082 9.94587C34.2421 9.88095 34.4844 9.59196 34.4844 9.25868V7.80017C32.9697 7.40888 31.8477 6.03087 31.8477 4.39575C31.8477 2.45724 33.4248 0.880127 35.3633 0.880127H40.6367C42.5752 0.880127 44.1523 2.45724 44.1523 4.39575C44.1523 6.03087 43.0303 7.40888 41.5156 7.80017V9.25868C41.5156 9.59208 41.7579 9.88106 42.0917 9.94587C44.8987 10.4914 47.5272 11.58 49.9043 13.1817C50.1888 13.3735 50.5666 13.3416 50.8025 13.1057L51.8342 12.0741C51.0398 10.7261 51.2209 8.95845 52.3769 7.80239C53.7475 6.43177 55.978 6.43153 57.3488 7.80239L61.0777 11.5312C62.4485 12.9019 62.4485 15.1324 61.0777 16.5032C60.4136 17.1672 59.5309 17.5328 58.5917 17.5328C57.9533 17.5328 57.3406 17.3638 56.8052 17.0468L55.7744 18.0776C55.5385 18.3134 55.5066 18.6912 55.6985 18.9759C57.3001 21.3529 58.3888 23.9814 58.9343 26.7883C58.9992 27.1223 59.2882 27.3645 59.6214 27.3645H61.0924C61.4724 25.9581 62.688 24.8724 64.1683 24.7417H64.1684C65.1528 24.654 66.1329 24.9859 66.8581 25.65C67.5838 26.3145 68 27.2597 68 28.2434V33.5168C68 34.5005 67.5838 35.4458 66.8581 36.1102C66.1329 36.7743 65.1516 37.1052 64.1684 37.0185C62.688 36.8879 61.4724 35.8021 61.0924 34.3958H59.6214C59.288 34.3958 58.9992 34.638 58.9343 34.9718C58.3888 37.7788 57.3001 40.4074 55.6985 42.7844C55.5066 43.069 55.5386 43.4468 55.7744 43.6826L56.8052 44.7134C57.3406 44.3964 57.9533 44.2274 58.5917 44.2274C59.5309 44.2274 60.4136 44.5931 61.0777 45.257C61.7417 45.921 62.1073 46.8039 62.1073 47.7431C62.1073 48.6822 61.7417 49.565 61.0776 50.229L57.3488 53.9579C56.6532 54.6535 55.691 55.0275 54.7073 54.9841C53.7248 54.9408 52.7976 54.4817 52.1632 53.7244C51.209 52.5851 51.1171 50.958 51.843 49.6948L50.8026 48.6545C50.5667 48.4186 50.189 48.3867 49.9045 48.5786C47.5273 50.1802 44.8988 51.2689 42.092 51.8144C41.758 51.8793 41.5157 52.1683 41.5157 52.5016V53.9601C43.0304 54.3514 44.1525 55.7294 44.1525 57.3645C44.1523 59.303 42.5752 60.8801 40.6367 60.8801ZM25.6906 46.111C26.285 46.111 26.8835 46.2831 27.4055 46.6349C29.5203 48.0598 31.8587 49.0285 34.3555 49.5136C35.7881 49.792 36.8281 51.0486 36.8281 52.5016V54.7278C36.8281 55.5356 36.1711 56.1926 35.3633 56.1926C34.7171 56.1926 34.1914 56.7183 34.1914 57.3645C34.1914 58.0107 34.7171 58.5364 35.3633 58.5364H40.6367C41.2829 58.5364 41.8086 58.0107 41.8086 57.3645C41.8086 56.7183 41.2829 56.1926 40.6367 56.1926C39.8289 56.1926 39.1719 55.5356 39.1719 54.7278V52.5016C39.1719 51.0487 40.2119 49.792 41.6448 49.5136C44.1414 49.0284 46.4798 48.0598 48.5947 46.6349C49.8072 45.8179 51.4328 45.9701 52.4599 46.9973L54.0718 48.6092C54.6222 49.1596 54.6222 50.0554 54.0718 50.6058C53.6252 51.0524 53.5761 51.7611 53.9599 52.2195C54.1763 52.4777 54.4784 52.628 54.8105 52.6427C55.1449 52.6565 55.4564 52.5359 55.6917 52.3006L59.4205 48.5717C59.642 48.3503 59.7637 48.0562 59.7637 47.7432C59.7637 47.43 59.6418 47.1358 59.4205 46.9145C58.9636 46.4576 58.22 46.4579 57.7632 46.9145L57.7257 46.952C57.1754 47.5025 56.2796 47.5026 55.7291 46.952L54.1171 45.3401C53.0901 44.3131 52.9378 42.6875 53.7548 41.4749C55.1797 39.3601 56.1484 37.0217 56.6335 34.5249C56.9118 33.092 58.1684 32.052 59.6214 32.052H61.9005C62.679 32.052 63.3125 32.6854 63.3125 33.464C63.3125 34.0955 63.7789 34.6313 64.3745 34.6839C64.7098 34.7132 65.0301 34.6061 65.2752 34.3816C65.5209 34.1567 65.6561 33.8495 65.6561 33.5168V28.2434C65.6561 27.9107 65.5209 27.6036 65.2752 27.3787C65.0299 27.1539 64.7083 27.0465 64.3745 27.0763C63.7789 27.129 63.3125 27.6647 63.3125 28.2963C63.3125 29.0747 62.6791 29.7083 61.9005 29.7083H59.6214C58.1686 29.7083 56.9118 28.6682 56.6335 27.2354C56.1482 24.7387 55.1797 22.4003 53.7548 20.2854C52.9377 19.0728 53.0901 17.4472 54.1171 16.4202L55.6916 14.8458C56.2629 14.2747 57.192 14.2748 57.7633 14.8458C58.2201 15.3026 58.9637 15.3029 59.4206 14.8458C59.8775 14.3889 59.8775 13.6455 59.4206 13.1884L55.6917 9.45966C55.2351 9.00298 54.4916 9.00251 54.0344 9.45966C53.5775 9.91646 53.5775 10.66 54.0344 11.1169C54.6056 11.6881 54.6056 12.6175 54.0344 13.1887L52.46 14.7631C51.4328 15.7901 49.8073 15.9425 48.5947 15.1254C46.4799 13.7006 44.1416 12.7319 41.6448 12.2467C40.2119 11.9683 39.1719 10.7117 39.1719 9.25868V7.03247C39.1719 6.2247 39.8289 5.56763 40.6367 5.56763C41.2829 5.56763 41.8086 5.04192 41.8086 4.39575C41.8086 3.74958 41.2829 3.22388 40.6367 3.22388H35.3633C34.7171 3.22388 34.1914 3.74958 34.1914 4.39575C34.1914 5.04192 34.7171 5.56763 35.3633 5.56763C36.1711 5.56763 36.8281 6.2247 36.8281 7.03247V9.25868C36.8281 10.7116 35.7881 11.9683 34.3552 12.2466C31.8586 12.7319 29.5202 13.7004 27.4053 15.1253C26.1928 15.9424 24.5671 15.7901 23.5401 14.763L21.9657 13.1886C21.6891 12.9119 21.5367 12.544 21.5367 12.1527C21.5367 11.7612 21.6893 11.3933 21.9662 11.1166C22.4227 10.66 22.4227 9.91646 21.9657 9.45954C21.5088 9.00239 20.7652 9.00263 20.3084 9.45954L16.5795 13.1883C16.1226 13.6452 16.1226 14.3887 16.5795 14.8457C16.8009 15.0671 17.0952 15.189 17.4082 15.189C17.7212 15.189 18.0154 15.0672 18.2367 14.8458C18.8077 14.2745 19.7371 14.2747 20.3084 14.8457L21.8829 16.4201C22.9099 17.4472 23.0622 19.0728 22.2452 20.2853C20.8203 22.4002 19.8516 24.7386 19.3665 27.2354C19.0882 28.6682 17.8316 29.7083 16.3786 29.7083H14.0909C13.317 29.7083 12.6875 29.0787 12.6875 28.3048C12.6875 27.646 12.1803 27.093 11.557 27.0722C11.2363 27.0604 10.9313 27.1779 10.7012 27.4009C10.4707 27.6237 10.3438 27.923 10.3438 28.2434V33.4607C10.3438 34.1153 10.8498 34.6659 11.4718 34.688C11.7946 34.6999 12.0984 34.5831 12.3291 34.3604C12.5602 34.1374 12.6875 33.8377 12.6875 33.5168C12.6875 32.7091 13.3446 32.052 14.1523 32.052H16.3786C17.8314 32.052 19.0882 33.092 19.3665 34.5249C19.8518 37.0216 20.8203 39.3599 22.2452 41.4748C23.0623 42.6875 22.9099 44.3131 21.8829 45.34L20.2709 46.9519C19.7205 47.5025 18.8247 47.5024 18.2743 46.9519L18.2368 46.9144C18.0154 46.6929 17.7213 46.5712 17.4083 46.5712C17.0953 46.5712 16.8009 46.6931 16.5796 46.9144C16.3583 47.1358 16.2364 47.4299 16.2364 47.7431C16.2364 48.0561 16.3582 48.3503 16.5795 48.5716L20.3086 52.3005C20.5439 52.5357 20.8575 52.6573 21.1896 52.6425C21.5217 52.6279 21.8238 52.4775 22.0402 52.2193C22.424 51.7611 22.3749 51.0523 21.9284 50.6057C21.3779 50.0553 21.3779 49.1595 21.9283 48.6091L23.5402 46.9972C24.1251 46.4123 24.9043 46.111 25.6906 46.111Z" fill="white"/>
<path d="M33.4734 25.9438C30.7594 25.9438 28.5515 23.7359 28.5515 21.022C28.5515 18.308 30.7594 16.1001 33.4734 16.1001C36.1873 16.1001 38.3953 18.308 38.3953 21.022C38.3953 23.7359 36.1873 25.9438 33.4734 25.9438ZM33.4734 18.4438C32.0518 18.4438 30.8953 19.6004 30.8953 21.022C30.8953 22.4436 32.0518 23.6001 33.4734 23.6001C34.895 23.6001 36.0515 22.4436 36.0515 21.022C36.0515 19.6004 34.895 18.4438 33.4734 18.4438Z" fill="white"/>
<path d="M30.1484 42.576C27.8007 42.576 25.8906 40.6659 25.8906 38.3182C25.8906 35.9705 27.8007 34.0603 30.1484 34.0603C32.4961 34.0603 34.4062 35.9705 34.4062 38.3182C34.4062 40.6659 32.4961 42.576 30.1484 42.576ZM30.1484 36.4041C29.093 36.4041 28.2344 37.2627 28.2344 38.3182C28.2344 39.3736 29.093 40.2322 30.1484 40.2322C31.2038 40.2322 32.0624 39.3736 32.0624 38.3182C32.0624 37.2627 31.2038 36.4041 30.1484 36.4041Z" fill="white"/>
<path d="M46.1835 41.4101C42.5108 41.4101 39.4206 38.6626 38.9953 35.0192C38.9202 34.3765 39.3806 33.7945 40.0234 33.7194C40.6664 33.6449 41.2481 34.1046 41.3233 34.7476C41.6106 37.2097 43.7001 39.0663 46.1835 39.0663C48.8817 39.0663 51.0771 36.871 51.0771 34.1727C51.0771 31.6735 49.2073 29.5824 46.7277 29.3088C46.0845 29.2379 45.6204 28.6588 45.6914 28.0155C45.7624 27.3722 46.3422 26.9095 46.9847 26.9792C50.654 27.3841 53.4209 30.4767 53.4209 34.1727C53.4209 38.1634 50.1742 41.4101 46.1835 41.4101Z" fill="white"/>
<path d="M44.6797 22.1942C44.3715 22.1942 44.0691 22.0688 43.8512 21.8509C43.6332 21.6329 43.5078 21.3305 43.5078 21.0223C43.5078 20.713 43.6331 20.4118 43.8512 20.1938C44.0691 19.976 44.3715 19.8505 44.6797 19.8505C44.9879 19.8505 45.2902 19.9759 45.5081 20.1938C45.7261 20.4118 45.8516 20.7141 45.8516 21.0223C45.8516 21.3305 45.7262 21.6329 45.5081 21.8509C45.2902 22.0688 44.9879 22.1942 44.6797 22.1942Z" fill="white"/>
<path d="M38 45.9973C37.6918 45.9973 37.3895 45.8719 37.1715 45.6538C36.9535 45.436 36.8281 45.1336 36.8281 44.8254C36.8281 44.5172 36.9534 44.2149 37.1715 43.9969C37.3895 43.779 37.6906 43.6536 38 43.6536C38.3082 43.6536 38.6105 43.7788 38.8284 43.9969C39.0464 44.2149 39.1719 44.5172 39.1719 44.8254C39.1719 45.1336 39.0465 45.436 38.8284 45.6538C38.6105 45.8719 38.3082 45.9973 38 45.9973Z" fill="white"/>
<path d="M24.8364 32.0673C24.5271 32.0673 24.2259 31.9419 24.0079 31.7239C23.7888 31.5059 23.6646 31.2036 23.6646 30.8954C23.6646 30.586 23.7888 30.2848 24.0079 30.0669C24.2248 29.8477 24.5272 29.7235 24.8364 29.7235C25.1446 29.7235 25.447 29.8477 25.6649 30.0669C25.8828 30.2848 26.0083 30.5872 26.0083 30.8954C26.0083 31.2036 25.8829 31.5048 25.6649 31.7239C25.447 31.9419 25.1446 32.0673 24.8364 32.0673Z" fill="white"/>
<path d="M41.8813 31.0699C41.5731 31.0699 41.2708 30.9446 41.0528 30.7265C40.8349 30.5086 40.7095 30.2063 40.7095 29.8981C40.7095 29.5886 40.8347 29.2875 41.0528 29.0684C41.2708 28.8504 41.5731 28.7262 41.8813 28.7262C42.1896 28.7262 42.4919 28.8504 42.7097 29.0684C42.9277 29.2875 43.0532 29.5887 43.0532 29.8981C43.0532 30.2063 42.9278 30.5073 42.7097 30.7265C42.4919 30.9446 42.1896 31.0699 41.8813 31.0699Z" fill="white"/>
</svg>
