<svg width="78" height="80" viewBox="0 0 78 80" fill="none" xmlns="http://www.w3.org/2000/svg">
<path d="M17.7256 6.68896H15.0736C14.4592 6.68896 14.0547 7.0185 14.0547 7.39318V16.9374C14.0547 17.3119 14.4592 17.6416 15.0736 17.6416H17.7256C19.7933 17.6416 21.4114 16.6827 21.4114 14.1057V10.2249C21.4114 7.64803 19.7934 6.68896 17.7256 6.68896ZM19.0741 14.1057C19.0741 15.1244 18.5647 15.604 17.7255 15.604H16.392V8.72662H17.7255C18.5647 8.72662 19.0741 9.20599 19.0741 10.2249V14.1057Z" fill="white"/>
<path d="M26.4449 6.68896C24.3773 6.68896 22.7742 7.64771 22.7742 10.2249V14.1954C22.7742 16.7724 24.3774 17.7313 26.4449 17.7313C28.5124 17.7313 30.1307 16.7724 30.1307 14.1954V10.2249C30.1307 7.64803 28.5126 6.68896 26.4449 6.68896ZM27.7934 14.1955C27.7934 15.2293 27.284 15.6938 26.4451 15.6938C25.606 15.6938 25.1117 15.2293 25.1117 14.1955V10.2249C25.1117 9.19115 25.606 8.72662 26.4451 8.72662C27.284 8.72662 27.7934 9.19099 27.7934 10.2249V14.1955Z" fill="white"/>
<path d="M38.1159 6.68896C37.5315 6.68912 36.9473 6.89881 36.9473 7.39318V12.4876C33.9294 6.73115 34.2059 6.68912 32.797 6.68912C32.2126 6.68912 31.6284 6.91381 31.6284 7.40834V16.9225C31.6284 17.8814 33.9658 17.8814 33.9658 16.9225V11.8282L36.8126 17.0124C37.0973 17.5368 37.5768 17.6416 38.1161 17.6416C38.7004 17.6416 39.2847 17.4019 39.2847 16.9224V7.39334C39.2845 6.89881 38.7003 6.68896 38.1159 6.68896Z" fill="white"/>
<path d="M48.8279 16.5179L46.026 7.37835C45.699 6.33773 43.2968 6.33648 42.9694 7.37835C40.036 16.9986 40.1527 16.5788 40.1527 16.6827C40.1527 17.5232 42.1691 18.0679 42.4152 17.2071L42.9246 15.3341H46.086L46.5954 17.2071C46.8502 18.0976 49.0723 17.498 48.8279 16.5179ZM43.4038 13.5363L44.4976 9.52085L45.5913 13.5363H43.4038Z" fill="white"/>
<path d="M55.27 6.68896H48.7974C47.8417 6.68896 47.8716 8.78662 48.7974 8.78662H50.865V16.9224C50.8652 17.8813 53.2025 17.8815 53.2025 16.9225V8.78662H55.2702C56.1971 8.78662 56.2253 6.68896 55.27 6.68896Z" fill="white"/>
<path d="M63.2555 15.604H59.2401V13.0569H61.4876C61.9821 13.0569 62.1918 12.5776 62.1918 12.173C62.1918 11.6936 61.9371 11.259 61.4876 11.259H59.2401V8.72662H63.2555C64.1824 8.72662 64.2105 6.68896 63.2555 6.68896H57.9215C57.4121 6.68896 56.9026 6.92865 56.9026 7.40818V16.9224C56.9026 17.4018 57.4121 17.6416 57.9215 17.6416H63.2555C63.7499 17.6416 63.9596 17.1172 63.9596 16.6377C63.9596 16.0833 63.7049 15.604 63.2555 15.604Z" fill="white"/>
<path d="M68.9284 13.7017C68.2812 13.7017 67.7565 14.2262 67.7565 14.8736V20.9906C67.7565 21.5109 67.3332 21.9342 66.8129 21.9342H39.0582C38.2406 20.8417 36.9659 20.2331 35.6529 20.2328C35.6528 20.2328 35.6526 20.2328 35.6525 20.2328C35.6517 20.2328 35.6506 20.2328 35.6498 20.2328C34.3557 20.2337 33.0792 20.8273 32.2536 21.9342H11.2875C10.7672 21.9342 10.3439 21.5109 10.3439 20.9906V3.2875C10.3439 2.76718 10.7672 2.3439 11.2875 2.3439H66.8126C67.3329 2.3439 67.7562 2.76718 67.7562 3.2875V9.40436C67.7562 10.0517 68.2809 10.5764 68.928 10.5764C69.5752 10.5764 70.0999 10.0519 70.0999 9.40452V3.2875C70.1001 1.47469 68.6252 0 66.8126 0H11.2875C9.47469 0 8 1.47469 8 3.2875V20.9906C8 22.8034 9.47469 24.2781 11.2875 24.2781H31.4051C31.3967 24.4459 31.3997 51.2237 31.3997 51.3923L27.6439 46.462C24.2733 41.7723 17.9367 45.9117 20.019 50.4591L26.104 64.3844C26.107 64.3913 26.1101 64.398 26.1131 64.4048C27.26 66.8883 28.8876 68.2529 30.5581 69.9072C31.4825 70.823 31.4628 73.1879 31.4337 74.4988C31.402 75.9375 31.3625 77.7283 32.5387 78.9305C33.2323 79.6396 34.2236 79.9991 35.4846 79.9991H40.3079C40.9551 79.9991 41.4798 79.4746 41.4798 78.8272C41.4798 78.1799 40.9551 77.6554 40.3079 77.6554H35.4846C34.8779 77.6554 34.4504 77.533 34.2143 77.2916C33.6314 76.6957 33.7846 75.0352 33.7871 73.9083C33.7875 73.8944 33.7876 73.8805 33.7875 73.8666C33.7703 71.8854 33.6325 69.6536 32.2075 68.2421C30.5058 66.5566 29.2675 65.5526 28.2454 63.4313L22.1625 49.5109C22.1594 49.5037 22.1561 49.4965 22.1528 49.4895C21.2373 47.5032 24.0173 45.4173 25.7476 47.8398C25.7547 47.8496 25.7617 47.8591 25.769 47.8688L31.6392 55.5749C32.317 56.4648 33.7434 55.9832 33.7434 54.8648V24.4967C33.7426 23.4511 34.5893 22.5775 35.6514 22.5768C36.7256 22.5762 37.5709 23.4598 37.5717 24.4939C37.5737 27.1742 37.5729 47.752 37.5729 50.8796C37.5729 51.527 38.0976 52.0515 38.7448 52.0515C39.392 52.0515 39.9167 51.527 39.9167 50.8796V46.6718C39.9781 46.4548 39.9618 46.6079 39.9618 43.3585C39.9618 42.3027 40.8207 41.4437 41.8767 41.4437C42.9323 41.4437 43.7914 42.3026 43.7914 43.3585C43.7914 43.4348 43.7914 42.9551 43.7914 50.8799C43.7914 51.5273 44.316 52.0518 44.9632 52.0518C45.6104 52.0518 46.1351 51.5273 46.1351 50.8799C46.1351 50.4935 46.1351 44.3845 46.1351 44.1912C46.1351 43.1354 46.994 42.2763 48.0498 42.2763C49.1056 42.2763 49.9645 43.1353 49.9645 44.1912C49.9645 44.9095 49.9645 50.1466 49.9645 50.8799C49.9645 51.5273 50.4892 52.0518 51.1363 52.0518C51.7835 52.0518 52.3082 51.5273 52.3082 50.8799V44.8156C52.3082 43.7598 53.1671 42.9007 54.2231 42.9007C55.2787 42.9007 56.1377 43.7596 56.1377 44.8142L56.1156 63.3085C55.9657 65.3168 55.0826 66.2304 54.0743 67.2735C51.3671 70.0746 51.7142 70.986 51.7142 75.8169C51.7142 76.9771 51.3198 77.5307 50.3982 77.6555H45.7771C45.1299 77.6555 44.6053 78.18 44.6053 78.8274C44.6053 79.4747 45.1299 79.9993 45.7771 79.9993C50.774 79.9993 50.5006 80.0035 50.6017 79.9918C52.766 79.7474 54.0582 78.1866 54.0582 75.8163C54.0559 71.0571 53.7684 70.9627 55.7601 68.9026C56.9743 67.6463 58.4854 66.0826 58.4823 62.6726C58.4679 48.3063 58.4388 80.7074 58.4823 44.8154C58.4823 41.1763 54.181 39.2082 51.4307 41.6032C49.9509 39.6748 47.1985 39.3823 45.352 40.8988C44.0982 39.1326 41.7687 38.6142 39.9173 39.5782C39.9176 23.4561 39.9184 24.4357 39.9104 24.2784H66.813C68.6259 24.2784 70.1005 22.8037 70.1005 20.9909V14.8736C70.1004 14.2262 69.5757 13.7017 68.9284 13.7017Z" fill="white"/>
</svg>
