<svg width="78" height="80" viewBox="0 0 78 80" fill="none" xmlns="http://www.w3.org/2000/svg">
<path d="M17.6531 27.8016C13.8706 27.8016 10.7935 30.879 10.7935 34.6613C10.7935 38.4437 13.8706 41.521 17.6531 41.521C21.4357 41.521 24.5128 38.4437 24.5128 34.6613C24.5128 30.879 21.4357 27.8016 17.6531 27.8016ZM17.6531 39.1766C15.1635 39.1766 13.1381 37.1512 13.1381 34.6616C13.1381 32.1721 15.1636 30.1466 17.6531 30.1466C20.1427 30.1466 22.1682 32.1721 22.1682 34.6616C22.1682 37.1512 20.1428 39.1766 17.6531 39.1766Z" fill="white"/>
<path d="M38.6152 27.8019C33.8589 27.8019 29.9893 31.6714 29.9893 36.4278C29.9893 41.1842 33.8588 45.0538 38.6152 45.0538C43.3716 45.0538 47.241 41.1842 47.241 36.4278C47.241 31.6714 43.3715 27.8019 38.6152 27.8019ZM38.6152 42.7091C35.1518 42.7091 32.3338 39.8913 32.3338 36.4277C32.3338 32.9641 35.1516 30.1463 38.6152 30.1463C42.0788 30.1463 44.8965 32.9641 44.8965 36.4277C44.8965 39.8913 42.0786 42.7091 38.6152 42.7091Z" fill="white"/>
<path d="M59.577 27.8016C55.7945 27.8016 52.7173 30.879 52.7173 34.6613C52.7173 38.4437 55.7946 41.521 59.577 41.521C63.3593 41.521 66.4365 38.4437 66.4365 34.6613C66.4365 30.879 63.3592 27.8016 59.577 27.8016ZM59.577 39.1766C57.0873 39.1766 55.062 37.1512 55.062 34.6616C55.062 32.1721 57.0876 30.1466 59.577 30.1466C62.0665 30.1466 64.092 32.1721 64.092 34.6616C64.092 37.1512 62.0664 39.1766 59.577 39.1766Z" fill="white"/>
<path d="M61.9363 44.0273C61.9279 44.0273 61.9194 44.0269 61.911 44.0269H57.2436C57.2352 44.0269 57.2268 44.0273 57.2183 44.0273C52.5741 44.0379 48.7861 46.9394 48.0549 50.6537C46.1171 49.5991 43.9316 49.0655 41.6738 49.0655C38.8397 49.0655 37.0839 49.0467 35.8236 49.0655C33.4741 49.0655 31.3138 49.49 29.1758 50.6537C28.4489 46.962 24.683 44.0379 20.0124 44.0273C20.0039 44.0273 19.9955 44.0269 19.987 44.0269H15.3197C15.3113 44.0269 15.3028 44.0273 15.2944 44.0273C10.1741 44.039 6 47.5925 6 51.973V65.3998C6 66.9364 7.25 68.1863 8.78641 68.1863H23.707V76.712C23.707 78.525 25.1819 79.9999 26.995 79.9999H35.8802C36.5275 79.9999 37.0525 79.4752 37.0525 78.8275C37.0525 78.18 36.5277 77.6552 35.8802 77.6552H26.995C26.4749 77.6552 26.0517 77.232 26.0517 76.712V67.0139V59.1152C26.0517 55.7378 28.6797 53.0948 31.9035 52.0025L37.0002 59.1134C37.36 59.6155 37.9639 59.9152 38.6155 59.9152C39.2672 59.9152 39.8711 59.6155 40.2308 59.1134L45.3274 52.0025C48.6008 53.1117 51.1791 55.7916 51.1791 59.115V76.7122C51.1791 77.2322 50.756 77.6553 50.2358 77.6553H41.3508C40.7033 77.6553 40.1785 78.18 40.1785 78.8277C40.1785 79.4752 40.7033 80 41.3508 80H50.2358C52.0488 80 53.5238 78.5252 53.5238 76.7122V68.1864H68.4444C69.981 68.1864 71.2311 66.9364 71.2311 65.4V51.9731C71.2307 47.6076 67.0746 44.039 61.9363 44.0273ZM15.3194 46.3714H19.9867C20.1084 46.3714 20.2302 46.374 20.3513 46.379L17.6531 50.1436L14.955 46.379C15.0759 46.374 15.1975 46.3714 15.3194 46.3714ZM23.7067 59.1155V65.842H8.7861C8.54235 65.842 8.34422 65.6438 8.34422 65.4002V51.9733C8.34422 49.7128 10.0211 47.762 12.4275 46.8776L16.1947 52.1336V52.1337C16.5214 52.5892 17.0666 52.8612 17.653 52.8612C18.2394 52.8612 18.7847 52.5892 19.1113 52.1336L22.8785 46.8776C25.1752 47.7217 26.9617 49.5447 26.9617 52.1937C24.7491 54.1634 23.7067 56.6498 23.7067 59.1155ZM38.6152 57.343L34.4053 51.4694C34.7977 51.4369 35.2497 51.4192 35.8264 51.4101H41.6735C41.8536 51.4101 42.0335 51.4151 42.2127 51.4233C42.268 51.4258 42.3225 51.4301 42.3777 51.4334C42.5021 51.4409 42.6266 51.4495 42.7503 51.4609C42.7755 51.4633 42.8003 51.4662 42.8253 51.4687L38.6152 57.343ZM57.2435 46.3714H61.9108C62.0326 46.3714 62.1543 46.374 62.2754 46.379L59.5772 50.1436L56.8791 46.379C57 46.374 57.1216 46.3714 57.2435 46.3714ZM68.444 65.842H53.5233V59.1155C53.5233 56.6161 52.4547 54.14 50.2683 52.1937C50.2683 49.5576 52.0399 47.7273 54.3514 46.8776L58.1186 52.1336C58.8144 53.1045 60.3405 53.1026 61.0354 52.1336L64.8026 46.8776C67.209 47.762 68.8858 49.7128 68.8858 51.9733V65.4002H68.886C68.886 65.6438 68.6877 65.842 68.444 65.842Z" fill="white"/>
<path d="M33.1431 2.40438C35.8232 2.76547 36.7384 4.86266 36.9685 5.10266C38.0074 6.18657 39.3767 6.10876 40.2837 5.06954C40.5351 4.77844 41.6928 2.34828 44.7454 2.345C47.0535 2.345 49.0901 3.98141 49.5879 6.23579C49.7276 6.86798 50.3531 7.26829 50.9854 7.12766C51.6175 6.98813 52.017 6.36235 51.8775 5.73032C50.5412 -0.321249 42.3907 -2.30703 38.6156 3.35204C36.1139 -0.526718 30.6303 -1.15922 27.3168 2.1586C25.9368 3.54032 25.1779 5.37469 25.1799 7.32407C25.1879 14.8169 31.7293 20.573 37.8499 23.4621C38.3323 23.6889 38.9062 23.7003 39.414 23.4596C43.8631 21.3483 49.3081 17.1908 51.2467 11.8539C51.4678 11.2453 51.1536 10.573 50.545 10.3519C49.9365 10.1313 49.2639 10.445 49.0429 11.0536C47.3773 15.6389 42.6142 19.2955 38.6289 21.236C33.2231 18.6238 27.5312 13.6344 27.5246 7.32188C27.5217 4.35985 30.1296 1.99938 33.1431 2.40438Z" fill="white"/>
</svg>
