<svg width="78" height="80" viewBox="0 0 78 80" fill="none" xmlns="http://www.w3.org/2000/svg">
<path d="M76.3395 12.7203L66.0887 0.773461C66.0692 0.750804 66.049 0.728929 66.0279 0.707992C65.1326 -0.187163 63.6812 -0.240131 62.7234 0.587055L54.5551 7.64001C54.0703 8.05845 53.7775 8.64095 53.7309 9.27954C53.6843 9.91829 53.889 10.5369 54.3075 11.0216L54.6273 11.392L54.1004 11.847C52.7022 13.0547 50.5976 13.4159 48.4719 12.813C48.4287 12.8008 42.3791 11.0839 42.3353 11.0738C41.2326 10.8175 38.3798 10.4128 35.6553 12.1706C35.6114 12.1958 20.0008 21.1305 19.9585 21.1581C18.5336 22.0864 16.5489 24.407 18.1494 27.2164C18.1557 27.2273 18.1621 27.2381 18.1686 27.2489C18.8544 28.3673 19.8432 29.0333 20.9971 29.2181C21.04 30.3648 21.5506 31.4639 22.4592 32.2503C24.2247 33.7784 26.905 33.5854 28.4333 31.8197L34.2191 25.1347C34.4536 24.8637 34.6502 24.5665 34.8083 24.2478L35.047 24.1494C35.3589 25.3189 36.2116 26.4831 37.9539 26.977C45.2133 29.0359 46.7244 29.6323 48.7569 29.4076C54.4231 28.8003 55.7217 28.6145 58.5754 26.972C60.6281 25.7906 62.6259 24.4095 64.5285 22.8598L64.8765 23.2628C65.7439 24.267 67.2575 24.375 68.2584 23.5104L76.034 16.7966C77.2385 15.7566 77.3754 13.928 76.3395 12.7203ZM26.6611 30.2853C25.4889 31.6395 23.2766 30.7417 23.3413 28.9851C23.3413 28.9851 30.2653 26.1208 30.2658 26.1206L26.6611 30.2853ZM57.4064 24.9403C54.9784 26.3378 54.1611 26.4706 48.5315 27.0742C46.9898 27.2395 45.7817 26.7606 38.5936 24.7219C37.6728 24.4608 37.4323 23.9684 37.3317 23.6209C37.1941 23.1461 37.2819 22.6923 37.2816 22.6923C37.2828 22.6869 37.283 22.6814 37.2842 22.6759C37.2864 22.6658 37.2894 22.6559 37.2912 22.6458C37.2919 22.6428 37.3653 22.3295 37.5673 22.0569C37.742 21.8212 38.005 21.5917 38.6341 21.6786C40.8517 21.9837 46.1326 22.6898 46.1856 22.697C46.8289 22.7828 47.417 22.3322 47.5026 21.6906C47.5884 21.049 47.1379 20.4594 46.4964 20.3736C46.4433 20.3666 41.1669 19.6611 38.9536 19.3566C36.8816 19.0711 35.6606 20.3506 35.1795 21.5594L33.4702 22.2642C19.9782 27.8272 23.0199 26.6195 22.0185 26.9086C20.1338 27.1731 18.8424 24.7204 21.2124 23.1394L36.8461 14.1902C36.8472 14.1897 36.8483 14.1891 36.8494 14.1884C36.8683 14.1775 36.887 14.1661 36.9053 14.1542C38.8628 12.8798 40.9466 13.1617 41.7786 13.3513L47.8323 15.0684C50.719 15.8869 53.6353 15.3459 55.6323 13.6216L56.1592 13.1666C57.0531 14.2019 62.2028 20.1658 62.997 21.0856C61.2075 22.5386 59.3314 23.8323 57.4064 24.9403ZM74.5023 15.0222C74.4774 15.0436 66.7204 21.753 66.6878 21.749C66.6429 21.7458 56.0168 9.47485 56.0868 9.41438L64.2551 2.36127H64.2553C64.271 2.34768 64.2907 2.34096 64.3104 2.34096C64.3264 2.34096 64.3421 2.34533 64.3559 2.35408L74.5602 14.2469C74.7574 14.4764 74.7315 14.8244 74.5023 15.0222Z" fill="white"/>
<path d="M56.2651 50.8361C56.1239 47.0567 51.3547 45.3162 48.829 48.2347L43.0428 54.92C42.8083 55.1909 42.6119 55.4879 42.454 55.8065L42.2153 55.905C41.9034 54.7354 41.0508 53.5712 39.3084 53.0773C31.6236 50.8976 30.6217 50.4607 28.5281 50.6445C28.5206 50.6451 28.5131 50.6459 28.5056 50.6467C22.8394 51.2542 21.5406 51.44 18.6869 53.0823C16.6341 54.2639 14.6363 55.645 12.7338 57.1948L12.3858 56.7918C11.5214 55.791 10.0044 55.68 9.00394 56.5442L0.804733 63.6234C-0.171828 64.4663 -0.273859 65.9407 0.576921 66.9107L11.3828 79.2251C12.1917 80.1468 13.5989 80.2622 14.5174 79.4855C14.5211 79.4823 14.5352 79.4704 14.5391 79.4671L22.7074 72.414C23.7103 71.5479 23.8214 70.0354 22.9552 69.0323L22.6353 68.6618L23.1622 68.207C24.5606 66.9993 26.6653 66.6384 28.7908 67.241L34.2256 68.7826C34.8481 68.9587 35.4964 68.5976 35.6731 67.9749C35.8497 67.3521 35.488 66.7042 34.8653 66.5276L29.4303 64.986C26.5434 64.1674 23.6275 64.7084 21.6303 66.4327L21.1035 66.8876L14.2656 58.9687C16.0549 57.5157 17.931 56.2218 19.8561 55.1137C22.2861 53.7151 23.102 53.5832 28.7439 52.9786C30.0628 52.8637 30.8873 53.1014 35.4084 54.4001C38.9117 55.4064 39.6348 55.4115 39.9308 56.4331C40.0684 56.9079 39.9806 57.3617 39.9809 57.3617C39.9233 57.6135 39.815 57.8357 39.6953 57.9973C39.5205 58.2328 39.2564 58.4621 38.6287 58.3756C36.4108 58.0704 31.13 57.3643 31.077 57.3571C30.4339 57.2718 29.8458 57.7218 29.76 58.3635C29.6742 59.0051 30.1247 59.5948 30.7662 59.6806C30.8194 59.6876 36.0958 60.3931 38.3091 60.6976C40.1397 60.9498 41.4969 59.9648 42.0823 58.4951C42.1408 58.471 53.8847 53.6307 53.9411 53.6026C55.1789 52.974 56.3482 52.8303 57.0856 54.014C57.9342 55.5304 56.4293 56.662 56.0503 56.9148L40.4165 65.8638C40.4095 65.8679 40.4026 65.872 40.3958 65.876C40.3834 65.8834 40.3694 65.8921 40.3575 65.8999C40.0989 66.0682 39.8228 66.2184 39.5367 66.346C38.9458 66.6099 38.6806 67.3032 38.9447 67.8941C39.2086 68.4854 39.9023 68.7504 40.4926 68.4862C40.882 68.3123 41.2592 68.1081 41.6084 67.8823C41.6548 67.8557 57.259 58.9248 57.3039 58.8956C61.5545 56.1279 59.51 51.3553 56.2651 50.8361ZM21.1811 70.5641C21.1855 70.5691 21.1956 70.5809 21.1941 70.603C21.1914 70.6374 13.1186 77.5965 13.0927 77.619L2.35457 65.3821L10.536 58.3178C10.541 58.3135 10.5544 58.3024 10.5747 58.3049C10.5971 58.3065 10.6072 58.3184 10.6114 58.3234C11.7152 59.6017 20.0495 69.2537 21.1811 70.5641ZM46.9968 53.9334L50.6015 49.7684C51.759 48.4309 53.9865 49.2893 53.9212 51.0687C53.9211 51.0689 46.9979 53.9329 46.9968 53.9334Z" fill="white"/>
<path d="M37.2901 36.4188C37.5094 36.8055 38.1567 37.3238 38.9219 37.3052C39.5548 37.2903 40.1409 36.9132 40.4583 36.4022C41.9679 33.9766 45.1262 34.5233 46.069 36.7313C46.3232 37.3263 47.0118 37.6032 47.6073 37.3488C48.2026 37.0946 48.479 36.4058 48.2248 35.8107C46.6242 32.0635 41.5204 31.2146 38.8745 34.583C35.6669 30.4733 29.075 32.808 29.0798 37.9721C29.0855 43.4014 33.7865 47.5538 38.1845 49.6295C38.6372 49.8433 39.1525 49.8324 39.5822 49.6281C42.7442 48.128 46.1057 45.466 47.6615 42.2513C47.9436 41.6686 47.6996 40.9677 47.1171 40.6858C46.5342 40.4035 45.8336 40.6475 45.5517 41.2302C44.284 43.8494 41.4765 46.0539 38.8798 47.3622C35.2219 45.5533 31.4284 42.1874 31.4241 37.9697C31.4212 34.7891 35.6894 33.6022 37.2901 36.4188Z" fill="white"/>
</svg>
