<svg width="75" height="61" viewBox="0 0 75 61" fill="none" xmlns="http://www.w3.org/2000/svg">
<path d="M31.0382 20.1162C31.5225 20.1162 31.9152 19.7236 31.9152 19.2393V17.9451C31.9152 17.4609 31.5225 17.0682 31.0382 17.0682C30.5535 17.0682 30.1609 17.4609 30.1609 17.9451V19.2393C30.1609 19.7236 30.5535 20.1162 31.0382 20.1162Z" fill="white"/>
<path d="M44.8327 20.1162C45.317 20.1162 45.7101 19.7236 45.7101 19.2393V17.9451C45.7101 17.4609 45.317 17.0682 44.8327 17.0682C44.3484 17.0682 43.9558 17.4609 43.9558 17.9451V19.2393C43.9558 19.7236 44.3484 20.1162 44.8327 20.1162Z" fill="white"/>
<path d="M30.7645 30.8002C31.2461 30.8121 31.6501 30.4272 31.661 29.9429C31.6783 29.1755 31.8881 28.3747 32.2848 27.5617C32.5242 27.071 32.8225 26.6022 33.1663 26.1635C34.4149 27.9005 36.0556 28.8914 37.891 28.9894C37.9065 28.9903 37.9225 28.9908 37.938 28.9908C37.9535 28.9908 37.969 28.9903 37.9845 28.9894C39.8021 28.8923 41.4283 27.9201 42.6723 26.2155C43.2824 27.0158 43.738 27.9037 43.9696 28.812C44.2514 29.9156 44.3185 31.5189 43.0407 32.8901C41.8045 34.2162 39.9782 35.0042 38.0301 35.0521C36.1103 35.0999 34.3506 34.4415 33.0746 33.2007C33.029 33.1564 32.9844 33.1113 32.9406 33.0657C32.6059 32.7155 32.0505 32.7032 31.7002 33.0379C31.3505 33.3726 31.3377 33.9275 31.6729 34.2778C31.7312 34.3389 31.791 34.3995 31.8516 34.4583C33.4153 35.9787 35.533 36.8081 37.8367 36.8081C37.9152 36.8081 37.9941 36.8072 38.073 36.8054C40.4898 36.7461 42.768 35.7552 44.3235 34.0862C45.7421 32.5645 46.22 30.5376 45.6696 28.3788C45.3212 27.014 44.5952 25.7103 43.618 24.594C43.9076 23.8415 43.8825 23.0098 43.5396 22.2669C43.1552 21.4352 42.4256 20.8396 41.5377 20.6331C39.9941 20.2746 38.2275 20.3198 37.9375 20.3303C37.6475 20.3198 35.8809 20.2746 34.3373 20.6331C33.4495 20.8396 32.7199 21.4352 32.3359 22.2669C31.9998 22.9943 31.9697 23.8064 32.2402 24.5465C31.6241 25.2292 31.102 25.9866 30.7084 26.7924C30.1995 27.8348 29.93 28.8818 29.9072 29.9042C29.8963 30.388 30.2802 30.7893 30.7645 30.8002ZM33.9283 23.002C34.0842 22.6655 34.3779 22.4247 34.735 22.3417C35.7227 22.1119 36.8673 22.0772 37.4728 22.0772C37.7332 22.0772 37.8942 22.0836 37.8992 22.0836C37.9248 22.085 37.9503 22.085 37.9758 22.0836C37.9932 22.0832 39.7278 22.0134 41.141 22.3417C41.4976 22.4243 41.7917 22.665 41.9472 23.002C42.1091 23.3527 42.1 23.7512 41.9221 24.0951C41.2176 25.4581 39.9554 27.1034 37.938 27.2347C35.9201 27.1034 34.6584 25.4581 33.9534 24.0951C33.7755 23.7512 33.7664 23.3527 33.9283 23.002Z" fill="white"/>
<path d="M37.9694 32.7524C39.1058 32.7524 40.1569 32.2366 40.8523 31.3369C41.1487 30.9539 41.0785 30.403 40.6955 30.1066C40.3124 29.8102 39.7616 29.8809 39.4651 30.2639C39.104 30.7309 38.5586 30.9986 37.9694 30.9986C37.3803 30.9986 36.8353 30.7309 36.4742 30.2639C36.1778 29.8809 35.6269 29.8107 35.2439 30.1071C34.8608 30.4035 34.7906 30.9543 35.087 31.3374C35.7829 32.2371 36.8335 32.7524 37.9694 32.7524Z" fill="white"/>
<path d="M60.6432 42.0373C60.1598 42.0733 59.7978 42.4942 59.8342 42.9772C59.8456 43.1336 59.8516 43.2927 59.8516 43.45C59.8516 46.882 57.0599 49.6736 53.628 49.6736C50.196 49.6736 47.4044 46.882 47.4044 43.45C47.4044 40.0181 50.196 37.2264 53.628 37.2264C55.5801 37.2264 57.3818 38.1161 58.5711 39.6679C58.8657 40.0523 59.4165 40.1248 59.8005 39.8302C60.1854 39.5357 60.2579 38.9853 59.9633 38.6008C59.2674 37.6925 58.4069 36.9624 57.4402 36.4357C58.7234 34.5433 59.5173 32.2765 59.7823 29.6845C59.9569 27.9781 59.92 26.2106 59.6728 24.4313C59.3554 22.1494 58.7056 19.9319 57.7649 17.8807C60.63 16.3371 62.5826 13.3102 62.5826 9.83354C62.5826 4.79511 58.4835 0.696045 53.4451 0.696045C49.3232 0.696045 45.8339 3.44122 44.6998 7.19873C44.3026 7.11482 43.9018 7.04277 43.4968 6.98486C39.9641 6.48142 35.9098 6.48142 32.3734 6.98486C31.9685 7.04277 31.5676 7.11482 31.1705 7.19873C30.0364 3.44122 26.5474 0.696045 22.4256 0.696045C17.3871 0.696045 13.2881 4.79511 13.2881 9.83354C13.2881 13.3097 15.2407 16.3371 18.1058 17.8807C17.1651 19.9319 16.5148 22.1494 16.1979 24.4313C15.9507 26.2106 15.9138 27.9781 16.088 29.6845C16.3607 32.3503 17.1213 34.603 18.3863 36.4695C15.9311 37.8311 14.2649 40.449 14.2649 43.45C14.2649 46.4036 15.8796 48.9855 18.2713 50.3645C17.7296 52.5921 17.0926 55.8443 16.8577 59.5325C16.8422 59.7742 16.9275 60.0118 17.0935 60.1883C17.259 60.3648 17.4907 60.4651 17.7328 60.4651L58.2254 60.466C58.474 60.466 58.7106 60.3607 58.8766 60.176C59.0431 59.9917 59.1233 59.745 59.0973 59.4979C58.8442 57.0678 58.188 52.9067 57.5961 50.3663C59.9897 48.9878 61.6058 46.405 61.6058 43.45C61.6058 43.2494 61.5981 43.046 61.583 42.8463C61.547 42.3629 61.1252 42.0013 60.6432 42.0373ZM47.4732 48.5199C47.2881 48.8236 47.0897 49.1182 46.8763 49.3982C44.558 52.4398 41.2519 54.8229 38.2486 55.6173C38.0439 55.6711 37.8273 55.6715 37.6225 55.6173C34.6188 54.8229 31.3127 52.4398 28.9944 49.3982C28.781 49.1187 28.5817 48.825 28.3966 48.5218C29.5357 47.1423 30.2206 45.3748 30.2206 43.4505C30.2206 41.9343 29.7951 40.5161 29.0582 39.3081C29.9105 38.6884 30.9101 38.345 31.927 38.345C33.1313 38.345 34.3019 38.7705 35.2225 39.543C35.7825 40.0126 36.2176 40.6041 36.5532 41.3515L36.586 41.4263C36.7242 41.7455 37.0913 42.5932 38.0439 42.5435C38.2856 42.5307 38.9276 42.497 39.3426 41.4249C39.3636 41.3711 39.385 41.3155 39.3996 41.2858L39.4374 41.2083C39.5537 40.9716 39.6636 40.7477 39.7858 40.543C40.3349 39.6246 41.3654 38.8754 42.5419 38.5393C42.6756 38.501 42.8128 38.4681 42.9487 38.4412C43.2738 38.3774 43.609 38.345 43.9437 38.345C44.9611 38.345 45.9611 38.687 46.8134 39.3067C46.076 40.5152 45.6506 41.9338 45.6506 43.4505C45.6501 45.3739 46.3346 47.1405 47.4732 48.5199ZM53.4451 2.45031C57.5163 2.45031 60.8283 5.7623 60.8283 9.83354C60.8283 12.628 59.2674 15.0635 56.9719 16.3171C56.7019 15.8319 56.416 15.3576 56.1118 14.8984C56.0165 14.7543 55.9189 14.6121 55.8195 14.4711C57.1566 13.5614 58.0376 12.0283 58.0376 10.2927C58.0376 7.50699 55.7712 5.24108 52.9859 5.24108C50.8846 5.24108 49.0802 6.53159 48.32 8.36109C47.6948 8.08612 47.0528 7.84443 46.3961 7.63969C47.3328 4.63687 50.1377 2.45031 53.4451 2.45031ZM54.7338 13.084C53.3607 11.4971 51.7214 10.1664 49.8955 9.14451C50.3625 7.89095 51.5714 6.99489 52.9859 6.99489C54.804 6.99489 56.2833 8.47418 56.2833 10.2927C56.2838 11.4688 55.6627 12.5003 54.7338 13.084ZM15.0424 9.83354C15.0424 5.7623 18.3543 2.45031 22.4256 2.45031C25.733 2.45031 28.5361 4.63733 29.4723 7.64014C28.8165 7.84489 28.1749 8.08612 27.5507 8.36064C26.7905 6.53113 24.9861 5.24108 22.8848 5.24108C20.099 5.24108 17.8331 7.50699 17.8331 10.2927C17.8331 12.0283 18.7141 13.5605 20.0521 14.4702C19.9522 14.6116 19.8537 14.7539 19.7584 14.8984C19.4542 15.3576 19.1688 15.8314 18.8988 16.3162C16.6037 15.0626 15.0424 12.628 15.0424 9.83354ZM25.9756 9.14497C24.1488 10.1669 22.5077 11.4975 21.1346 13.0853C20.2057 12.5012 19.5869 11.4683 19.5869 10.2927C19.5869 8.47418 21.0662 6.99535 22.8848 6.99535C24.2993 6.99489 25.5087 7.89095 25.9756 9.14497ZM17.8331 29.5062C17.6731 27.9394 17.7073 26.3132 17.9353 24.6725C18.3771 21.4905 19.5135 18.4453 21.2208 15.867C23.7859 11.9927 27.941 9.38848 32.6206 8.72134C34.3105 8.48102 36.1236 8.36064 37.9367 8.36064C39.7493 8.36064 41.562 8.48102 43.2497 8.72134C47.9292 9.38848 52.0844 11.9932 54.6494 15.867C56.3572 18.4453 57.4931 21.4905 57.9354 24.673C58.163 26.3132 58.1972 27.9394 58.0371 29.5062C57.789 31.9349 57.017 34.0371 55.7603 35.759C55.0758 35.5707 54.3603 35.4726 53.628 35.4726C51.3748 35.4726 49.3383 36.4129 47.8859 37.92C46.7276 37.0645 45.3519 36.5908 43.9437 36.5908C43.4955 36.5908 43.0472 36.6345 42.6103 36.7198C42.4261 36.7563 42.241 36.801 42.0599 36.8525C40.4653 37.3081 39.0526 38.3509 38.2801 39.6428C38.1615 39.8412 38.0585 40.04 37.9613 40.2352C37.5423 39.4235 37.0119 38.7545 36.3498 38.1986C35.1136 37.1621 33.5431 36.5908 31.927 36.5908C30.5188 36.5908 29.143 37.065 27.9848 37.92C26.5324 36.4129 24.4959 35.4726 22.2427 35.4726C21.4798 35.4726 20.7425 35.5825 20.0429 35.7836C18.8135 34.1019 18.0912 32.0329 17.8331 29.5062ZM16.0191 43.45C16.0191 40.0181 18.8108 37.2264 22.2427 37.2264C25.6742 37.2264 28.4663 40.0181 28.4663 43.45C28.4663 46.882 25.6742 49.6736 22.2427 49.6736C18.8108 49.6736 16.0191 46.8815 16.0191 43.45ZM18.6772 58.7113C18.9298 55.6902 19.4437 53.0217 19.9043 51.0772C20.644 51.3048 21.4292 51.4279 22.2423 51.4279C24.0731 51.4279 25.7608 50.8064 27.1083 49.7653C27.2647 50.0047 27.4285 50.2373 27.599 50.4612C30.1809 53.8489 33.7601 56.4103 37.1738 57.3127C37.4228 57.3788 37.6791 57.4116 37.9353 57.4116C38.1916 57.4116 38.4474 57.3788 38.6969 57.3127C42.1101 56.4098 45.6893 53.8489 48.2712 50.4612C48.4418 50.2373 48.6055 50.0047 48.7619 49.7653C50.1099 50.8064 51.7971 51.4279 53.628 51.4279C54.4387 51.4279 55.2213 51.3052 55.9591 51.0795C56.4082 53.1033 56.9422 56.2776 57.2423 58.7117L18.6772 58.7113Z" fill="white"/>
</svg>
