<svg width="76" height="61" viewBox="0 0 76 61" fill="none" xmlns="http://www.w3.org/2000/svg">
<path d="M22.1547 6.02553L18.2362 7.56501C16.9001 8.08988 16.2402 9.60429 16.7651 10.9399C17.0191 11.5875 17.5102 12.0968 18.1477 12.3745C18.4815 12.5196 18.834 12.5925 19.1869 12.5925C19.5089 12.5925 19.8313 12.5323 20.14 12.411L24.0585 10.8711C25.3946 10.3462 26.0545 8.83227 25.5296 7.49616C25.0047 6.16051 23.4908 5.5002 22.1547 6.02553ZM23.4183 9.24176L19.4998 10.7817C19.2877 10.8647 19.0561 10.8606 18.8472 10.7694C18.6384 10.6786 18.4779 10.5117 18.3944 10.3002C18.2225 9.86239 18.4386 9.36671 18.8764 9.19479L22.7949 7.65485C22.897 7.61472 23.0019 7.59557 23.1059 7.59557C23.4461 7.59557 23.7685 7.80123 23.9003 8.13639C24.0722 8.57416 23.856 9.06985 23.4183 9.24176Z" fill="white"/>
<path d="M24.1472 12.7184C23.5097 12.4406 22.8024 12.4274 22.1549 12.6819L18.2359 14.2214C16.9003 14.7462 16.2404 16.2602 16.7648 17.5963C17.1675 18.6205 18.1516 19.2475 19.1913 19.2475C19.5073 19.2475 19.8283 19.1896 20.1398 19.0674L24.0587 17.5274C25.3948 17.0026 26.0547 15.4886 25.5298 14.1525C25.2753 13.5054 24.7842 12.9961 24.1472 12.7184ZM23.4185 15.8981L19.5 17.4381C19.0627 17.6095 18.5665 17.3934 18.3946 16.9561C18.2227 16.5187 18.4388 16.0226 18.8766 15.8507L22.7951 14.3112C22.8972 14.2711 23.0026 14.2519 23.1061 14.2519C23.4463 14.2519 23.7687 14.4576 23.9005 14.7927C24.0724 15.2305 23.8562 15.7262 23.4185 15.8981Z" fill="white"/>
<path d="M61.5872 2.20087H56.7548C56.2715 2.20087 55.8797 2.59258 55.8797 3.07595C55.8797 3.55978 56.2715 3.95149 56.7548 3.95149H61.5872C61.7787 3.95149 61.9346 4.10699 61.9346 4.29851V6.49328C61.9346 6.6848 61.7787 6.8403 61.5872 6.8403H42.687C42.4954 6.8403 42.3395 6.6848 42.3395 6.49328V4.29851C42.3395 4.10699 42.4954 3.95149 42.687 3.95149H52.6895C53.1729 3.95149 53.565 3.55932 53.565 3.07595C53.565 2.59258 53.1729 2.20087 52.6895 2.20087H42.687C41.5301 2.20087 40.5889 3.14162 40.5889 4.29851V6.49328C40.5889 7.48145 41.2774 8.31047 42.199 8.53118V10.2284C41.4015 10.2722 40.6144 10.5591 39.9628 11.0903C39.1264 11.772 38.1779 12.7347 37.3772 14.0302C36.576 12.7347 35.6275 11.772 34.7907 11.0903C33.3703 9.93204 31.3082 9.93204 29.8882 11.0903C29.8403 11.1291 29.7915 11.1696 29.7427 11.2107C29.6944 9.97308 29.5694 8.76512 29.3697 7.61324C28.5411 2.83518 24.6432 0.696045 21.1474 0.696045C17.6516 0.696045 13.7537 2.83518 12.9251 7.61369C12.6994 8.91605 12.5685 10.2905 12.5366 11.6986C12.5361 11.7055 12.5361 11.7118 12.5361 11.7187V21.8038C12.5475 21.7983 12.5598 21.7937 12.5712 21.7883C12.5484 21.9378 12.5361 56.2087 12.5361 56.2087C12.5361 58.5562 14.4459 60.466 16.7934 60.466H24.541C25.0244 60.466 25.4161 60.0743 25.4161 59.5909C25.4161 59.1071 25.0244 58.7154 24.541 58.7154H16.7934C15.4113 58.7154 14.2867 57.5909 14.2867 56.2087V22.2475C14.2867 21.76 14.5535 21.3541 14.9999 21.1613C15.4496 20.9665 15.932 21.0523 16.29 21.3893C16.4532 21.5429 16.6119 21.7012 16.7797 21.8685C17.834 22.9192 19.0288 24.1103 21.3836 24.1103C23.7384 24.1103 24.9336 22.9192 25.9875 21.8685C26.9579 20.9013 27.7244 20.1371 29.3556 20.1371C30.9872 20.1371 31.7537 20.9013 32.7241 21.8685C33.7784 22.9192 34.9731 24.1103 37.328 24.1103C39.6828 24.1103 40.878 22.9192 41.9323 21.8685C42.9027 20.9013 43.6692 20.1371 45.3008 20.1371C46.9324 20.1371 47.699 20.9013 48.6693 21.8685C49.7236 22.9192 50.9188 24.1103 53.2737 24.1103C55.6285 24.1103 56.8237 22.9192 57.878 21.8685C58.0458 21.7012 58.2049 21.5429 58.3682 21.3888C58.7262 21.0518 59.2082 20.9665 59.6582 21.1608C60.1047 21.3537 60.3714 21.76 60.3714 22.247V56.2087C60.3714 57.5909 59.2469 58.7154 57.8648 58.7154H28.6369C28.1535 58.7154 27.7613 59.1071 27.7613 59.5905C27.7613 60.0743 28.1535 60.466 28.6369 60.466H57.8648C60.2123 60.466 62.1225 58.5562 62.1225 56.2087L62.076 8.53118C62.9976 8.31002 63.6852 7.48145 63.6852 6.49328V4.29851C63.6852 3.14162 62.744 2.20087 61.5872 2.20087ZM25.64 18.6856C25.6391 18.6906 25.6386 18.6952 25.6382 18.6997C25.6304 18.7599 25.5807 19.1872 25.5944 19.827C25.2934 20.0887 25.0185 20.3632 24.7521 20.6286C23.7818 21.5958 23.0152 22.3596 21.3836 22.3596C19.7525 22.3596 18.9859 21.5958 18.0155 20.6286C17.8464 20.4599 17.6717 20.2857 17.4902 20.1152C16.6211 19.2962 15.4008 19.0814 14.3059 19.5543C14.2995 19.557 14.2931 19.5602 14.2867 19.5629V11.7283C14.3173 10.4104 14.4395 9.12673 14.6497 7.91238C15.3046 4.13663 18.3849 2.44666 21.1474 2.44666C23.9099 2.44666 26.9902 4.13663 27.6446 7.91238C27.8553 9.12673 27.9775 10.4104 28.008 11.7283V13.0133C26.9419 14.3854 25.9888 16.2423 25.64 18.6856ZM36.8697 22.3355C35.545 22.2041 34.834 21.4996 33.9599 20.6286C32.9056 19.5775 31.7108 18.3864 29.356 18.3864C28.5972 18.3864 27.9593 18.5105 27.4075 18.7134C27.9246 15.5368 29.6342 13.5559 30.9944 12.4474C31.761 11.8217 32.9179 11.8217 33.6849 12.4474C35.0748 13.5806 36.8304 15.6235 37.3047 18.9236C37.3166 19.0285 37.4853 20.6606 36.8697 22.3355ZM45.3008 18.3864C42.946 18.3864 41.7508 19.5775 40.6965 20.6286C40.0699 21.2529 39.5268 21.7915 38.7822 22.0956C39.2313 20.3286 39.0558 18.8174 39.0407 18.6997C39.0403 18.6952 39.0398 18.6906 39.0389 18.6856C38.8943 17.6742 38.6458 16.764 38.3289 15.9459C39.0904 14.3239 40.1584 13.1898 41.069 12.4474C41.8361 11.8222 42.9925 11.8222 43.7595 12.4474C45.1252 13.5605 46.843 15.5528 47.3524 18.7522C46.7774 18.5264 46.107 18.3864 45.3008 18.3864ZM60.3245 19.5429C59.2369 19.086 58.0298 19.303 57.168 20.1147C56.9865 20.2853 56.8118 20.4599 56.6427 20.6282C55.6723 21.5954 54.9057 22.3596 53.2741 22.3596C51.6954 22.3596 50.9261 21.6437 49.9986 20.7212L60.3245 18.0253V19.5429ZM60.3245 16.2158L49.1504 19.1334C49.1381 18.8885 49.1203 18.7344 49.1158 18.6997C49.1153 18.6952 49.1149 18.6906 49.1139 18.6856C48.9147 17.2911 48.5184 16.0886 48.0172 15.0576L60.3245 12.0356V16.2158ZM60.3245 10.233L47.092 13.4821C46.3761 12.4583 45.5799 11.6726 44.8658 11.0903C44.5826 10.8596 44.2739 10.6753 43.9497 10.5367V8.59092H60.3245V10.233Z" fill="white"/>
<path d="M37.3293 49.4416C42.6048 49.4416 46.8968 45.1496 46.8968 39.8741C46.8968 34.5985 42.6048 30.3065 37.3293 30.3065C32.0537 30.3065 27.7617 34.5985 27.7617 39.8741C27.7617 45.1496 32.0537 49.4416 37.3293 49.4416ZM37.3293 32.0576C41.6395 32.0576 45.1462 35.5639 45.1462 39.8741C45.1462 44.1847 41.6395 47.6914 37.3293 47.6914C33.0191 47.6914 29.5123 44.1847 29.5123 39.8741C29.5123 35.5639 33.0191 32.0576 37.3293 32.0576Z" fill="white"/>
<path d="M34.3682 43.2004C34.9642 44.2779 36.0983 44.9474 37.3286 44.9474C38.5589 44.9474 39.6935 44.2779 40.289 43.2004C40.523 42.7772 40.3697 42.2446 39.9466 42.0111C39.5234 41.7772 38.9908 41.9304 38.7568 42.3536C38.4696 42.8739 37.9223 43.1972 37.3286 43.1972C36.7354 43.1972 36.1881 42.8739 35.9004 42.3536C35.6669 41.9304 35.1339 41.7772 34.7111 42.0111C34.288 42.245 34.1347 42.7772 34.3682 43.2004Z" fill="white"/>
<path d="M34.1312 40.2304C34.615 40.2304 35.0067 39.8387 35.0067 39.3553V37.897C35.0067 37.4132 34.615 37.0215 34.1312 37.0215C33.6478 37.0215 33.2561 37.4132 33.2561 37.897V39.3553C33.2561 39.8387 33.6478 40.2304 34.1312 40.2304Z" fill="white"/>
<path d="M40.5264 40.2304C41.0098 40.2304 41.4015 39.8387 41.4015 39.3553V37.897C41.4015 37.4132 41.0098 37.0215 40.5264 37.0215C40.043 37.0215 39.6509 37.4132 39.6509 37.897V39.3553C39.6509 39.8387 40.043 40.2304 40.5264 40.2304Z" fill="white"/>
</svg>
