<svg width="76" height="61" viewBox="0 0 76 61" fill="none" xmlns="http://www.w3.org/2000/svg">
<path d="M64.6404 11.0225C61.7382 10.7997 58.4541 10.1404 54.8794 9.06319C50.5848 7.76871 46.4161 7.96855 42.4887 9.65673C41.9347 9.89484 41.6789 10.5368 41.9168 11.0908C42.155 11.6444 42.7962 11.9009 43.3509 11.6626C46.7932 10.1829 50.4602 10.0114 54.2495 11.1535C57.9747 12.2762 61.4145 12.9644 64.4733 13.1993C64.5017 13.2016 64.5301 13.2025 64.558 13.2025C65.123 13.2025 65.6013 12.7672 65.6452 12.1945C65.6914 11.5934 65.2415 11.0687 64.6404 11.0225Z" fill="white"/>
<path d="M64.6402 15.6619C61.7388 15.4392 58.4549 14.7801 54.8794 13.7026C50.5848 12.4081 46.4161 12.608 42.4887 14.2961C41.9347 14.5342 41.6789 15.1762 41.9168 15.7302C42.155 16.284 42.7962 16.5403 43.3509 16.302C46.7932 14.8223 50.4602 14.6508 54.2495 15.7929C57.9756 16.9158 61.4153 17.6041 64.4735 17.8387C64.5018 17.841 64.5301 17.8419 64.558 17.8419C65.123 17.8419 65.6013 17.4066 65.6452 16.8337C65.6914 16.2326 65.2415 15.7081 64.6402 15.6619Z" fill="white"/>
<path d="M64.6404 38.8587C61.7381 38.6358 58.454 37.9765 54.8794 36.8992C50.5851 35.6047 46.4165 35.8047 42.4887 37.4929C41.9347 37.731 41.6789 38.373 41.9168 38.9269C42.155 39.4806 42.7962 39.737 43.3509 39.4988C46.7933 38.019 50.4603 37.8479 54.2495 38.9895C57.9746 40.1122 61.4144 40.8005 64.4733 41.0354C64.5017 41.0378 64.5301 41.0386 64.558 41.0386C65.123 41.0386 65.6013 40.6033 65.6452 40.0306C65.6914 39.4295 65.2415 38.9048 64.6404 38.8587Z" fill="white"/>
<path d="M64.6404 43.4979C61.7382 43.2751 58.4541 42.6158 54.8794 41.5386C50.5848 40.2443 46.4161 40.4439 42.4887 42.1321C41.9347 42.3702 41.6789 43.0122 41.9168 43.5662C42.155 44.12 42.7962 44.3763 43.3509 44.138C46.7932 42.6583 50.4602 42.4868 54.2495 43.6289C57.9747 44.7517 61.4145 45.4398 64.4733 45.6747C64.5017 45.677 64.5301 45.6779 64.558 45.6779C65.123 45.6779 65.6013 45.2426 65.6452 44.6699C65.6914 44.0688 65.2415 43.5441 64.6404 43.4979Z" fill="white"/>
<path d="M64.6404 20.301C61.7381 20.0782 58.454 19.4189 54.8794 18.3416C50.5851 17.0472 46.4165 17.2469 42.4887 18.9352C41.9347 19.1734 41.6789 19.8154 41.9168 20.3693C42.155 20.923 42.7962 21.1793 43.3509 20.9411C46.7933 19.4614 50.4603 19.2901 54.2495 20.4319C57.9746 21.5546 61.4144 22.2429 64.4733 22.4778C64.5017 22.4801 64.5301 22.481 64.558 22.481C65.123 22.481 65.6013 22.0457 65.6452 21.473C65.6914 20.8719 65.2415 20.3472 64.6404 20.301Z" fill="white"/>
<path d="M64.6402 29.5798C61.7388 29.3572 58.4549 28.698 54.8794 27.6206C50.5851 26.3261 46.4162 26.5259 42.4887 28.2141C41.9347 28.4522 41.6789 29.0942 41.9168 29.6482C42.155 30.202 42.7962 30.4583 43.3509 30.22C46.793 28.7404 50.4602 28.5689 54.2495 29.7109C57.9756 30.8338 61.4153 31.5221 64.4735 31.7568C64.5018 31.759 64.5301 31.7599 64.558 31.7599C65.123 31.7599 65.6013 31.3245 65.6452 30.7517C65.6914 30.1506 65.2415 29.626 64.6402 29.5798Z" fill="white"/>
<path d="M64.6404 24.9406C61.7382 24.7178 58.4541 24.0585 54.8794 22.9813C50.5852 21.6868 46.4162 21.8866 42.4887 23.5748C41.9347 23.8129 41.6789 24.4549 41.9168 25.0089C42.155 25.5625 42.7962 25.819 43.3509 25.5807C46.7936 24.101 50.4603 23.9297 54.2495 25.0716C57.9747 26.1943 61.4145 26.8825 64.4733 27.1174C64.5017 27.1197 64.5301 27.1206 64.558 27.1206C65.123 27.1206 65.6013 26.6853 65.6452 26.1125C65.6914 25.5114 65.2415 24.9868 64.6404 24.9406Z" fill="white"/>
<path d="M64.6402 34.2193C61.7384 33.9968 58.4543 33.3375 54.8794 32.2601C50.5851 30.9658 46.4165 31.1655 42.4887 32.8538C41.9347 33.0919 41.6789 33.7339 41.9168 34.2879C42.155 34.8415 42.7962 35.0978 43.3509 34.8597C46.7933 33.38 50.4603 33.2088 54.2495 34.3505C57.975 35.4733 61.4147 36.1616 64.4735 36.3964C64.5018 36.3986 64.5301 36.3995 64.558 36.3995C65.123 36.3995 65.6013 35.9641 65.6452 35.3913C65.6914 34.7902 65.2415 34.2656 64.6402 34.2193Z" fill="white"/>
<path d="M11.1255 13.2025C11.1535 13.2025 11.1818 13.2015 11.2102 13.1993C14.2691 12.9645 17.7088 12.2762 21.434 11.1535C25.2233 10.0116 28.8902 10.1827 32.3326 11.6626C32.8864 11.9007 33.5286 11.6446 33.7667 11.0908C34.0048 10.5368 33.7488 9.89483 33.1948 9.65671C29.2674 7.96839 25.0986 7.76884 20.8041 9.06318C17.2292 10.1404 13.9453 10.7997 11.0431 11.0225C10.442 11.0685 9.99215 11.5933 10.0384 12.1944C10.0822 12.7672 10.5606 13.2025 11.1255 13.2025Z" fill="white"/>
<path d="M11.1255 17.8417C11.1535 17.8417 11.1818 17.8407 11.2101 17.8385C14.2683 17.604 17.7081 16.9156 21.434 15.7927C25.2233 14.6508 28.8902 14.8218 32.3326 16.3018C32.8864 16.5398 33.5286 16.2838 33.7667 15.73C34.0048 15.176 33.7488 14.534 33.1948 14.2959C29.2674 12.6076 25.0986 12.4082 20.8041 13.7024C17.2287 14.7799 13.9446 15.439 11.0433 15.6617C10.442 15.7077 9.99215 16.2324 10.0384 16.8335C10.0822 17.4064 10.5606 17.8417 11.1255 17.8417Z" fill="white"/>
<path d="M11.1255 41.0387C11.1535 41.0387 11.1818 41.0377 11.2102 41.0355C14.2693 40.8007 17.709 40.1123 21.434 38.9896C25.2235 37.8473 28.8902 38.0191 32.3326 39.4988C32.8864 39.7368 33.5286 39.4808 33.7667 38.927C34.0048 38.373 33.7488 37.731 33.1948 37.4929C29.2674 35.8046 25.0986 35.6051 20.8041 36.8992C17.2294 37.9766 13.9454 38.6359 11.0431 38.8587C10.442 38.9047 9.99215 39.4295 10.0384 40.0306C10.0822 40.6034 10.5606 41.0387 11.1255 41.0387Z" fill="white"/>
<path d="M11.1255 45.6779C11.1535 45.6779 11.1818 45.6769 11.2102 45.6747C14.2691 45.44 17.7088 44.7517 21.434 43.629C25.2233 42.487 28.8902 42.658 32.3326 44.1381C32.8864 44.3759 33.5286 44.12 33.7667 43.5662C34.0048 43.0123 33.7488 42.3703 33.1948 42.1322C29.2674 40.4439 25.0986 40.2443 20.8041 41.5386C17.2292 42.6158 13.9453 43.2751 11.0431 43.498C10.442 43.544 9.99215 44.0688 10.0384 44.6699C10.0822 45.2426 10.5606 45.6779 11.1255 45.6779Z" fill="white"/>
<path d="M11.1255 22.481C11.1535 22.481 11.1818 22.4799 11.2102 22.4778C14.2693 22.243 17.709 21.5546 21.434 20.4318C25.2235 19.2897 28.8902 19.4613 32.3326 20.9411C32.8864 21.1791 33.5286 20.923 33.7667 20.3692C34.0048 19.8153 33.7488 19.1733 33.1948 18.9352C29.2674 17.2469 25.0986 17.0473 20.8041 18.3415C17.2294 19.4188 13.9454 20.0781 11.0431 20.301C10.442 20.347 9.99215 20.8718 10.0384 21.4729C10.0822 22.0456 10.5606 22.481 11.1255 22.481Z" fill="white"/>
<path d="M11.1255 31.7598C11.1535 31.7598 11.1818 31.7588 11.2101 31.7568C14.2683 31.5221 17.7081 30.8337 21.434 29.7108C25.2233 28.5689 28.8902 28.7399 32.3326 30.2199C32.8864 30.4579 33.5286 30.2019 33.7667 29.6481C34.0048 29.0942 33.7488 28.4521 33.1948 28.214C29.2676 26.5259 25.0989 26.3262 20.8041 27.6205C17.2287 28.698 13.9446 29.3572 11.0433 29.5797C10.442 29.6258 9.99215 30.1505 10.0384 30.7516C10.0822 31.3245 10.5606 31.7598 11.1255 31.7598Z" fill="white"/>
<path d="M11.1255 27.1207C11.1535 27.1207 11.1818 27.1197 11.2102 27.1175C14.2691 26.8827 17.7088 26.1944 21.434 25.0717C25.2232 23.9299 28.89 24.1008 32.3326 25.5808C32.8864 25.8187 33.5286 25.5628 33.7667 25.009C34.0048 24.455 33.7488 23.813 33.1948 23.5749C29.2672 21.8866 25.0986 21.6868 20.8041 22.9814C17.2292 24.0586 13.9453 24.7179 11.0431 24.9407C10.442 24.9867 9.99215 25.5115 10.0384 26.1127C10.0822 26.6854 10.5606 27.1207 11.1255 27.1207Z" fill="white"/>
<path d="M11.1255 36.3995C11.1535 36.3995 11.1818 36.3984 11.2101 36.3964C14.2689 36.1618 17.7085 35.4733 21.434 34.3505C25.2235 33.2082 28.8902 33.38 32.3326 34.8597C32.8864 35.0978 33.5286 34.8417 33.7667 34.2879C34.0048 33.7339 33.7488 33.0919 33.1948 32.8538C29.2674 31.1655 25.0986 30.9658 20.8041 32.2601C17.2292 33.3375 13.945 33.9968 11.0433 34.2193C10.442 34.2655 9.99215 34.7902 10.0384 35.3913C10.0822 35.9641 10.5606 36.3995 11.1255 36.3995Z" fill="white"/>
<path d="M72.4353 6.90304H70.7264V5.90707C70.7264 4.51128 69.5357 3.40717 68.1412 3.51822C66.5305 3.64703 63.0034 3.65489 57.4782 2.25386C56.8936 2.10526 56.2997 2.45937 56.1519 3.04359C56.0035 3.6281 56.3572 4.22193 56.9416 4.36995C62.4802 5.77433 66.1841 5.86559 68.3157 5.69428C68.4399 5.68555 68.5431 5.78204 68.5431 5.90707V49.9575C64.4081 50.4036 58.8843 49.2199 54.8792 48.013C45.9338 45.3171 40.1508 49.9488 38.9332 50.6087V6.97538C40.1127 5.86908 44.8666 1.95069 51.9421 3.08915C52.5369 3.18579 53.0974 2.7803 53.1933 2.18501C53.2893 1.58988 52.8845 1.02967 52.2892 0.933754C44.8598 -0.263218 39.7331 3.36583 37.8389 5.01851C33.496 1.25206 27.2838 -0.42099 20.8041 1.53224C13.8494 3.62811 9.50954 3.67541 7.5422 3.51836C6.14582 3.40629 4.95715 4.5139 4.95715 5.90707V6.90304H3.248C1.77798 6.90304 0.582031 8.09885 0.582031 9.56901V53.8359C0.582031 55.306 1.77813 56.5018 3.24815 56.5018H31.5316C31.9554 56.5018 32.3398 56.7357 32.5109 57.0981C34.6295 61.5804 41.0459 61.5968 43.1722 57.0981C43.3435 56.736 43.7279 56.5018 44.1517 56.5018H72.4351C73.9051 56.5018 75.101 55.3059 75.101 53.8359V33.1341C75.101 32.5311 74.6124 32.0425 74.0094 32.0425C73.4064 32.0425 72.9178 32.5311 72.9178 33.1341V53.8357C72.9178 54.1019 72.7013 54.3185 72.4351 54.3185H44.1519C42.8879 54.3185 41.7288 55.0432 41.1986 56.165C39.8642 58.9879 35.8241 58.9991 34.4848 56.1652C33.9548 55.0435 32.7956 54.3185 31.5316 54.3185H3.24815C2.9818 54.3185 2.76522 54.1019 2.76522 53.8357V9.56901C2.76522 9.30281 2.9818 9.08623 3.248 9.08623H4.95715V50.8891C4.95715 51.3844 5.2906 51.8177 5.76944 51.9444C5.97699 51.9994 10.9768 53.255 21.4341 50.1033C26.4938 48.5786 31.3771 49.5136 35.2517 52.2459C36.7498 53.3022 38.8354 53.372 40.4321 52.2458C42.7721 50.5956 47.6782 48.1233 54.2496 50.1033C64.7074 53.2548 69.7067 51.9992 69.9143 51.9444C70.3931 51.8177 70.7266 51.3844 70.7266 50.8891V9.08623H72.4354C72.7016 9.08623 72.9182 9.30281 72.9182 9.56901V28.04C72.9182 28.643 73.4068 29.1316 74.0098 29.1316C74.6128 29.1316 75.1014 28.643 75.1014 28.04V9.56901C75.1012 8.09885 73.9053 6.90304 72.4353 6.90304ZM7.14034 5.90707C7.14034 5.78466 7.24033 5.6854 7.36769 5.69428C9.48829 5.86486 14.1363 5.82178 21.4341 3.62243C27.3443 1.84182 32.9907 3.45607 36.7501 6.97625V50.6087C36.124 50.2697 29.986 45.2454 20.8041 48.0131C20.2153 48.1906 19.5682 48.3748 18.9695 48.5348C18.9622 48.5367 18.9549 48.5387 18.9478 48.5406C15.4328 49.4782 10.757 50.3476 7.1402 49.9581C7.14034 46.924 7.14034 6.72067 7.14034 5.90707Z" fill="white"/>
</svg>
