<svg width="75" height="61" viewBox="0 0 75 61" fill="none" xmlns="http://www.w3.org/2000/svg">
<path d="M59.6366 50.7168H60.2951C60.7854 50.7168 61.1828 50.3193 61.1828 49.8292V45.9235C61.1828 45.4333 60.7854 45.0358 60.2951 45.0358H57.4477L58.09 39.5596C58.1471 39.0727 57.7986 38.6316 57.3118 38.5747C56.8252 38.517 56.3839 38.8659 56.3268 39.3528L55.6602 45.0359H52.226L53.0124 37.4376C53.0383 37.1877 52.957 36.9385 52.7886 36.7518C52.6203 36.5651 52.3807 36.4587 52.1295 36.4587H49.556C48.9685 34.5203 48.0716 32.7038 46.9154 31.0745L54.9345 31.8698C55.5308 31.929 56.066 32.2186 56.4414 32.6855C56.8169 33.1523 56.9856 33.737 56.9158 34.332L56.6372 36.7057C56.5801 37.1926 56.9286 37.6336 57.4154 37.6907C57.4505 37.6949 57.4854 37.6969 57.52 37.6969C57.9639 37.6969 58.3474 37.3643 58.4004 36.9125L58.679 34.5389C58.8048 33.4669 58.5012 32.4135 57.8246 31.5726C57.1478 30.7317 56.1837 30.2098 55.1096 30.1033L45.3323 29.1335C44.7359 28.4946 44.0939 27.8969 43.4105 27.3455L41.1106 16.1252C43.3037 14.591 44.7419 12.0485 44.7419 9.17486C44.7418 4.49949 40.9385 0.696045 36.2633 0.696045C31.5882 0.696045 27.7847 4.49949 27.7847 9.17462C27.7847 11.6803 28.878 13.9347 30.6118 15.4882L30.0433 17.7078C29.8337 18.5262 29.6653 19.3542 29.5363 20.1883L27.1074 13.8631C26.6175 12.5873 25.3702 11.7301 24.0035 11.7301C22.9731 11.7301 22.0182 12.1958 21.3837 13.0077C20.7492 13.8196 20.5281 14.8587 20.7771 15.8586L23.1369 25.3326C21.2361 26.3238 19.5034 27.6465 18.0216 29.2604C14.8612 32.7024 13.1206 37.1733 13.1206 41.8495C13.1206 52.1145 21.4718 60.4658 31.7368 60.4658C38.7941 60.4658 44.9468 56.519 48.1034 50.7167H51.3269C50.3325 51.7527 49.7193 53.1574 49.7193 54.7034C49.7193 57.8808 52.3044 60.466 55.4817 60.466C58.6592 60.466 61.2443 57.8809 61.2443 54.7034C61.2442 53.1575 60.6311 51.7529 59.6366 50.7168ZM51.145 38.2338L50.4411 45.0358H50.0805C50.2599 44.0002 50.3544 42.9358 50.3544 41.8496C50.3544 40.618 50.2321 39.4085 49.9992 38.2339H51.145V38.2338ZM41.2958 25.8692C40.0327 25.1124 38.667 24.4987 37.2175 24.0534V21.0015C37.2175 20.5113 36.82 20.1138 36.3298 20.1138C35.8396 20.1138 35.4421 20.5113 35.4421 21.0015V35.7362H31.0041V24.21C31.0042 24.2037 31.0041 24.1975 31.0041 24.1912V24.1742C31.0041 22.1432 31.2596 20.1158 31.7636 18.1483L32.1622 16.5919C33.3782 17.2673 34.7762 17.6532 36.2633 17.6532C37.4019 17.6532 38.4882 17.426 39.4811 17.0172L41.2958 25.8692ZM35.4419 37.5115V39.198C35.4419 40.4216 34.4463 41.4171 33.2228 41.4171C31.9993 41.4171 31.0037 40.4216 31.0037 39.198V37.5115H31.0038H35.4419ZM29.56 9.17462C29.56 5.47846 32.5671 2.4714 36.2633 2.4714C39.9594 2.4714 42.9666 5.47846 42.9666 9.17462C42.9666 12.8708 39.9595 15.8778 36.2633 15.8778C32.5671 15.8778 29.56 12.8708 29.56 9.17462ZM22.4999 15.4297C22.3838 14.9637 22.4869 14.4794 22.7826 14.101C23.0783 13.7226 23.5233 13.5056 24.0034 13.5056C24.6403 13.5056 25.2216 13.9051 25.4498 14.4995L28.8868 23.4494C27.4698 23.6673 26.0924 24.0471 24.7782 24.5767L22.4999 15.4297ZM31.737 58.6905C22.4508 58.6905 14.8961 51.1357 14.8961 41.8496C14.8961 37.6193 16.4705 33.5748 19.3294 30.4611C20.8169 28.841 22.5838 27.5458 24.5272 26.6243C24.5468 26.6157 24.5661 26.6064 24.5848 26.5966C26.0477 25.9097 27.6101 25.4354 29.2286 25.1936V27.4628C25.6161 28.0927 22.3179 30.0966 20.0872 33.0435C19.7913 33.4344 19.8683 33.9912 20.2591 34.2871C20.4194 34.4084 20.6076 34.4671 20.7943 34.4671C21.0628 34.4671 21.3282 34.3458 21.5028 34.1151C23.4001 31.6085 26.1754 29.8786 29.2286 29.2686V39.1983C29.2286 41.4008 31.0205 43.1927 33.223 43.1927C35.4255 43.1927 37.2175 41.4008 37.2175 39.1983V30.2503C41.6588 32.3511 44.5645 36.8624 44.5645 41.85C44.5645 48.923 38.8101 54.6774 31.7371 54.6774C24.664 54.6774 18.9097 48.923 18.9097 41.85C18.9097 39.9727 19.3055 38.1641 20.0865 36.4744C20.2922 36.0294 20.098 35.5019 19.653 35.2962C19.2078 35.0906 18.6805 35.2845 18.4748 35.7296C17.5853 37.6544 17.1342 39.7137 17.1342 41.85C17.1342 49.902 23.6849 56.4528 31.737 56.4528C39.789 56.4528 46.3397 49.902 46.3397 41.85C46.3397 35.893 42.6991 30.5311 37.2174 28.311V25.9204C43.9624 28.236 48.5791 34.6267 48.5791 41.8499C48.579 51.1357 41.0237 58.6905 31.737 58.6905ZM48.9494 48.9415C49.2348 48.2511 49.4801 47.54 49.682 46.811H59.4075V48.9415H55.4977C55.4924 48.9415 55.4871 48.9411 55.4817 48.9411C55.4764 48.9411 55.4711 48.9415 55.4658 48.9415H48.9494ZM55.4817 58.6906C53.2833 58.6906 51.4947 56.9021 51.4947 54.7034C51.4947 52.5103 53.2746 50.7255 55.4658 50.7167H55.4976C57.6888 50.7254 59.4688 52.5103 59.4688 54.7034C59.4688 56.902 57.6803 58.6906 55.4817 58.6906Z" fill="white"/>
<path d="M55.482 52.0663C54.0279 52.0663 52.8447 53.2494 52.8447 54.7035C52.8447 56.1576 54.0279 57.3409 55.482 57.3409C56.9362 57.3409 58.1193 56.1577 58.1193 54.7035C58.1193 53.2493 56.9362 52.0663 55.482 52.0663ZM55.482 55.5655C55.0066 55.5655 54.6201 55.1789 54.6201 54.7035C54.6201 54.2282 55.0067 53.8416 55.482 53.8416C55.9572 53.8416 56.344 54.2283 56.344 54.7035C56.344 55.1788 55.9572 55.5655 55.482 55.5655Z" fill="white"/>
</svg>
