<svg width="75" height="61" viewBox="0 0 75 61" fill="none" xmlns="http://www.w3.org/2000/svg">
<path d="M38.0541 31.4039L32.2993 29.6587L31.6733 28.4067C31.4781 28.0164 31.032 27.8358 30.6284 27.9608V27.743C33.0115 26.0214 34.6288 23.3022 34.8582 20.2017C35.975 19.8897 36.8538 18.9816 37.0377 17.8495C37.1539 17.1355 37.0022 16.4325 36.6551 15.8482C37.7661 15.2666 38.5264 14.1029 38.5264 12.7646C38.5264 11.5507 37.8831 10.4447 36.8829 9.82163C36.9381 9.59476 36.9664 9.36097 36.9664 9.12448C36.9664 7.49288 35.639 6.1655 34.0074 6.1655C33.616 6.1655 33.2424 6.24261 32.9002 6.38125C31.2065 4.84258 29.0378 4 26.7271 4H22.567C20.2665 4 18.0888 4.84398 16.3937 6.38113C16.0515 6.2425 15.678 6.1655 15.2867 6.1655C13.6551 6.1655 12.3277 7.49288 12.3277 9.12448C12.3277 9.36108 12.356 9.59487 12.4112 9.82163C11.4109 10.4447 10.7677 11.5507 10.7677 12.7646C10.7677 14.1022 11.5271 15.2652 12.6369 15.8472C12.2906 16.4295 12.1398 17.1322 12.2564 17.8495C12.4404 18.9816 13.3192 19.8897 14.4359 20.2017C14.6648 23.2979 16.2781 26.0137 18.6559 27.7357V27.9575C18.2548 27.8385 17.8143 28.0195 17.6207 28.4066L16.9952 29.6576L11.0175 31.4509C9.31275 31.9624 8.16748 33.5018 8.16748 35.2815V56.8809C8.16748 57.3663 8.561 57.7598 9.04639 57.7598C9.53177 57.7598 9.92529 57.3663 9.92529 56.8809V35.2815C9.92529 35.2171 9.92822 35.1533 9.93349 35.09L13.4467 38.6032C14.0665 39.223 14.4077 40.0469 14.4077 40.9234V56.8808C14.4077 57.3661 14.8012 57.7597 15.2866 57.7597C15.772 57.7597 16.1655 57.3661 16.1655 56.8808V40.9234C16.1655 39.5774 15.6413 38.312 14.6895 37.3602L10.8191 33.4897C11.0263 33.335 11.2622 33.2128 11.5226 33.1347L15.4824 31.9468C15.7925 32.8183 18.0952 38.8038 24.1594 42.8465C24.3071 42.945 24.477 42.9942 24.6469 42.9942C24.8169 42.9942 24.9868 42.945 25.1344 42.8465C31.4017 38.6683 33.6374 32.492 33.8214 31.9572L37.5441 33.0861C37.6292 33.1119 37.715 33.1242 37.7995 33.1242C38.1764 33.1242 38.5251 32.8796 38.6402 32.5001C38.781 32.0355 38.5186 31.5449 38.0541 31.4039ZM30.8896 30.7701L27.9195 34.4829C27.8787 34.5338 27.8298 34.5443 27.7911 34.5433C27.7551 34.5428 27.7039 34.5312 27.6647 34.4789L25.9821 32.2352L30.4941 29.9791L30.8896 30.7701ZM24.6469 30.9374L20.4136 28.8207V28.7618C21.7045 29.3503 23.138 29.6788 24.6469 29.6788C26.1521 29.6788 27.5821 29.3517 28.8706 28.7659V28.8255L24.6469 30.9374ZM34.0073 7.92343C34.6696 7.92343 35.2084 8.46226 35.2084 9.1246C35.2084 9.35921 35.1393 9.58761 35.0086 9.78507C34.8534 10.0196 34.8197 10.3142 34.9182 10.5776C35.0166 10.841 35.235 11.0414 35.5059 11.1169C36.2493 11.3239 36.7686 12.0014 36.7686 12.7647C36.7686 13.7138 35.9964 14.4859 35.0473 14.4859C34.0982 14.4859 33.3261 13.7138 33.3261 12.7647C33.3261 12.3394 33.4895 11.9275 33.7864 11.605C33.9767 11.3983 34.0566 11.113 34.0015 10.8375C33.9465 10.562 33.7629 10.3294 33.5079 10.2117C33.0816 10.015 32.8061 9.58831 32.8061 9.1246C32.8061 8.46226 33.3449 7.92343 34.0073 7.92343ZM12.5253 12.7647C12.5254 12.0015 13.0446 11.324 13.788 11.117C14.059 11.0415 14.2774 10.8412 14.3757 10.5777C14.474 10.3143 14.4404 10.0197 14.2852 9.78518C14.1546 9.58772 14.0854 9.35932 14.0854 9.12472C14.0854 8.46237 14.6243 7.92355 15.2866 7.92355C15.949 7.92355 16.4878 8.46226 16.4878 9.1246C16.4878 9.58831 16.2123 10.0151 15.7859 10.2117C15.5308 10.3294 15.3473 10.562 15.2924 10.8375C15.2373 11.113 15.3172 11.3983 15.5075 11.605C15.8043 11.9275 15.9678 12.3394 15.9678 12.7647C15.9678 13.7138 15.1957 14.4859 14.2466 14.4859C13.2975 14.4859 12.5253 13.7138 12.5253 12.7647ZM16.1655 19.4395C16.1655 18.9542 15.772 18.5606 15.2866 18.5606C14.6402 18.5606 14.0832 18.1337 13.9912 17.5676C13.8863 16.9226 14.281 16.3293 14.9091 16.1877C14.9431 16.1801 14.9758 16.17 15.0079 16.1588C16.5611 15.8105 17.7255 14.4215 17.7255 12.7648C17.7255 12.2273 17.5994 11.7024 17.3618 11.2267C17.9163 10.6796 18.2456 9.92487 18.2456 9.1246C18.2456 8.53128 18.0693 7.97851 17.7675 7.5148C19.1089 6.37925 20.7925 5.75793 22.5669 5.75793H26.727C28.5092 5.75793 30.1878 6.37621 31.5278 7.51269C31.225 7.97687 31.0483 8.53034 31.0483 9.1246C31.0483 9.92487 31.3776 10.6796 31.9321 11.2267C31.6944 11.7024 31.5684 12.2273 31.5684 12.7648C31.5684 14.4549 32.7801 15.8667 34.3803 16.1789C34.4072 16.1899 34.4349 16.1999 34.4634 16.2083C34.966 16.3585 35.4156 16.8735 35.3028 17.5677C35.2108 18.1338 34.6538 18.5608 34.0074 18.5608C33.522 18.5608 33.1285 18.9543 33.1285 19.4397C33.1285 24.1164 29.3238 27.9211 24.6471 27.9211C19.9704 27.9211 16.1655 24.1162 16.1655 19.4395ZM18.5213 30.5359L18.7998 29.9791L23.3119 32.2352L21.6293 34.4789C21.5901 34.5312 21.5389 34.5428 21.5029 34.5433C21.4645 34.5464 21.4153 34.5338 21.3745 34.4829L18.4278 30.7996C18.4727 30.7175 18.5042 30.6286 18.5213 30.5359ZM24.6469 41.0484C20.7123 38.252 18.5946 34.5921 17.6946 32.6968L20.0019 35.5809C20.369 36.0398 20.9134 36.3012 21.4994 36.3012C21.5097 36.3012 21.52 36.301 21.5303 36.3009C22.1281 36.2915 22.6767 36.0118 23.0354 35.5336L23.7679 34.5568V38.1603C23.7679 38.6457 24.1614 39.0392 24.6468 39.0392C25.1322 39.0392 25.5257 38.6457 25.5257 38.1603V34.5568L26.2583 35.5336C26.617 36.0119 27.1655 36.2915 27.7633 36.3009C27.7736 36.301 27.7839 36.3012 27.7942 36.3012C28.3803 36.3012 28.9246 36.0398 29.2918 35.5809L31.6061 32.6879C30.7134 34.578 28.602 38.239 24.6469 41.0484Z" fill="white"/>
<path d="M27.2808 21.8772C26.9038 21.5713 26.3503 21.6291 26.0446 22.0061C25.6708 22.4671 25.1745 22.7209 24.6471 22.7209C24.1198 22.7209 23.6235 22.4671 23.2497 22.0061C22.9441 21.6291 22.3905 21.5714 22.0135 21.8772C21.6365 22.1829 21.5788 22.7364 21.8846 23.1134C22.5883 23.981 23.5953 24.4786 24.6473 24.4786C25.6993 24.4786 26.7059 23.9809 27.4097 23.1134C27.7155 22.7364 27.6578 22.1829 27.2808 21.8772Z" fill="white"/>
<path d="M20.4868 16.4806C20.0014 16.4806 19.6079 16.8741 19.6079 17.3595V18.3995C19.6079 18.8849 20.0014 19.2784 20.4868 19.2784C20.9722 19.2784 21.3657 18.8849 21.3657 18.3995V17.3595C21.3657 16.8741 20.9722 16.4806 20.4868 16.4806Z" fill="white"/>
<path d="M28.8071 16.4806C28.3217 16.4806 27.9282 16.8741 27.9282 17.3595V18.3995C27.9282 18.8849 28.3217 19.2784 28.8071 19.2784C29.2925 19.2784 29.686 18.8849 29.686 18.3995V17.3595C29.686 16.8741 29.2925 16.4806 28.8071 16.4806Z" fill="white"/>
<path d="M37.7489 35.4587C37.4056 35.1155 36.8491 35.1155 36.506 35.4587L34.6044 37.3603C33.6526 38.3121 33.1284 39.5775 33.1284 40.9235V56.8809C33.1284 57.3663 33.5219 57.7598 34.0073 57.7598C34.4927 57.7598 34.8862 57.3663 34.8862 56.8809V40.9235C34.8862 40.0471 35.2276 39.223 35.8473 38.6033L37.7489 36.7017C38.0921 36.3585 38.0921 35.802 37.7489 35.4587Z" fill="white"/>
<path d="M55.3616 29.1574C54.9846 28.8516 54.431 28.9094 54.1254 29.2864C53.7516 29.7474 53.2553 30.0012 52.728 30.0012C52.2006 30.0012 51.7043 29.7474 51.3305 29.2864C51.0249 28.9094 50.4713 28.8517 50.0943 29.1574C49.7173 29.4632 49.6596 30.0167 49.9654 30.3937C50.669 31.2612 51.6758 31.7589 52.7278 31.7589C53.7798 31.7589 54.7867 31.2612 55.4905 30.3937C55.7963 30.0167 55.7386 29.4632 55.3616 29.1574Z" fill="white"/>
<path d="M43.3677 44.5615C42.8823 44.5615 42.4888 44.955 42.4888 45.4404V56.8808C42.4888 57.3662 42.8823 57.7597 43.3677 57.7597C43.8531 57.7597 44.2466 57.3662 44.2466 56.8808V45.4404C44.2466 44.955 43.8531 44.5615 43.3677 44.5615Z" fill="white"/>
<path d="M62.0881 44.5615C61.6027 44.5615 61.2092 44.955 61.2092 45.4404V56.8808C61.2092 57.3662 61.6027 57.7597 62.0881 57.7597C62.5735 57.7597 62.967 57.3662 62.967 56.8808V45.4404C62.967 44.955 62.5735 44.5615 62.0881 44.5615Z" fill="white"/>
<path d="M65.2293 38.5554C65.7783 37.8591 66.0873 36.991 66.0873 36.0801C66.0873 34.599 65.275 33.2735 64.0039 32.584C64.0062 32.5359 64.0073 32.488 64.0073 32.4401C64.0073 31.2976 63.4541 30.2518 62.5512 29.6082C62.611 29.4055 62.6665 29.2014 62.7134 28.9947C62.8273 28.4927 62.9 27.9624 62.9341 27.3811C64.3175 25.3399 65.0473 22.9587 65.0473 20.4796C65.0473 13.6867 59.5209 8.16028 52.728 8.16028C45.9351 8.16028 40.4087 13.6867 40.4087 20.4796C40.4087 22.9589 41.1386 25.3402 42.522 27.3812C42.5561 27.9628 42.6288 28.4931 42.7426 28.9945C42.7895 29.2011 42.845 29.4053 42.9048 29.6081C42.0018 30.2517 41.4487 31.2975 41.4487 32.4401C41.4487 32.488 41.4499 32.5359 41.4521 32.584C40.1809 33.2735 39.3686 34.5991 39.3686 36.0801C39.3686 36.991 39.6778 37.8591 40.2267 38.5554C38.4154 39.6422 37.2886 41.5944 37.2886 43.761V56.8814C37.2886 57.3667 37.6821 57.7603 38.1675 57.7603C38.6529 57.7603 39.0464 57.3667 39.0464 56.8814V43.761C39.0464 41.9837 40.1127 40.4088 41.7628 39.7487L41.9309 39.6814C44.5305 43.1947 48.5353 45.2793 52.7281 45.2793C56.9783 45.2793 60.8952 43.2428 63.5245 39.6812L63.6933 39.7487C65.3436 40.4088 66.4097 41.9837 66.4097 43.761V56.8809C66.4097 57.3663 66.8032 57.7598 67.2886 57.7598C67.774 57.7598 68.1675 57.3663 68.1675 56.8809V43.761C68.1674 41.5944 67.0405 39.6422 65.2293 38.5554ZM42.1665 20.4796C42.1665 14.656 46.9044 9.91809 52.728 9.91809C58.5516 9.91809 63.2895 14.656 63.2895 20.4796C63.2895 21.961 62.9852 23.4011 62.3997 24.7302C61.1334 22.0053 58.3188 21.2417 55.5807 20.5008C53.3671 19.9019 51.0782 19.2824 49.1168 17.7133C48.9094 17.5474 48.6382 17.484 48.3792 17.5411C48.12 17.5981 47.9003 17.769 47.7816 18.0065C47.7725 18.0246 46.8518 19.8349 45.0546 20.7335C44.6204 20.9506 44.4444 21.4785 44.6615 21.9127C44.8786 22.3469 45.4064 22.523 45.8407 22.3057C47.2712 21.5904 48.2568 20.4546 48.8125 19.6683C50.8598 21.0443 53.1093 21.6531 55.1215 22.1976C55.782 22.3763 56.3899 22.5457 56.9454 22.7223C56.9262 22.722 56.9072 22.7209 56.888 22.7209C55.8169 22.7209 54.877 23.2929 54.3576 24.1476C53.8717 23.8975 53.314 23.761 52.728 23.761C52.1418 23.761 51.584 23.8975 51.0983 24.1476C50.5788 23.293 49.6388 22.7209 48.5678 22.7209C46.9362 22.7209 45.6089 24.0483 45.6089 25.6799C45.6089 27.3115 46.9362 28.6389 48.5678 28.6389C50.0885 28.6389 51.3444 27.4857 51.5082 26.008C51.7949 25.7029 52.2433 25.5188 52.728 25.5188C53.2126 25.5188 53.6609 25.7029 53.9477 26.008C54.1115 27.4857 55.3674 28.6389 56.888 28.6389C58.5196 28.6389 59.847 27.3115 59.847 25.6799C59.847 24.8251 59.4823 24.0543 58.9008 23.5137C60.1578 24.1986 60.9309 25.1549 61.2174 26.8438C61.2026 26.9027 61.1933 26.9639 61.1909 27.0271C61.1699 27.6131 61.1071 28.1295 60.9991 28.6057C60.5807 30.4494 59.5352 32.1236 58.0552 33.3199C56.5324 34.5509 54.6903 35.2015 52.7279 35.2015C50.7655 35.2015 48.9233 34.5509 47.4005 33.3199C45.9206 32.1237 44.8752 30.4494 44.4567 28.6057C44.3489 28.1304 44.2861 27.6145 44.265 27.0286C44.2565 26.7959 44.1582 26.5869 44.004 26.4348C42.8013 24.6769 42.1665 22.6212 42.1665 20.4796ZM58.0893 25.6798C58.0893 26.3421 57.5505 26.8809 56.8881 26.8809C56.2258 26.8809 55.687 26.3421 55.687 25.6798C55.687 25.0174 56.2258 24.4786 56.8881 24.4786C57.5505 24.4786 58.0893 25.0174 58.0893 25.6798ZM49.769 25.6798C49.769 26.3421 49.2302 26.8809 48.5678 26.8809C47.9055 26.8809 47.3667 26.3421 47.3667 25.6798C47.3667 25.0174 47.9055 24.4786 48.5678 24.4786C49.2302 24.4786 49.769 25.0174 49.769 25.6798ZM57.7809 37.3809C56.4144 38.6495 54.6268 39.3613 52.7279 39.3613C50.831 39.3613 49.0425 38.6489 47.6755 37.3807C48.2244 37.1405 48.6789 36.7461 48.9909 36.2498C50.1747 36.7135 51.4434 36.9591 52.728 36.9591C54.0126 36.9591 55.2813 36.7135 56.4651 36.2498C56.7772 36.7464 57.232 37.1407 57.7809 37.3809ZM41.922 37.7918C41.4204 37.3678 41.1266 36.7444 41.1266 36.08C41.1265 35.1082 41.7567 34.2552 42.6947 33.9574C43.1437 33.8149 43.4004 33.3437 43.2768 32.8891C43.2288 32.7128 43.2065 32.57 43.2065 32.4401C43.2065 32.0325 43.3495 31.6505 43.5963 31.3493C44.2477 32.63 45.1665 33.7741 46.2956 34.6868C46.645 34.9692 47.0123 35.2267 47.3939 35.4591C47.2703 35.6013 47.1144 35.7149 46.9339 35.7871L41.922 37.7918ZM52.728 43.5215C49.1854 43.5215 45.9117 41.885 43.6258 39.0035L45.9063 38.0914C47.6509 40.0222 50.1069 41.1192 52.7281 41.1192C55.3518 41.1192 57.8053 40.0226 59.5497 38.0913L61.831 39.0039C59.5441 41.8844 56.2648 43.5215 52.728 43.5215ZM63.5339 37.7919L58.522 35.7871C58.3415 35.7149 58.1856 35.6013 58.0621 35.4591C58.4436 35.2266 58.811 34.9692 59.1604 34.6868C60.2895 33.7741 61.2083 32.6299 61.8597 31.3493C62.1065 31.6505 62.2495 32.0325 62.2495 32.4401C62.2495 32.57 62.2272 32.7128 62.1791 32.8891C62.0555 33.3437 62.3123 33.8149 62.7613 33.9574C63.6993 34.2552 64.3295 35.1082 64.3295 36.0801C64.3295 36.7445 64.0356 37.3679 63.5339 37.7919Z" fill="white"/>
</svg>
