<svg width="76" height="61" viewBox="0 0 76 61" fill="none" xmlns="http://www.w3.org/2000/svg">
<path d="M13.3279 41.0915H29.1846C29.6682 41.0915 30.0606 40.6996 30.0606 40.2156C30.0606 39.7315 29.6682 39.3396 29.1846 39.3396H13.3279C12.8443 39.3396 12.4519 39.7315 12.4519 40.2156C12.4519 40.6996 12.8443 41.0915 13.3279 41.0915Z" fill="white"/>
<path d="M25.3382 43.4905C25.3382 43.0064 24.9458 42.6145 24.4622 42.6145H13.3279C12.8443 42.6145 12.4519 43.0064 12.4519 43.4905C12.4519 43.9745 12.8443 44.3664 13.3279 44.3664H24.4622C24.9458 44.3664 25.3382 43.9741 25.3382 43.4905Z" fill="white"/>
<path d="M61.8721 15.2398H58.3212C57.8372 15.2398 57.4453 15.6317 57.4453 16.1157C57.4453 16.5994 57.8372 16.9917 58.3212 16.9917H61.8721C64.14 16.9917 65.9855 18.8367 65.9855 21.1051V54.6007C65.9855 56.8686 64.14 58.7141 61.8721 58.7141H43.3765C41.1085 58.7141 39.2631 56.8686 39.2631 54.6007V21.1051C39.2631 18.8367 41.1085 16.9917 43.3765 16.9917L54.2722 16.9922C54.7558 16.9922 55.1481 16.5998 55.1481 16.1162C55.1481 15.6321 54.7558 15.2402 54.2722 15.2402L44.9021 15.2398C44.5412 14.8584 44.3323 14.3492 44.3323 13.8049V9.57841C45.6886 9.54556 46.7827 8.43418 46.7827 7.07005V3.20714C46.7827 1.82248 45.6558 0.696045 44.2716 0.696045H13.2807C11.896 0.696045 10.7696 1.82248 10.7696 3.20714V7.07005C10.7696 8.43464 11.8636 9.54556 13.22 9.57841V13.8049C13.22 14.5887 12.7875 15.3 12.0918 15.6604L10.8348 16.3119C9.04824 17.2376 7.93823 19.063 7.93823 21.0754V55.1007C7.93823 58.0594 10.3449 60.466 13.3035 60.466H61.8721C65.1063 60.466 67.7374 57.8349 67.7374 54.6007V21.1051C67.7374 17.8709 65.1063 15.2398 61.8721 15.2398ZM12.5215 7.07005V3.20714C12.5215 2.78832 12.8619 2.44797 13.2807 2.44797H44.2716C44.6899 2.44797 45.0307 2.78832 45.0307 3.20714V7.07005C45.0307 7.48887 44.6899 7.82922 44.2716 7.82922H13.2807C12.8619 7.82922 12.5215 7.48887 12.5215 7.07005ZM9.69016 30.8297H31.972C32.2257 30.8297 32.4319 31.0363 32.4319 31.2895V35.0854C32.4319 35.3391 32.2257 35.5453 31.972 35.5453H9.69016V30.8297ZM13.3035 58.7141C11.3112 58.7141 9.69016 57.0931 9.69016 55.1007V48.8859H18.0447C18.5287 48.8859 18.9206 48.494 18.9206 48.01C18.9206 47.5264 18.5287 47.134 18.0447 47.134H9.69016V37.2977H31.972C33.1915 37.2977 34.1838 36.3054 34.1838 35.0854V31.29C34.1838 30.07 33.1915 29.0777 31.972 29.0777H9.69016V26.3102H37.5111V47.1345H22.1389C21.6548 47.1345 21.2629 47.5264 21.2629 48.0104C21.2629 48.494 21.6548 48.8864 22.1389 48.8864H37.5111V54.6007C37.5111 56.2021 38.1567 57.6547 39.2001 58.7145H13.3035V58.7141ZM37.5111 21.1051V24.5583H9.69016V21.0754C9.69016 19.72 10.4375 18.4909 11.641 17.8672L12.8975 17.2157C14.1767 16.5528 14.972 15.2457 14.972 13.8049V9.58115H42.5803V13.8049C42.5803 14.3155 42.6812 14.8091 42.8668 15.2631C39.8703 15.5226 37.5111 18.0429 37.5111 21.1051Z" fill="white"/>
<path d="M51.748 21.2427V54.4636C51.748 54.9472 52.1404 55.3396 52.624 55.3396C53.1076 55.3396 53.5 54.9472 53.5 54.4636V21.2427C53.5 20.7591 53.1076 20.3667 52.624 20.3667C52.1404 20.3667 51.748 20.7591 51.748 21.2427Z" fill="white"/>
<path d="M45.4514 20.3667C43.8203 20.3667 42.4932 21.6934 42.4932 23.3244C42.4932 24.9559 43.8203 26.2826 45.4514 26.2826C47.0824 26.2826 48.4091 24.9559 48.4091 23.3244C48.4091 21.6934 47.0824 20.3667 45.4514 20.3667ZM45.4514 24.5307C44.7862 24.5307 44.2451 23.9896 44.2451 23.3249C44.2451 22.6597 44.7862 22.1191 45.4514 22.1191C46.1166 22.1191 46.6572 22.6597 46.6572 23.3249C46.6572 23.9896 46.1161 24.5307 45.4514 24.5307Z" fill="white"/>
<path d="M45.4514 30.0524C43.8203 30.0524 42.4932 31.3791 42.4932 33.0101C42.4932 34.6411 43.8203 35.9679 45.4514 35.9679C47.0824 35.9679 48.4091 34.6411 48.4091 33.0101C48.4091 31.3791 47.0824 30.0524 45.4514 30.0524ZM45.4514 34.2164C44.7862 34.2164 44.2451 33.6753 44.2451 33.0101C44.2451 32.3454 44.7862 31.8043 45.4514 31.8043C46.1166 31.8043 46.6572 32.3454 46.6572 33.0101C46.6572 33.6753 46.1161 34.2164 45.4514 34.2164Z" fill="white"/>
<path d="M45.4514 39.7379C43.8203 39.7379 42.4932 41.0651 42.4932 42.6961C42.4932 44.3271 43.8203 45.6539 45.4514 45.6539C47.0824 45.6539 48.4091 44.3271 48.4091 42.6961C48.4091 41.0651 47.0824 39.7379 45.4514 39.7379ZM45.4514 43.9019C44.7862 43.9019 44.2451 43.3608 44.2451 42.6961C44.2451 42.0309 44.7862 41.4898 45.4514 41.4898C46.1166 41.4898 46.6572 42.0309 46.6572 42.6961C46.6572 43.3608 46.1161 43.9019 45.4514 43.9019Z" fill="white"/>
<path d="M45.4514 49.4233C43.8203 49.4233 42.4932 50.7501 42.4932 52.3811C42.4932 54.0121 43.8203 55.3393 45.4514 55.3393C47.0824 55.3393 48.4091 54.0121 48.4091 52.3811C48.4091 50.7501 47.0824 49.4233 45.4514 49.4233ZM45.4514 53.5874C44.7862 53.5874 44.2451 53.0463 44.2451 52.3811C44.2451 51.7164 44.7862 51.1753 45.4514 51.1753C46.1166 51.1753 46.6572 51.7164 46.6572 52.3811C46.6572 53.0463 46.1161 53.5874 45.4514 53.5874Z" fill="white"/>
<path d="M59.7971 26.2822C61.4281 26.2822 62.7553 24.9555 62.7553 23.3244C62.7553 21.6934 61.4281 20.3667 59.7971 20.3667C58.1661 20.3667 56.8394 21.6934 56.8394 23.3244C56.8394 24.9555 58.1661 26.2822 59.7971 26.2822ZM59.7971 22.1182C60.4623 22.1182 61.0034 22.6593 61.0034 23.324C61.0034 23.9892 60.4623 24.5303 59.7971 24.5303C59.1319 24.5303 58.5913 23.9892 58.5913 23.324C58.5913 22.6593 59.1319 22.1182 59.7971 22.1182Z" fill="white"/>
<path d="M59.7971 35.9683C61.4281 35.9683 62.7553 34.6411 62.7553 33.0101C62.7553 31.3791 61.4281 30.0524 59.7971 30.0524C58.1661 30.0524 56.8394 31.3791 56.8394 33.0101C56.8394 34.6411 58.1661 35.9683 59.7971 35.9683ZM59.7971 31.8043C60.4623 31.8043 61.0034 32.3454 61.0034 33.0101C61.0034 33.6753 60.4623 34.2159 59.7971 34.2159C59.1319 34.2159 58.5913 33.6753 58.5913 33.0101C58.5913 32.3454 59.1319 31.8043 59.7971 31.8043Z" fill="white"/>
<path d="M59.7971 45.6539C61.4281 45.6539 62.7553 44.3271 62.7553 42.6961C62.7553 41.0651 61.4281 39.7379 59.7971 39.7379C58.1661 39.7379 56.8394 41.0651 56.8394 42.6961C56.8394 44.3271 58.1661 45.6539 59.7971 45.6539ZM59.7971 41.4898C60.4623 41.4898 61.0034 42.0309 61.0034 42.6961C61.0034 43.3608 60.4623 43.9019 59.7971 43.9019C59.1319 43.9019 58.5913 43.3608 58.5913 42.6961C58.5913 42.0309 59.1319 41.4898 59.7971 41.4898Z" fill="white"/>
<path d="M59.7971 55.3393C61.4281 55.3393 62.7553 54.0121 62.7553 52.3811C62.7553 50.7501 61.4281 49.4233 59.7971 49.4233C58.1661 49.4233 56.8394 50.7501 56.8394 52.3811C56.8394 54.0121 58.1661 55.3393 59.7971 55.3393ZM59.7971 51.1753C60.4623 51.1753 61.0034 51.7164 61.0034 52.3811C61.0034 53.0463 60.4623 53.5874 59.7971 53.5874C59.1319 53.5874 58.5913 53.0463 58.5913 52.3811C58.5913 51.7164 59.1319 51.1753 59.7971 51.1753Z" fill="white"/>
</svg>
