<svg width="69" height="80" viewBox="0 0 69 80" fill="none" xmlns="http://www.w3.org/2000/svg">
<path d="M65.6474 44.6846C63.8659 40.5373 61.201 36.2218 57.7273 31.8583C57.3348 31.3652 56.6165 31.2835 56.1234 31.6763C55.6301 32.069 55.5487 32.7871 55.9412 33.2804C59.2885 37.4849 61.8484 41.6251 63.5498 45.5859C65.6107 50.3835 66.4162 54.9426 65.9437 59.1365C65.4549 63.4748 63.5356 67.1394 60.2385 70.0286C57.5473 72.3872 53.9319 74.2537 49.493 75.5767C41.815 77.865 34.2825 77.7151 34.2072 77.7133C34.1889 77.713 34.1703 77.713 34.1521 77.7133C34.0761 77.7141 26.5435 77.8647 18.8658 75.5767C14.4269 74.2537 10.8116 72.3872 8.1203 70.0286C4.82342 67.1395 2.90404 63.4748 2.41529 59.1365C1.6606 52.437 4.12498 44.9454 9.73999 36.8701C13.9848 30.7652 19.1519 25.6596 22.4363 22.684H45.9227C47.3993 24.021 49.2979 25.8246 51.309 27.9552C51.7418 28.414 52.4643 28.4344 52.9227 28.0018C53.3812 27.569 53.4019 26.8465 52.9693 26.3882C51.3758 24.7001 49.8516 23.213 48.5426 21.9915C49.4235 21.3427 49.9965 20.2988 49.9965 19.1233C49.9965 17.16 48.3991 15.5627 46.4358 15.5627H46.1097C47.3941 13.6824 49.0654 11.0928 50.3008 8.6669C52.0047 5.32096 52.5035 3.08345 51.8702 1.62517C51.4943 0.759542 50.7204 0.199229 49.691 0.0473534C48.1633 -0.178428 46.1476 0.43501 43.5958 1.21173C40.7146 2.08845 37.4488 3.08236 34.1794 3.08236C30.9099 3.08236 27.6442 2.08845 24.763 1.21173C22.2113 0.435167 20.1953 -0.178272 18.6675 0.0473534C17.6381 0.199229 16.8642 0.759542 16.4884 1.62517C15.8552 3.08345 16.3539 5.32096 18.0578 8.6669C19.2934 11.093 20.9647 13.6825 22.2489 15.5627H21.9228C19.9595 15.5627 18.3622 17.16 18.3622 19.1233C18.3622 20.2983 18.9345 21.3419 19.8149 21.9907C11.907 29.3648 -1.55144 44.322 0.146533 59.392C1.13872 68.1984 7.40373 74.5567 18.2645 77.7795C26.1233 80.1114 33.5836 80.0081 34.1794 79.9959C34.2477 79.9973 34.4058 80 34.6446 80C36.4899 80 43.1361 79.8442 50.0941 77.7795C60.9549 74.5569 67.2199 68.1986 68.2123 59.392C68.7296 54.7993 67.8668 49.851 65.6474 44.6846ZM18.5823 2.53439C18.6131 2.4633 18.6598 2.35595 19.0008 2.30564C20.0216 2.15548 22.0017 2.75751 24.0981 3.39548C26.9816 4.27299 30.5702 5.36502 34.1793 5.36502C37.7885 5.36502 41.3769 4.27299 44.2604 3.39548C46.3568 2.75751 48.3377 2.15579 49.3576 2.30564C49.6985 2.35595 49.7451 2.4633 49.776 2.53439C49.8774 2.76767 50.5741 5.09221 43.9233 14.7135C43.7352 14.9857 43.5761 15.27 43.4454 15.5625H24.9133C24.7825 15.27 24.6236 14.9857 24.4353 14.7135C17.7844 5.09236 18.4813 2.76783 18.5823 2.53439ZM21.923 17.8455H46.4358C47.1404 17.8455 47.7135 18.4186 47.7135 19.1232C47.7135 19.8277 47.1404 20.4008 46.4358 20.4008H21.923C21.2184 20.4008 20.6453 19.8277 20.6453 19.1232C20.6453 18.4186 21.2183 17.8455 21.923 17.8455Z" fill="white"/>
<path d="M47.3059 36.5517C43.7997 33.0454 39.1378 31.1145 34.1793 31.1145C29.2207 31.1145 24.559 33.0454 21.0527 36.5517C18.4904 39.114 16.7462 42.3356 16.0087 45.8681C15.8799 46.4853 16.2757 47.09 16.8927 47.2188C17.5096 47.3477 18.1146 46.9519 18.2434 46.3345C18.8898 43.238 20.4195 40.4133 22.667 38.1658C29.0149 31.8181 39.3434 31.8179 45.6914 38.1658C52.0392 44.5136 52.0392 54.8422 45.6914 61.1902C39.3439 67.5382 29.0149 67.5383 22.6673 61.1905C20.4741 58.9974 18.9602 56.246 18.2895 53.2339C18.1524 52.6186 17.5427 52.2305 16.9271 52.3678C16.3118 52.5049 15.924 53.1149 16.061 53.7302C16.8263 57.1663 18.5524 60.3042 21.0529 62.8047C24.6718 66.4236 29.4257 68.2332 34.1793 68.2332C38.9333 68.2332 43.6869 66.4238 47.3059 62.8047C54.5437 55.5667 54.5437 43.7897 47.3059 36.5517Z" fill="white"/>
<path d="M35.3966 48.7534L35.2944 48.7157V42.3634L35.4618 42.3752C36.7761 42.4691 37.586 42.8743 38.1772 43.1701C38.5255 43.3445 38.8007 43.4821 39.0421 43.4821C39.8041 43.4821 40.2027 42.4732 40.2027 41.9324C40.2027 41.1968 39.3396 40.7337 38.6154 40.4746C37.7616 40.1691 36.5768 39.9669 35.4461 39.9337L35.2944 39.9293V38.9694C35.2944 38.7059 34.9202 38.4373 34.5529 38.4373C34.1133 38.4373 33.8411 38.7135 33.8411 38.9694V39.978L33.7011 39.9927C32.0335 40.1684 28.1546 41.0469 28.1546 45.4041C28.1546 49.1381 31.1205 50.1926 33.7372 51.1231L33.8411 51.1601V58.4726L33.6727 58.4595C31.7107 58.3057 30.6607 57.4125 29.8941 56.7603C29.4774 56.4056 29.1482 56.1256 28.8364 56.1256C28.2078 56.1256 27.616 56.9985 27.616 57.6753C27.616 59.0117 29.9811 60.9909 33.6874 61.0507L33.8411 61.0532V62.1346C33.8411 62.3904 34.1133 62.6667 34.5529 62.6667C34.92 62.6667 35.2944 62.3982 35.2944 62.1348V60.9812L35.4291 60.9625C38.805 60.4935 40.7415 58.3028 40.7415 54.9518C40.7416 51.0462 38.1013 49.7482 35.3966 48.7534ZM34.0208 48.2642L33.8094 48.1843C32.1822 47.5702 30.8352 46.9148 30.8352 45.1051C30.8352 43.6049 31.876 42.6821 33.8452 42.436L34.0208 42.4141V48.2642ZM35.2996 58.3975L35.1149 58.4317V51.6917L35.3327 51.7851C36.7499 52.3924 38.0613 53.2362 38.0613 55.2807C38.0613 56.9607 37.0804 58.0676 35.2996 58.3975Z" fill="white"/>
</svg>
