<svg width="43" height="34" viewBox="0 0 43 34" fill="none" xmlns="http://www.w3.org/2000/svg">
<path d="M33.2533 1.61504L4.06491 7.64096C1.94801 8.07799 0.590378 10.2067 1.03991 12.3842L4.62828 29.7655C5.0778 31.9429 7.16746 33.36 9.28435 32.9229L38.4727 26.897C40.5896 26.46 41.9472 24.3313 41.4977 22.1539L37.9093 4.77253C37.4599 2.59506 35.3702 1.17801 33.2533 1.61504ZM39.9615 22.4709C40.2313 23.7777 39.417 25.0546 38.1465 25.3168L8.95813 31.3428C7.68764 31.6051 6.43425 30.7551 6.16447 29.4483L2.57612 12.067C2.30633 10.7603 3.12065 9.48342 4.39114 9.22113L33.5794 3.19523C34.8499 2.93294 36.1033 3.78289 36.3731 5.08968L39.9615 22.471L39.9615 22.4709Z" fill="#324165"/>
<path d="M37.3043 5.72111L1.97115 13.0156C1.54715 13.1032 1.27609 13.5282 1.36612 13.9643L2.34476 18.7046C2.4348 19.1408 2.85202 19.4237 3.27602 19.3361L38.6093 12.0416C39.0333 11.9541 39.3043 11.5291 39.2143 11.093L38.2357 6.3526C38.1456 5.9165 37.7283 5.63357 37.3043 5.72111ZM37.5149 10.62L3.71786 17.5974L3.06542 14.4371L36.8624 7.45978L37.5148 10.62L37.5149 10.62Z" fill="#324165"/>
<path d="M18.0807 21.2221L8.86334 23.125C8.43934 23.2126 8.16828 23.6376 8.25832 24.0737C8.34835 24.5098 8.76555 24.7927 9.18955 24.7051L18.4069 22.8022C18.8309 22.7147 19.102 22.2897 19.0119 21.8536C18.9219 21.4174 18.5047 21.1346 18.0807 21.2221Z" fill="#324165"/>
<path d="M18.7331 24.3823L9.51576 26.2852C9.09176 26.3728 8.8207 26.7978 8.91074 27.2339C9.00077 27.67 9.41799 27.9529 9.84199 27.8654L19.0594 25.9625C19.4834 25.875 19.7544 25.4499 19.6644 25.0138C19.5743 24.5777 19.1571 24.2948 18.7331 24.3823Z" fill="#324165"/>
<path d="M33.1167 16.4704L31.5805 16.7876C30.3101 17.0499 29.4957 18.3267 29.7655 19.6335L30.0917 21.2136C30.3615 22.5204 31.6149 23.3703 32.8854 23.108L34.4216 22.7909C35.6921 22.5286 36.5064 21.2518 36.2366 19.945L35.9104 18.3649C35.6406 17.0582 34.3872 16.2081 33.1167 16.4704ZM34.7004 20.2622C34.7905 20.6983 34.5194 21.1233 34.0954 21.2109L32.5592 21.528C32.1352 21.6156 31.718 21.3326 31.6279 20.8965L31.3017 19.3164C31.2117 18.8803 31.4828 18.4553 31.9068 18.3678L33.443 18.0506C33.867 17.9631 34.2842 18.246 34.3742 18.6821L34.7004 20.2622Z" fill="#324165"/>
</svg>
