<svg width="37" height="37" viewBox="0 0 37 37" fill="none" xmlns="http://www.w3.org/2000/svg">
<g clip-path="url(#clip0)">
<path d="M34.9192 27.834C35.7027 26.1817 36.0996 24.4095 36.0996 22.5606C36.0996 15.9605 30.8607 10.5545 24.3006 10.237C22.8223 4.91173 17.966 1.19727 12.4096 1.19727C5.5672 1.19727 0.00054335 6.73234 0.00054335 13.5358C0.00054335 15.3848 0.397492 17.1569 1.18095 18.8092L0.0210606 24.6094C-0.126579 25.3478 0.524755 26.0004 1.26323 25.8543L7.1349 24.6934C8.6058 25.3911 10.1705 25.781 11.8003 25.8588C13.8554 33.2585 22.1095 36.97 28.9651 33.7182C35.3957 34.9895 34.8942 34.8991 35.0419 34.8991C35.7103 34.8991 36.2095 34.2867 36.079 33.6342L34.9192 27.834ZM7.76241 22.6448C7.55082 22.5366 7.30884 22.5028 7.07589 22.5489L2.40557 23.4724L3.32561 18.8718C3.37235 18.6381 3.33879 18.3953 3.23014 18.183C2.49074 16.7365 2.11572 15.173 2.11572 13.5358C2.11572 7.89865 6.73351 3.31244 12.4096 3.31244C16.8455 3.31244 20.7518 6.19684 22.1169 10.3219C15.6511 11.1486 10.7813 16.9828 11.4061 23.7104C10.1317 23.5879 8.91081 23.2319 7.76241 22.6448ZM32.7746 27.8966L33.6946 32.4971L29.0243 31.5737C28.7912 31.5277 28.5494 31.5614 28.3378 31.6695C26.8913 32.4089 25.3278 32.7839 23.6906 32.7839C18.0535 32.7839 13.4673 28.1977 13.4673 22.5606C13.4673 16.9234 18.0535 12.3372 23.6906 12.3372C29.3667 12.3372 33.9845 16.9234 33.9845 22.5606C33.9845 24.1978 33.6095 25.7613 32.8701 27.2078C32.7614 27.4201 32.7279 27.6628 32.7746 27.8966Z" fill="#3EAC5D"/>
</g>
<defs>
<clipPath id="clip0">
<rect width="36.0999" height="36.0999" fill="white"/>
</clipPath>
</defs>
</svg>
