<svg width="51" height="53" viewBox="0 0 51 53" fill="none" xmlns="http://www.w3.org/2000/svg">
<path d="M25.7406 53C39.6911 53 51.0002 41.1355 51.0002 26.5C51.0002 11.8645 39.6911 0 25.7406 0C11.7901 0 0.480957 11.8645 0.480957 26.5C0.480957 41.1355 11.7901 53 25.7406 53Z" fill="#F53E6A"/>
<path fill-rule="evenodd" clip-rule="evenodd" d="M26.4235 11.9072C19.13 11.9072 13.1963 18.1323 13.1963 25.7839C13.1963 33.4356 19.13 39.6606 26.4235 39.6606C33.717 39.6606 39.6506 33.4356 39.6506 25.7839C39.6506 18.1323 33.717 11.9072 26.4235 11.9072ZM35.1689 18.3065C36.7425 20.3234 37.6954 22.8923 37.7202 25.6899C37.3477 25.6073 33.6124 24.8125 29.8531 25.3084C29.5463 24.5228 29.2568 23.8316 28.8602 22.9799C33.0375 21.1907 34.9307 18.6445 35.1689 18.3065ZM27.9919 21.2176C32.0093 19.6379 33.71 17.2397 33.9132 16.936C31.1347 14.3499 27.3591 13.3728 23.7762 14.2788C24.0885 14.7175 26.1405 17.6491 27.9919 21.2176ZM21.6201 15.0753C21.918 15.5039 23.9369 18.4391 25.8089 21.9302C20.5241 23.4026 15.8693 23.3813 15.364 23.3744C16.0967 19.6963 18.4593 16.6394 21.6201 15.0753ZM15.1314 25.4392C15.1279 25.5596 15.1256 25.6802 15.1256 25.8014C15.1256 28.8457 16.2256 31.6252 18.0301 33.7265C19.8615 30.4376 23.5733 26.9711 27.6588 25.7639C27.3752 25.0905 27.0662 24.4165 26.7428 23.7524C21.1007 25.5239 15.6257 25.4498 15.1314 25.4392ZM19.4883 35.1527C20.6684 32.6217 23.8713 29.3546 28.4261 27.7244C30.0123 32.0488 30.6683 35.6729 30.8363 36.7128C27.2035 38.3362 22.8352 37.8909 19.4883 35.1527ZM30.5413 27.1771C32.019 31.4372 32.6204 34.907 32.7362 35.628C35.2708 33.83 37.0751 30.9817 37.5787 27.6837C37.1922 27.5558 34.0817 26.5825 30.5413 27.1771Z" fill="white"/>
<mask id="mask0" mask-type="alpha" maskUnits="userSpaceOnUse" x="13" y="11" width="27" height="29">
<path fill-rule="evenodd" clip-rule="evenodd" d="M26.4235 11.9072C19.13 11.9072 13.1963 18.1323 13.1963 25.7839C13.1963 33.4356 19.13 39.6606 26.4235 39.6606C33.717 39.6606 39.6506 33.4356 39.6506 25.7839C39.6506 18.1323 33.717 11.9072 26.4235 11.9072ZM35.1689 18.3065C36.7425 20.3234 37.6954 22.8923 37.7202 25.6899C37.3477 25.6073 33.6124 24.8125 29.8531 25.3084C29.5463 24.5228 29.2568 23.8316 28.8602 22.9799C33.0375 21.1907 34.9307 18.6445 35.1689 18.3065ZM27.9919 21.2176C32.0093 19.6379 33.71 17.2397 33.9132 16.936C31.1347 14.3499 27.3591 13.3728 23.7762 14.2788C24.0885 14.7175 26.1405 17.6491 27.9919 21.2176ZM21.6201 15.0753C21.918 15.5039 23.9369 18.4391 25.8089 21.9302C20.5241 23.4026 15.8693 23.3813 15.364 23.3744C16.0967 19.6963 18.4593 16.6394 21.6201 15.0753ZM15.1314 25.4392C15.1279 25.5596 15.1256 25.6802 15.1256 25.8014C15.1256 28.8457 16.2256 31.6252 18.0301 33.7265C19.8615 30.4376 23.5733 26.9711 27.6588 25.7639C27.3752 25.0905 27.0662 24.4165 26.7428 23.7524C21.1007 25.5239 15.6257 25.4498 15.1314 25.4392ZM19.4883 35.1527C20.6684 32.6217 23.8713 29.3546 28.4261 27.7244C30.0123 32.0488 30.6683 35.6729 30.8363 36.7128C27.2035 38.3362 22.8352 37.8909 19.4883 35.1527ZM30.5413 27.1771C32.019 31.4372 32.6204 34.907 32.7362 35.628C35.2708 33.83 37.0751 30.9817 37.5787 27.6837C37.1922 27.5558 34.0817 26.5825 30.5413 27.1771Z" fill="white"/>
</mask>
<g mask="url(#mask0)">
</g>
</svg>
