<svg width="9" height="16" viewBox="0 0 9 16" fill="none" xmlns="http://www.w3.org/2000/svg">
<path d="M6.57692 2.66665H8.65384C8.84501 2.66665 9 2.5174 9 2.33331V0.333312C9 0.14925 8.84501 0 8.65384 0H6.57692C4.47495 0.00221875 2.77152 1.64253 2.76925 3.66665V5.99999H0.346164C0.15499 5.99999 0 6.14924 0 6.33333V8.33333C0 8.51742 0.15499 8.66667 0.346164 8.66667H2.76925V15.6667C2.76925 15.8508 2.92424 16 3.11541 16H5.19233C5.3835 16 5.53849 15.8508 5.53849 15.6667V8.66667H7.96157C8.11049 8.66658 8.24267 8.57473 8.28973 8.43867L8.98202 6.43867C9.04245 6.26402 8.94438 6.07527 8.763 6.01708C8.72783 6.0058 8.69096 6.00002 8.65387 5.99999H5.53849V3.66665C5.53846 3.11437 6.0034 2.66665 6.57692 2.66665Z" fill="white"/>
</svg>
