<svg width="51" height="53" viewBox="0 0 51 53" fill="none" xmlns="http://www.w3.org/2000/svg">
<path d="M25.2596 53C39.2101 53 50.5192 41.1355 50.5192 26.5C50.5192 11.8645 39.2101 0 25.2596 0C11.3091 0 0 11.8645 0 26.5C0 41.1355 11.3091 53 25.2596 53Z" fill="#272EAE"/>
<path d="M22.7964 41.5402V28.7267H18.4329V23.6348H22.7964V19.6229C22.7964 15.2641 25.5044 12.8916 29.4583 12.8916C31.3528 12.8916 32.9799 13.0315 33.4521 13.093V17.6477H30.7099C28.5595 17.6477 28.1442 18.6549 28.1442 20.1265V23.6348H32.997L32.3313 28.7267H28.1442V41.5402" fill="white"/>
<mask id="mask0" mask-type="alpha" maskUnits="userSpaceOnUse" x="18" y="12" width="16" height="30">
<path d="M22.7964 41.5402V28.7267H18.4329V23.6348H22.7964V19.6229C22.7964 15.2641 25.5044 12.8916 29.4583 12.8916C31.3528 12.8916 32.9799 13.0315 33.4521 13.093V17.6477H30.7099C28.5595 17.6477 28.1442 18.6549 28.1442 20.1265V23.6348H32.997L32.3313 28.7267H28.1442V41.5402" fill="white"/>
</mask>
<g mask="url(#mask0)">
</g>
</svg>
