<svg width="16" height="16" viewBox="0 0 16 16" fill="none" xmlns="http://www.w3.org/2000/svg">
<path d="M3.75 8.00002C3.75 7.2073 3.96841 6.46471 4.34784 5.82887V3.13174H1.65072C0.58025 4.52199 0 6.21634 0 8.00002C0 9.78371 0.58025 11.4781 1.65072 12.8683H4.34784V10.1712C3.96841 9.53534 3.75 8.79274 3.75 8.00002Z" fill="white"/>
<path d="M8 12.25L6.125 14.125L8 16C9.78372 16 11.478 15.4198 12.8683 14.3493V11.655H10.174C9.53263 12.0358 8.78691 12.25 8 12.25Z" fill="white"/>
<path d="M4.34784 10.1712L1.65072 12.8683C1.86266 13.1436 2.09325 13.4071 2.34297 13.6569C3.85397 15.1678 5.86313 16 8 16V12.25C6.44925 12.25 5.09009 11.415 4.34784 10.1712Z" fill="white"/>
<path d="M16 8.00002C16 7.51331 15.9559 7.02568 15.869 6.55074L15.7987 6.1664H8V9.9164H11.7954C11.4268 10.6496 10.8602 11.2477 10.174 11.655L12.8683 14.3493C13.1435 14.1373 13.4071 13.9066 13.6568 13.6569C15.1678 12.1459 16 10.1369 16 8.00002Z" fill="white"/>
<path d="M11.0052 4.99478L11.3367 5.32622L13.9883 2.67459L13.6569 2.34316C12.1459 0.832156 10.1369 0 8 0L6.125 1.875L8 3.75C9.13519 3.75 10.2025 4.19206 11.0052 4.99478Z" fill="white"/>
<path d="M8 3.75V0C5.86313 0 3.85395 0.832156 2.34292 2.34313C2.0932 2.59284 1.86266 2.85646 1.65072 3.13174L4.34784 5.82887C5.09013 4.58502 6.44925 3.75 8 3.75Z" fill="white"/>
</svg>
