<svg width="12" height="12" viewBox="0 0 12 12" fill="none" xmlns="http://www.w3.org/2000/svg">
<path fill-rule="evenodd" clip-rule="evenodd" d="M1 1.50024C1 1.2241 1.22386 1.00024 1.5 1.00024H5C5.27614 1.00024 5.5 1.2241 5.5 1.50024V5.00024C5.5 5.27639 5.27614 5.50024 5 5.50024H1.5C1.22386 5.50024 1 5.27639 1 5.00024V1.50024ZM2 2.00024V4.50024H4.5V2.00024H2Z" fill="url(#paint0_linear)"/>
<path fill-rule="evenodd" clip-rule="evenodd" d="M6.5 1.50024C6.5 1.2241 6.72386 1.00024 7 1.00024H10.5C10.7761 1.00024 11 1.2241 11 1.50024V5.00024C11 5.27639 10.7761 5.50024 10.5 5.50024H7C6.72386 5.50024 6.5 5.27639 6.5 5.00024V1.50024ZM7.5 2.00024V4.50024H10V2.00024H7.5Z" fill="url(#paint1_linear)"/>
<path fill-rule="evenodd" clip-rule="evenodd" d="M6.5 7.00024C6.5 6.7241 6.72386 6.50024 7 6.50024H10.5C10.7761 6.50024 11 6.7241 11 7.00024V10.5002C11 10.7764 10.7761 11.0002 10.5 11.0002H7C6.72386 11.0002 6.5 10.7764 6.5 10.5002V7.00024ZM7.5 7.50024V10.0002H10V7.50024H7.5Z" fill="url(#paint2_linear)"/>
<path fill-rule="evenodd" clip-rule="evenodd" d="M1 7.00024C1 6.7241 1.22386 6.50024 1.5 6.50024H5C5.27614 6.50024 5.5 6.7241 5.5 7.00024V10.5002C5.5 10.7764 5.27614 11.0002 5 11.0002H1.5C1.22386 11.0002 1 10.7764 1 10.5002V7.00024ZM2 7.50024V10.0002H4.5V7.50024H2Z" fill="url(#paint3_linear)"/>
<defs>
<linearGradient id="paint0_linear" x1="1" y1="0.325243" x2="4.0338" y2="0.834939" gradientUnits="userSpaceOnUse">
<stop offset="0.364583" stop-color="#F6931B"/>
<stop offset="1" stop-color="#F26921"/>
</linearGradient>
<linearGradient id="paint1_linear" x1="6.5" y1="0.325243" x2="9.5338" y2="0.834939" gradientUnits="userSpaceOnUse">
<stop offset="0.364583" stop-color="#F6931B"/>
<stop offset="1" stop-color="#F26921"/>
</linearGradient>
<linearGradient id="paint2_linear" x1="6.5" y1="5.82524" x2="9.5338" y2="6.33494" gradientUnits="userSpaceOnUse">
<stop offset="0.364583" stop-color="#F6931B"/>
<stop offset="1" stop-color="#F26921"/>
</linearGradient>
<linearGradient id="paint3_linear" x1="1" y1="5.82524" x2="4.0338" y2="6.33494" gradientUnits="userSpaceOnUse">
<stop offset="0.364583" stop-color="#F6931B"/>
<stop offset="1" stop-color="#F26921"/>
</linearGradient>
</defs>
</svg>
