<svg width="80" height="80" viewBox="0 0 80 80" fill="none" xmlns="http://www.w3.org/2000/svg">
<g clip-path="url(#clip0)">
<path d="M76.7168 25.0335C76.3109 25.0189 75.9154 25.075 75.5425 25.1959V20.1428C75.5425 18.2861 74.0319 16.7755 72.1752 16.7755C71.8175 16.7755 71.4733 16.8323 71.1498 16.936C71.1144 15.1099 69.6203 13.634 67.7855 13.634H67.7184C66.4391 13.634 65.3246 14.3512 64.7545 15.4053C64.3212 15.2014 63.839 15.0842 63.3294 15.0842H63.2622C61.4049 15.0842 59.8943 16.5948 59.8943 18.4515V20.1562C59.5684 20.0525 59.2248 19.9969 58.8726 19.9969H58.789C56.9567 19.9969 55.4467 21.4868 55.4223 23.3184C55.4125 24.0918 55.2752 31.7718 55.4479 34.8455C55.6774 38.9257 56.7016 42.094 58.4917 44.2638C58.7817 44.6154 58.9416 45.0487 58.9416 45.4851V49.3187H58.9178C57.8399 49.3187 56.9628 50.1958 56.9628 51.273V53.7798C56.2652 53.9983 55.758 54.6501 55.758 55.4185V78.8273C55.758 79.4748 56.2829 79.9997 56.9305 79.9997H75.5748C76.2224 79.9997 76.7473 79.4748 76.7473 78.8273V56.0667C76.7473 55.1842 76.2609 54.4145 75.5425 54.008V51.273C75.5425 50.23 74.7203 49.3773 73.6901 49.3236V46.2169C73.6901 45.6365 73.9476 45.1006 74.3968 44.746C74.4725 44.6862 74.5507 44.6233 74.6312 44.5562C74.6373 44.5519 74.6428 44.547 74.6483 44.5421C76.9457 42.5634 78.4746 40.2727 79.3224 37.5402C79.7661 36.1114 79.9907 34.6154 79.9907 33.0938V28.482C79.9907 26.6137 78.5527 25.0988 76.7168 25.0335ZM74.37 56.0472H74.3822C74.3926 56.0472 74.4017 56.0557 74.4017 56.0667V77.6542H58.1036V56.0472H74.37ZM59.3084 53.7016V51.6643H73.1969V53.7016H59.3084ZM77.6451 33.0938C77.6451 34.3792 77.4559 35.6414 77.0824 36.8456C76.3597 39.1741 75.103 41.0527 73.1261 42.7575C73.0638 42.8093 73.0022 42.8588 72.9436 42.9052C71.9274 43.7065 71.3445 44.9138 71.3445 46.2169V49.3187H61.2871V45.4851C61.2871 44.5055 60.9368 43.5411 60.3008 42.7709C58.8354 40.9954 57.9907 38.2842 57.7898 34.7137C57.6214 31.7266 57.7575 24.1265 57.7679 23.349C57.7752 22.7942 58.2336 22.3425 58.789 22.3425H58.8726C59.1454 22.3425 59.4024 22.4487 59.5953 22.6416C59.7881 22.835 59.8943 23.0914 59.8943 23.3642V29.9487C59.8943 30.5962 60.4198 31.1211 61.0674 31.1211C61.715 31.1211 62.2399 30.5962 62.2399 29.9487V18.4515C62.2399 17.8882 62.6983 17.4292 63.2622 17.4292H63.3294C63.8927 17.4292 64.3511 17.8882 64.3511 18.4515V29.9487C64.3511 30.5962 64.876 31.1211 65.5236 31.1211C66.1712 31.1211 66.6967 30.5962 66.6967 29.9487V17.0013C66.6967 16.438 67.1551 15.9796 67.7184 15.9796H67.7855C68.3495 15.9796 68.8079 16.438 68.8079 17.0013V29.9487C68.8079 30.5962 69.3328 31.1211 69.9804 31.1211C70.6279 31.1211 71.1535 30.5962 71.1535 29.9487V20.1428C71.1535 19.5794 71.6118 19.1205 72.1752 19.1205C72.7385 19.1205 73.1969 19.5794 73.1969 20.1428V33.7102C73.1969 33.8988 73.0907 34.0704 72.9192 34.1576C71.7156 34.7704 70.0255 35.8276 68.8109 37.3797C68.4118 37.8899 68.5015 38.6266 69.0117 39.0258C69.226 39.1936 69.4805 39.2754 69.7338 39.2754C70.0817 39.2754 70.4265 39.121 70.6578 38.825C71.6582 37.5469 73.1713 36.6619 73.9836 36.2481C74.9456 35.758 75.5431 34.7857 75.5431 33.7102V28.4283C75.5431 28.1408 75.6572 27.8716 75.8641 27.6721C76.0716 27.4719 76.3439 27.3675 76.6338 27.3779C77.1916 27.398 77.6457 27.893 77.6457 28.482V33.0938H77.6451Z" fill="url(#paint0_linear)"/>
<path d="M21.6558 53.1249C23.4459 50.9551 24.4701 47.7868 24.6996 43.7066C24.8723 40.6323 24.8168 37.5152 24.7631 34.5007C24.749 33.7268 24.735 32.9528 24.7252 32.1789C24.7008 30.3479 23.1908 28.858 21.3579 28.858H21.2749C20.9185 28.858 20.5755 28.9142 20.2526 29.0173V27.3126C20.2526 25.4553 18.742 23.9453 16.8853 23.9453H16.8182C16.3085 23.9453 15.8264 24.0625 15.393 24.2664C14.8229 23.2129 13.7084 22.4951 12.4285 22.4951H12.362C10.5267 22.4951 9.03256 23.9709 8.99777 25.7971C8.67367 25.6933 8.33004 25.6366 7.97238 25.6366C6.11509 25.6366 4.60447 27.1472 4.60447 29.0039V34.057C4.23155 33.9361 3.83604 33.88 3.43016 33.8946C1.59423 33.9599 0.15625 35.4748 0.15625 37.3431V41.9549C0.15625 43.4759 0.381469 44.9718 0.824582 46.4013C1.67236 49.1338 3.20128 51.4238 5.49925 53.4032C5.50474 53.4081 5.51084 53.413 5.51695 53.4179C5.59751 53.4844 5.67564 53.5479 5.75071 53.6071C6.19993 53.9611 6.45749 54.4976 6.45749 55.078V58.1847C5.42722 58.2384 4.60508 59.091 4.60508 60.1341V62.8691C3.8867 63.2756 3.40026 64.0452 3.40026 64.9278V70.2372C3.40026 70.8848 3.92516 71.4097 4.57274 71.4097C5.22093 71.4097 5.74583 70.8848 5.74583 70.2372V64.9278C5.74583 64.9168 5.75498 64.9083 5.76536 64.9083H22.044V77.6542H5.74522V75.7164C5.74522 75.0688 5.22032 74.5439 4.57274 74.5439C3.92516 74.5439 3.40026 75.0688 3.40026 75.7164V78.8273C3.40026 79.4749 3.92516 79.9998 4.57274 79.9998H23.2165C23.864 79.9998 24.3895 79.4749 24.3895 78.8273V64.2796C24.3895 63.5112 23.8817 62.8593 23.1847 62.6408V60.1341C23.1847 59.0563 22.3076 58.1798 21.2298 58.1798H21.206V54.3462C21.206 53.9098 21.3653 53.4758 21.6558 53.1249ZM20.8391 62.5627H6.95066V60.5248H20.8391V62.5627ZM19.8467 51.632C19.2107 52.4022 18.8604 53.3666 18.8604 54.3462V58.1798H8.80245V55.078C8.80245 53.7749 8.21957 52.5682 7.20334 51.7656C7.14414 51.7192 7.0831 51.6698 7.02085 51.6185C5.04454 49.9138 3.78722 48.0346 3.06456 45.7061C2.69103 44.5025 2.50182 43.2403 2.50182 41.9549V37.3431C2.50182 36.7541 2.95592 36.2585 3.51378 36.239C3.80309 36.2286 4.07591 36.333 4.28282 36.5325C4.49034 36.7327 4.60447 37.0013 4.60447 37.2894V42.5707C4.60447 43.6462 5.20201 44.6191 6.16392 45.1086C6.97629 45.5224 8.48874 46.4074 9.48971 47.6861C9.72103 47.9815 10.0659 48.1359 10.4138 48.1359C10.6665 48.1359 10.9216 48.0547 11.1358 47.8869C11.6461 47.4877 11.7358 46.7504 11.3366 46.2401C10.122 44.688 8.43197 43.6315 7.22836 43.0187C7.05686 42.9308 6.95066 42.7593 6.95066 42.5707V29.0039C6.95066 28.4399 7.40903 27.9822 7.97238 27.9822C8.53573 27.9822 8.9941 28.4405 8.9941 29.0039V38.8091C8.9941 39.4573 9.51962 39.9822 10.1672 39.9822C10.8148 39.9822 11.3397 39.4573 11.3397 38.8091V25.8624C11.3397 25.2991 11.798 24.8407 12.362 24.8407H12.4291C12.9925 24.8407 13.4509 25.2991 13.4509 25.8624V38.8098C13.4509 39.4573 13.9758 39.9822 14.624 39.9822C15.2715 39.9822 15.7964 39.4573 15.7964 38.8098V27.3126C15.7964 26.7486 16.2548 26.2909 16.8182 26.2909H16.8853C17.4493 26.2909 17.9076 26.7493 17.9076 27.3126V38.8091C17.9076 39.4573 18.4325 39.9822 19.0801 39.9822C19.7277 39.9822 20.2532 39.4573 20.2532 38.8091V32.2253C20.2532 31.662 20.7116 31.2036 21.2749 31.2036H21.3586C21.9146 31.2036 22.3723 31.6546 22.3797 32.21C22.39 32.9876 22.4041 33.7652 22.4175 34.5428C22.4712 37.5146 22.5262 40.5877 22.3577 43.5747C22.1569 47.1453 21.3116 49.8559 19.8467 51.632Z" fill="url(#paint1_linear)"/>
<path d="M50.3913 12.7917C49.8854 12.774 49.3922 12.857 48.9357 13.0334V7.16062C48.9357 5.15623 47.3048 3.52477 45.2998 3.52477C44.8457 3.52477 44.4111 3.6096 44.0101 3.76219V3.63585C44.0101 1.63085 42.3793 0 40.3743 0H40.2992C38.8698 0 37.6314 0.829465 37.0375 2.03185C36.5388 1.77367 35.973 1.62719 35.3737 1.62719H35.2986C33.2942 1.62719 31.6634 3.25804 31.6634 5.26243V7.37729C31.2618 7.2247 30.8272 7.13986 30.3731 7.13986H30.2797C28.3016 7.13986 26.6707 8.74874 26.6451 10.7257C26.6335 11.5936 26.4797 20.2062 26.6732 23.6504C26.9289 28.1975 28.0672 31.7253 30.0563 34.1356C30.403 34.5555 30.594 35.0749 30.594 35.5974V40.042H30.4238C29.2934 40.042 28.3736 40.9618 28.3736 42.0921V45.0151C27.5984 45.2086 27.0217 45.9092 27.0217 46.7436V78.8272C27.0217 79.4748 27.5466 80.0003 28.1941 80.0003H49.1145C49.7621 80.0003 50.287 79.4748 50.287 78.8272V55.9355C50.287 55.2879 49.7621 54.763 49.1145 54.763C48.4669 54.763 47.942 55.2879 47.942 55.9355V77.6541H29.3666V47.3051H47.7766C47.8675 47.3051 47.942 47.3796 47.942 47.4705V50.4917C47.942 51.1393 48.4669 51.6642 49.1145 51.6642C49.7621 51.6642 50.287 51.1393 50.287 50.4917V47.4705C50.287 46.5043 49.7377 45.6651 48.935 45.2452V42.0921C48.935 40.9611 48.0152 40.0413 46.8849 40.0413H46.8568V36.4183C46.8568 35.7225 47.1656 35.0804 47.704 34.655C47.7882 34.5891 47.8749 34.5183 47.9646 34.4444C47.9701 34.4396 47.9762 34.4347 47.9817 34.4298C50.5384 32.2277 52.2401 29.6794 53.1831 26.6399C53.6768 25.05 53.9265 23.3849 53.9265 21.693V16.5173C53.9271 14.4988 52.3738 12.8619 50.3913 12.7917ZM30.7186 44.9595V42.3869H46.5901V44.9595H30.7186ZM51.5815 21.693C51.5815 23.1493 51.3667 24.58 50.9431 25.9447C50.124 28.5851 48.6994 30.7146 46.4595 32.6457C46.3874 32.7049 46.3179 32.7611 46.2507 32.8142C45.1454 33.687 44.5112 35.0005 44.5112 36.4183V40.042H32.939V35.5968C32.939 34.5311 32.5575 33.4813 31.8654 32.6421C30.201 30.6255 29.2421 27.556 29.0151 23.5186C28.8259 20.1611 28.8875 16.7101 28.9473 13.3728C28.9632 12.5006 28.9784 11.6278 28.99 10.7562C28.9992 10.0555 29.5778 9.48544 30.2797 9.48544H30.3731C31.0842 9.48544 31.6628 10.064 31.6628 10.7757V18.1634C31.6628 18.811 32.1883 19.3365 32.8359 19.3365C33.4834 19.3365 34.0083 18.811 34.0083 18.1634V5.26243C34.0083 4.55137 34.5869 3.97276 35.2986 3.97276H35.3737C36.0847 3.97276 36.664 4.55137 36.664 5.26243V18.1634C36.664 18.811 37.1889 19.3365 37.8364 19.3365C38.484 19.3365 39.0089 18.811 39.0089 18.1634V3.63585C39.0089 2.92418 39.5881 2.34557 40.2992 2.34557H40.3743C41.0859 2.34557 41.6646 2.92418 41.6646 3.63585V18.1634C41.6646 18.811 42.1895 19.3365 42.837 19.3365C43.4846 19.3365 44.0101 18.811 44.0101 18.1634V7.16062C44.0101 6.44895 44.5887 5.87034 45.2998 5.87034C46.0115 5.87034 46.5901 6.44895 46.5901 7.16062V22.3839C46.5901 22.6501 46.4405 22.8911 46.1995 23.0138C44.8622 23.695 42.9847 24.8687 41.6377 26.5899C41.2379 27.1001 41.3283 27.8368 41.8385 28.236C42.0527 28.4044 42.3073 28.4856 42.5606 28.4856C42.9084 28.4856 43.2533 28.3312 43.4846 28.0352C44.6241 26.5789 46.3417 25.5736 47.2639 25.1043C48.2954 24.5788 48.9357 23.5369 48.9357 22.3839V16.4575C48.9357 16.0955 49.0791 15.7568 49.3397 15.5053C49.6003 15.2538 49.9452 15.1238 50.3077 15.1354C51.0102 15.1605 51.5815 15.7806 51.5815 16.5173V21.693Z" fill="url(#paint2_linear)"/>
</g>
<defs>
<linearGradient id="paint0_linear" x1="55.3613" y1="3.67916" x2="72.3685" y2="4.73955" gradientUnits="userSpaceOnUse">
<stop offset="0.364583" stop-color="#F6931B"/>
<stop offset="1" stop-color="#F26921"/>
</linearGradient>
<linearGradient id="paint1_linear" x1="0.156251" y1="13.8694" x2="17.1625" y2="15.0947" gradientUnits="userSpaceOnUse">
<stop offset="0.364583" stop-color="#F6931B"/>
<stop offset="1" stop-color="#F26921"/>
</linearGradient>
<linearGradient id="paint2_linear" x1="26.5762" y1="-12.0001" x2="45.4732" y2="-10.9147" gradientUnits="userSpaceOnUse">
<stop offset="0.364583" stop-color="#F6931B"/>
<stop offset="1" stop-color="#F26921"/>
</linearGradient>
<clipPath id="clip0">
<rect width="80" height="80" fill="white"/>
</clipPath>
</defs>
</svg>
