<svg width="81" height="80" viewBox="0 0 81 80" fill="none" xmlns="http://www.w3.org/2000/svg">
<path d="M72.6251 33.6209C71.81 33.6209 71.0289 32.1803 70.5285 29.829C72.1838 28.1131 73.3309 25.9721 73.8426 23.643C74.9882 22.8938 75.7034 21.6389 75.7625 20.2712C75.6728 18.9123 75.0129 17.6554 73.9461 16.8092C73.5919 11.884 69.4937 8.06946 64.5557 8.06946C59.6177 8.06946 55.5194 11.884 55.1653 16.8092C54.0985 17.6544 53.4385 18.9118 53.3489 20.2697C53.4089 21.6389 54.127 22.8948 55.2756 23.643C55.7873 25.9721 56.9344 28.1131 58.5898 29.829C58.0825 32.1803 57.3008 33.6209 56.4862 33.6209C56.4527 33.6209 56.4232 33.6209 56.3892 33.6209C55.8513 29.5202 52.9115 25.551 48.4167 25.551C47.6016 25.551 46.82 24.1109 46.3206 21.7596C47.9754 20.0441 49.123 17.9021 49.6338 15.573C50.7799 14.8244 51.495 13.5689 51.5546 12.2017C51.4645 10.8428 50.8045 9.58544 49.7372 8.73978C49.3841 3.81457 45.2848 0 40.3473 0C35.4098 0 31.3105 3.81457 30.9574 8.73978C29.8906 9.58544 29.2306 10.8419 29.14 12.2007C29.2011 13.5699 29.9187 14.8259 31.0677 15.573C31.5785 17.9021 32.7255 20.0441 34.3809 21.7596C33.8746 24.1109 33.093 25.551 32.2778 25.551C27.7831 25.551 24.8422 29.5256 24.3054 33.6209C24.2714 33.6209 24.2419 33.6209 24.2084 33.6209C23.3937 33.6209 22.6121 32.1803 22.1117 29.829C23.7671 28.1131 24.9142 25.9721 25.4259 23.643C26.5715 22.8938 27.2861 21.6389 27.3457 20.2712C27.2561 18.9123 26.5961 17.6554 25.5293 16.8092C25.1752 11.884 21.0769 8.06946 16.1389 8.06946C11.2009 8.06946 7.10264 11.884 6.74852 16.8092C5.68172 17.6544 5.02174 18.9118 4.9321 20.2697C4.99219 21.6389 5.71028 22.8948 6.85884 23.643C7.37057 25.9721 8.51765 28.1131 10.173 29.829C9.66572 32.1803 8.88458 33.6209 8.06946 33.6209C3.08515 33.6209 0 38.5067 0 43.035C0 43.7777 0.60186 44.3801 1.34507 44.3801H14.7943V61.8641C14.7943 62.6063 15.3962 63.2086 16.1389 63.2086H18.8286C19.5718 63.2086 20.1736 62.6063 20.1736 61.8641C20.1736 61.1208 19.5718 60.5185 18.8286 60.5185H17.484V44.3801H30.9328C31.676 44.3801 32.2778 43.7777 32.2778 43.035C32.2739 40.5778 31.4105 38.1989 29.8379 36.3106H39.0022V40.3448C39.0022 41.0881 39.6046 41.6904 40.3473 41.6904C41.09 41.6904 41.6924 41.0881 41.6924 40.3448V36.3106H50.8567C49.2841 38.1989 48.4207 40.5778 48.4167 43.035C48.4167 43.3921 48.5581 43.7334 48.8108 43.986C49.0629 44.2382 49.4047 44.3801 49.7618 44.3801H63.2106V60.5185H61.866C61.1228 60.5185 60.5209 61.1208 60.5209 61.8641C60.5209 62.6063 61.1228 63.2086 61.866 63.2086H64.5557C65.2984 63.2086 65.9002 62.6063 65.9002 61.8641V44.3801H79.3495C80.0927 44.3801 80.6946 43.7777 80.6946 43.035C80.6946 38.5067 77.6094 33.6209 72.6251 33.6209ZM57.8121 22.6397C57.751 22.2733 57.5412 21.9487 57.2329 21.7423C56.7876 21.4463 56.041 20.8617 56.0385 20.2756C56.0385 19.6284 56.8457 18.8655 57.2329 18.601C57.6062 18.3513 57.8313 17.9317 57.8313 17.4815C57.8313 13.7679 60.8416 10.7576 64.5557 10.7576C68.2693 10.7576 71.28 13.7679 71.28 17.4815C71.2825 17.9287 71.5041 18.3454 71.8735 18.5966C72.2666 18.8655 73.0773 19.6284 73.0728 20.2756C73.0728 20.8617 72.3237 21.4463 71.8785 21.7423C71.5721 21.9487 71.3618 22.2718 71.2993 22.6372C71.2505 22.9209 70.0443 29.5857 64.5557 29.5857C59.0675 29.5857 57.8608 22.9209 57.8121 22.6397ZM33.6042 14.5702C33.5426 14.2038 33.3333 13.8792 33.024 13.6734C32.5793 13.3769 31.8326 12.7922 31.8296 12.2056C31.8296 11.559 32.6369 10.7961 33.024 10.5316C33.3983 10.2814 33.6224 9.86174 33.6224 9.41207C33.6224 5.69846 36.6337 2.68769 40.3473 2.68769C44.0609 2.68769 47.0722 5.69846 47.0722 9.41207C47.0741 9.85879 47.2958 10.276 47.6652 10.5271C48.0577 10.7961 48.8684 11.559 48.8649 12.2056C48.8649 12.7922 48.1153 13.3769 47.6706 13.6734C47.3632 13.8792 47.1539 14.2028 47.0904 14.5673C47.0426 14.851 45.8359 21.5168 40.3473 21.5168C34.8586 21.5168 33.652 14.851 33.6042 14.5702ZM32.2778 28.2411C34.3582 28.2411 35.8486 26.6055 36.7346 23.4115C39.0268 24.4709 41.6677 24.4709 43.9599 23.4115C44.846 26.6055 46.3363 28.2411 48.4167 28.2411C51.2803 28.2411 53.2045 30.8338 53.6803 33.6209H27.0143C27.49 30.8338 29.4143 28.2411 32.2778 28.2411ZM9.39532 22.6397C9.33425 22.2733 9.12444 21.9487 8.81612 21.7423C8.37088 21.4463 7.62422 20.8617 7.62176 20.2756C7.62176 19.6284 8.42801 18.8655 8.81612 18.601C9.18994 18.3513 9.41453 17.9317 9.41453 17.4815C9.41453 13.7679 12.4253 10.7576 16.1389 10.7576C19.853 10.7576 22.8633 13.7679 22.8633 17.4815C22.8658 17.9287 23.0874 18.3454 23.4563 18.5966C23.8488 18.8655 24.6605 19.6284 24.6561 20.2756C24.6561 20.8617 23.907 21.4463 23.4617 21.7423C23.1544 21.9487 22.9456 22.2718 22.8825 22.6372C22.8337 22.9209 21.6271 29.5857 16.1389 29.5857C10.6503 29.5857 9.44408 22.9209 9.39532 22.6397ZM2.8054 41.6904C3.28117 38.9037 5.20594 36.3106 8.06946 36.3106C10.1504 36.3106 11.6402 34.6749 12.5268 31.4809C14.818 32.5404 17.4599 32.5404 19.7511 31.4809C20.6376 34.6749 22.128 36.3106 24.2084 36.3106C27.0714 36.3106 28.9967 38.9037 29.4724 41.6904H2.8054ZM51.2221 41.6904C51.6979 38.9037 53.6232 36.3106 56.4862 36.3106C58.5666 36.3106 60.057 34.6749 60.9435 31.4809C63.2347 32.5404 65.8766 32.5404 68.1678 31.4809C69.0543 34.6749 70.5442 36.3106 72.6251 36.3106C75.4886 36.3106 77.4134 38.9037 77.8892 41.6904H51.2221Z" fill="url(#paint0_linear)"/>
<path d="M27.9744 74.7745C29.5608 76.3989 31.4487 77.6967 33.533 78.596C37.8829 80.4681 42.8121 80.4681 47.162 78.596C49.2464 77.6967 51.1342 76.3989 52.7206 74.7745C54.3184 73.1453 55.5886 71.2235 56.4608 69.1145C58.2891 64.6774 58.2891 59.698 56.4608 55.2619C55.5881 53.1544 54.3184 51.234 52.7206 49.6062C49.47 46.2665 45.0077 44.3821 40.3475 44.3821C35.6873 44.3821 31.2251 46.2665 27.9744 49.6062C26.3752 51.238 25.106 53.1622 24.2342 55.2742C22.406 59.7103 22.406 64.6897 24.2342 69.1263C25.1084 71.2309 26.3777 73.1487 27.9744 74.7745ZM26.7195 56.2947C27.4592 54.5024 28.5379 52.8697 29.8962 51.4867C31.2388 50.1106 32.8376 49.0118 34.6037 48.2508C38.2735 46.6713 42.4309 46.6713 46.1007 48.2508C47.8663 49.0108 49.466 50.1091 50.8082 51.4852C52.166 52.8687 53.2447 54.5014 53.9849 56.2937C55.5398 60.0694 55.5398 64.307 53.9849 68.0827C53.2422 69.8759 52.1606 71.5086 50.7988 72.8921C48.055 75.7162 44.2852 77.3095 40.3475 77.3095C36.4098 77.3095 32.6401 75.7162 29.8962 72.8921C28.5379 71.5086 27.4592 69.8764 26.7195 68.0856C25.1651 64.3095 25.1651 60.0718 26.7195 56.2962V56.2947Z" fill="url(#paint1_linear)"/>
<path d="M36.541 62.2902C37.5497 63.3004 38.9194 63.8668 40.3472 63.8638C41.6287 63.8604 42.7354 64.7632 42.9896 66.0196C43.2442 67.2755 42.5773 68.5369 41.3953 69.0338C40.3837 69.4643 39.2119 69.2363 38.4362 68.4581C38.191 68.2133 37.9969 67.9232 37.862 67.6036C37.6753 67.1613 37.2665 66.8515 36.7892 66.7919C36.313 66.7318 35.8406 66.9313 35.5501 67.3144C35.26 67.6971 35.1964 68.2064 35.3831 68.6492C35.9283 69.9391 36.9542 70.966 38.2437 71.5112C38.4884 71.6068 38.7396 71.6841 38.9957 71.7432V73.9684C38.9957 74.7106 39.5981 75.313 40.3403 75.313C41.0835 75.313 41.6859 74.7106 41.6859 73.9684V71.7432C41.9405 71.6851 42.1912 71.6073 42.4345 71.5112C44.4282 70.671 45.725 68.7176 45.725 66.5535C45.725 64.3899 44.4282 62.4365 42.4345 61.5963C41.7735 61.318 41.0643 61.1747 40.3472 61.1737C39.9867 61.1752 39.6291 61.1038 39.2972 60.9639C38.3003 60.5433 37.6541 59.5656 37.6576 58.484C37.6536 57.7714 37.9344 57.0868 38.4382 56.5819C38.9411 56.0771 39.6252 55.7929 40.3379 55.7944H40.3566C41.4347 55.7939 42.4069 56.4396 42.8256 57.4325C43.0122 57.8753 43.421 58.1851 43.8983 58.2447C44.375 58.3043 44.8469 58.1048 45.1375 57.7221C45.4276 57.3389 45.4911 56.8306 45.3044 56.3874C44.7597 55.0975 43.7328 54.0706 42.4429 53.5258C42.1986 53.4313 41.9474 53.3549 41.6923 53.2968V51.1051C41.6923 50.3619 41.0899 49.7595 40.3472 49.7595C39.6045 49.7595 39.0021 50.3619 39.0021 51.1051V53.2968C38.747 53.3559 38.4958 53.4332 38.2515 53.5283C36.6021 54.2242 35.4067 55.6959 35.0634 57.4537C34.7202 59.211 35.2742 61.0245 36.541 62.2902Z" fill="url(#paint2_linear)"/>
<defs>
<linearGradient id="paint0_linear" x1="2.52363e-06" y1="-9.48131" x2="53.4779" y2="1.98878" gradientUnits="userSpaceOnUse">
<stop offset="0.364583" stop-color="#F6931B"/>
<stop offset="1" stop-color="#F26921"/>
</linearGradient>
<linearGradient id="paint1_linear" x1="22.863" y1="39.0394" x2="46.4617" y2="42.9318" gradientUnits="userSpaceOnUse">
<stop offset="0.364583" stop-color="#F6931B"/>
<stop offset="1" stop-color="#F26921"/>
</linearGradient>
<linearGradient id="paint2_linear" x1="34.9636" y1="45.9265" x2="42.3864" y2="46.4517" gradientUnits="userSpaceOnUse">
<stop offset="0.364583" stop-color="#F6931B"/>
<stop offset="1" stop-color="#F26921"/>
</linearGradient>
</defs>
</svg>
