<svg width="82" height="100" viewBox="0 0 82 100" fill="none" xmlns="http://www.w3.org/2000/svg">
<path d="M14.5663 34.7522C9.83819 34.7522 5.9917 38.5989 5.9917 43.3268C5.9917 48.0548 9.83819 51.9014 14.5663 51.9014C19.2945 51.9014 23.1409 48.0548 23.1409 43.3268C23.1409 38.5989 19.2945 34.7522 14.5663 34.7522ZM14.5663 48.971C11.4542 48.971 8.92256 46.4391 8.92256 43.3272C8.92256 40.2153 11.4544 37.6835 14.5663 37.6835C17.6782 37.6835 20.2101 40.2153 20.2101 43.3272C20.2101 46.4391 17.6784 48.971 14.5663 48.971Z" fill="url(#paint0_linear)"/>
<path d="M40.769 34.7524C34.8237 34.7524 29.9866 39.5894 29.9866 45.5349C29.9866 51.4804 34.8235 56.3173 40.769 56.3173C46.7145 56.3173 51.5513 51.4804 51.5513 45.5349C51.5513 39.5894 46.7143 34.7524 40.769 34.7524ZM40.769 53.3865C36.4397 53.3865 32.9172 49.8642 32.9172 45.5347C32.9172 41.2052 36.4395 37.6829 40.769 37.6829C45.0985 37.6829 48.6206 41.2052 48.6206 45.5347C48.6206 49.8642 45.0983 53.3865 40.769 53.3865Z" fill="url(#paint1_linear)"/>
<path d="M66.9716 34.7522C62.2435 34.7522 58.397 38.5989 58.397 43.3268C58.397 48.0548 62.2437 51.9014 66.9716 51.9014C71.6995 51.9014 75.546 48.0548 75.546 43.3268C75.546 38.5989 71.6993 34.7522 66.9716 34.7522ZM66.9716 48.971C63.8595 48.971 61.3278 46.4391 61.3278 43.3272C61.3278 40.2153 63.8599 37.6835 66.9716 37.6835C70.0835 37.6835 72.6154 40.2153 72.6154 43.3272C72.6154 46.4391 70.0833 48.971 66.9716 48.971Z" fill="url(#paint2_linear)"/>
<path d="M69.9204 55.034C69.9099 55.034 69.8993 55.0334 69.8888 55.0334H64.0546C64.0441 55.0334 64.0335 55.034 64.023 55.034C58.2177 55.0473 53.4827 58.6741 52.5686 63.3171C50.1464 61.9987 47.4145 61.3317 44.5923 61.3317C41.0497 61.3317 38.8549 61.3083 37.2796 61.3317C34.3426 61.3317 31.6422 61.8624 28.9698 63.3171C28.0612 58.7024 23.3538 55.0473 17.5155 55.034C17.5049 55.034 17.4944 55.0334 17.4838 55.0334H11.6496C11.6391 55.0334 11.6285 55.034 11.618 55.034C5.21759 55.0487 0 59.4905 0 64.9661V81.7497C0 83.6704 1.5625 85.2327 3.48301 85.2327H22.1338V95.89C22.1338 98.1562 23.9774 99.9997 26.2438 99.9997H37.3503C38.1594 99.9997 38.8157 99.3439 38.8157 98.5343C38.8157 97.7249 38.1596 97.0689 37.3503 97.0689H26.2438C25.5936 97.0689 25.0647 96.54 25.0647 95.89V83.7673V73.8938C25.0647 69.6721 28.3497 66.3684 32.3794 65.003L38.7503 73.8917C39.2001 74.5192 39.955 74.8938 40.7694 74.8938C41.5841 74.8938 42.3389 74.5192 42.7886 73.8917L49.1593 65.003C53.2511 66.3895 56.4739 69.7393 56.4739 73.8936V95.8902C56.4739 96.5402 55.945 97.0691 55.2948 97.0691H44.1886C43.3792 97.0691 42.7231 97.7249 42.7231 98.5345C42.7231 99.3439 43.3792 99.9999 44.1886 99.9999H55.2948C57.561 99.9999 59.4048 98.1564 59.4048 95.8902V85.2329H78.0556C79.9763 85.2329 81.539 83.6704 81.539 81.7499V64.9663C81.5384 59.5094 76.3433 55.0487 69.9204 55.034ZM11.6492 57.9641H17.4834C17.6356 57.9641 17.7877 57.9674 17.9391 57.9737L14.5664 62.6794L11.1938 57.9737C11.3449 57.9674 11.4969 57.9641 11.6492 57.9641ZM22.1334 73.8942V82.3024H3.48262C3.17794 82.3024 2.93028 82.0546 2.93028 81.7501V64.9665C2.93028 62.1409 5.02638 59.7024 8.03439 58.5969L12.7434 65.1669V65.1671C13.1518 65.7364 13.8332 66.0764 14.5662 66.0764C15.2992 66.0764 15.9809 65.7364 16.3891 65.1669L21.0981 58.5969C23.969 59.652 26.2022 61.9307 26.2022 65.2421C23.4364 67.7042 22.1334 70.8122 22.1334 73.8942ZM40.769 71.6786L35.5067 64.3366C35.9971 64.296 36.5622 64.2739 37.2831 64.2626H44.5919C44.8171 64.2626 45.0419 64.2688 45.2659 64.279C45.335 64.2821 45.4032 64.2876 45.4722 64.2917C45.6276 64.301 45.7833 64.3118 45.938 64.326C45.9694 64.329 46.0005 64.3327 46.0317 64.3358L40.769 71.6786ZM64.0544 57.9641H69.8886C70.0407 57.9641 70.1929 57.9674 70.3443 57.9737L66.9716 62.6794L63.5989 57.9737C63.7501 57.9674 63.9021 57.9641 64.0544 57.9641ZM78.055 82.3024H59.4042V73.8942C59.4042 70.77 58.0685 67.6749 55.3355 65.2421C55.3355 61.9469 57.5499 59.659 60.4394 58.5969L65.1484 65.1669C66.0181 66.3805 67.9257 66.3782 68.7943 65.1669L73.5033 58.5969C76.5113 59.7024 78.6074 62.1409 78.6074 64.9665V81.7501H78.6076C78.6076 82.0546 78.3597 82.3024 78.055 82.3024Z" fill="url(#paint3_linear)"/>
<path d="M33.9285 3.00548C37.2787 3.45684 38.4227 6.07833 38.7104 6.37833C40.009 7.73322 41.7205 7.63595 42.8543 6.33693C43.1686 5.97306 44.6157 2.93536 48.4315 2.93126C51.3167 2.93126 53.8624 4.97677 54.4846 7.79474C54.6592 8.58498 55.4411 9.08537 56.2315 8.90959C57.0215 8.73517 57.521 7.95295 57.3465 7.1629C55.6762 -0.401562 45.4881 -2.88379 40.7692 4.19005C37.642 -0.658398 30.7875 -1.44902 26.6457 2.69825C24.9207 4.4254 23.9721 6.71837 23.9746 9.1551C23.9846 18.5211 32.1613 25.7163 39.8121 29.3276C40.4151 29.6112 41.1325 29.6254 41.7672 29.3245C47.3286 26.6854 54.1348 21.4885 56.5581 14.8174C56.8344 14.0567 56.4417 13.2162 55.6809 12.9399C54.9204 12.6641 54.0795 13.0563 53.8034 13.817C51.7213 19.5487 45.7674 24.1194 40.7858 26.545C34.0285 23.2797 26.9137 17.043 26.9055 9.15236C26.9018 5.44982 30.1617 2.49922 33.9285 3.00548Z" fill="url(#paint4_linear)"/>
<defs>
<linearGradient id="paint0_linear" x1="5.9917" y1="32.1798" x2="17.5533" y2="34.1222" gradientUnits="userSpaceOnUse">
<stop offset="0.364583" stop-color="#F6931B"/>
<stop offset="1" stop-color="#F26921"/>
</linearGradient>
<linearGradient id="paint1_linear" x1="29.9866" y1="31.5177" x2="44.525" y2="33.9602" gradientUnits="userSpaceOnUse">
<stop offset="0.364583" stop-color="#F6931B"/>
<stop offset="1" stop-color="#F26921"/>
</linearGradient>
<linearGradient id="paint2_linear" x1="58.397" y1="32.1798" x2="69.9585" y2="34.1222" gradientUnits="userSpaceOnUse">
<stop offset="0.364583" stop-color="#F6931B"/>
<stop offset="1" stop-color="#F26921"/>
</linearGradient>
<linearGradient id="paint3_linear" x1="2.55004e-06" y1="48.2885" x2="51.7229" y2="64.0458" gradientUnits="userSpaceOnUse">
<stop offset="0.364583" stop-color="#F6931B"/>
<stop offset="1" stop-color="#F26921"/>
</linearGradient>
<linearGradient id="paint4_linear" x1="23.9746" y1="-4.43179" x2="46.3258" y2="-0.185893" gradientUnits="userSpaceOnUse">
<stop offset="0.364583" stop-color="#F6931B"/>
<stop offset="1" stop-color="#F26921"/>
</linearGradient>
</defs>
</svg>
