<svg width="48" height="50" viewBox="0 0 48 50" fill="none" xmlns="http://www.w3.org/2000/svg">
<path d="M17.2028 40.3137C16.9865 40.0943 16.7199 39.944 16.4288 39.8696C16.462 39.5095 16.5425 39.1563 16.6691 38.8156L16.6821 38.7805C16.8973 38.2022 17.1197 37.6045 17.3253 37.0082C17.5309 36.4124 17.6423 35.791 17.6556 35.1615C17.6819 33.9378 17.3237 32.7026 16.6466 31.6825C16.1858 30.9882 15.7574 30.2615 15.3733 29.5219C15.1871 29.1637 14.7461 29.0237 14.3876 29.2102C14.0294 29.3964 13.8901 29.8377 14.0759 30.1959C14.4837 30.981 14.9384 31.7527 15.4275 32.4897C15.4282 32.4909 15.429 32.492 15.4297 32.4931C15.9424 33.2664 16.2137 34.2025 16.1938 35.1302C16.1839 35.6078 16.0996 36.0793 15.9436 36.5314C15.7433 37.1108 15.5243 37.7006 15.3119 38.2709L15.2989 38.306C15.1185 38.7912 15.0082 39.2948 14.9674 39.809L8.49462 39.7655C8.50454 39.5892 8.51674 39.4046 8.52971 39.215C8.6289 37.7342 8.74143 36.0561 8.06585 34.9071L2.0947 24.7539C1.64151 23.9833 1.42446 23.1037 1.46718 22.211L2.18854 7.13609C2.23928 6.07751 3.07851 5.24667 4.1409 5.20318C5.23877 5.15779 6.18253 6.03937 6.24776 7.16661L6.8688 17.8909C6.83675 17.9065 6.80433 17.9218 6.77267 17.9385C5.39899 18.6714 4.81 20.3918 5.43218 21.8551L9.87936 32.3177C9.99761 32.5958 10.2681 32.7628 10.5523 32.7628C10.6476 32.7628 10.7445 32.7442 10.838 32.7041C11.2095 32.5462 11.3827 32.117 11.2248 31.7455L6.77762 21.2829C6.44918 20.5104 6.74901 19.6079 7.46084 19.2283C7.81827 19.0379 8.10628 18.9914 8.50835 19.07C8.51102 19.0704 8.51369 19.0708 8.51636 19.0715C8.55947 19.0803 8.60258 19.091 8.64492 19.1032C8.64721 19.1039 8.64911 19.1047 8.6514 19.1051C9.41015 19.3267 9.67718 20.0366 9.95222 20.6836C10.2971 21.4946 10.6415 22.3056 10.9864 23.1166C11.5422 24.4239 12.0976 25.7312 12.6534 27.0381C12.8113 27.4101 13.2405 27.5832 13.612 27.4249C13.9836 27.267 14.1564 26.8379 13.9985 26.4663L11.0074 19.4286C10.6896 18.6817 9.98769 18.0217 9.22094 17.7512C8.93026 17.6486 8.62737 17.5926 8.32372 17.5815C8.32067 17.5815 8.318 17.5811 8.31495 17.5811L7.70727 7.08192C7.59626 5.16351 5.96891 3.66624 4.08101 3.74254C2.25683 3.81731 0.815632 5.24591 0.728276 7.06628L0.00691649 22.1408C-0.0491595 23.3188 0.236561 24.4785 0.834324 25.4947L6.80547 35.6479C7.25255 36.4082 7.15185 37.91 7.07097 39.117C7.0561 39.3371 7.04198 39.5503 7.03092 39.7556L6.6628 39.7533C6.65899 39.7533 6.65517 39.7533 6.65136 39.7533C5.7343 39.7533 4.9851 40.496 4.97899 41.4146L4.96106 49.1714C4.96106 49.5754 5.28837 49.9023 5.69196 49.9023H16.9358C17.3398 49.9023 17.6667 49.5754 17.6667 49.1714V44.181L17.685 41.4993C17.6877 41.0526 17.5168 40.6314 17.2028 40.3137ZM16.2049 48.4405H6.42324V44.8367L16.2049 44.9024V48.4405ZM16.2102 43.4024L6.4282 43.3372L6.44117 41.4241C6.44193 41.3085 6.53615 41.2151 6.65136 41.2151H6.65288L16.0138 41.2776C16.0859 41.2784 16.1343 41.312 16.1622 41.3406C16.1904 41.3688 16.2236 41.4176 16.2228 41.4897L16.2102 43.4024Z" fill="url(#paint0_linear)"/>
<path d="M46.5899 25.4948C47.1873 24.4785 47.4738 23.3189 47.4174 22.1409L46.696 7.06636C46.6086 5.24599 45.1674 3.81739 43.3429 3.74262C41.4538 3.66518 39.828 5.16321 39.717 7.082L39.1089 17.5812C39.1067 17.5812 39.1044 17.5816 39.1021 17.5816C38.7977 17.5926 38.4944 17.6483 38.2033 17.7513C37.2966 18.0714 36.7053 18.771 36.3322 19.6285C35.6669 21.1575 35.0276 22.6982 34.3753 24.2325C33.858 25.4498 33.3404 26.667 32.8231 27.8843C32.5419 28.5458 32.2295 29.1958 31.8877 29.8302C31.1412 31.2168 30.128 32.4291 29.8549 34.0183C29.6752 35.0636 29.7523 36.0039 30.099 37.0087C30.3386 37.703 30.6357 38.3801 30.8444 39.085C30.8463 39.0919 30.8486 39.0984 30.8505 39.1052C30.9318 39.386 30.9825 39.6736 31.0027 39.9655C30.709 40.0391 30.4397 40.1901 30.2215 40.4114C29.9075 40.7292 29.7366 41.1503 29.7393 41.597L29.7576 44.2787V49.2691C29.7576 49.6727 30.0849 50 30.4885 50H41.7323C42.1359 50 42.4632 49.6727 42.4632 49.2691C42.4632 49.2691 42.4632 44.1982 42.4632 44.1937L42.4453 41.5119C42.4392 40.5934 41.69 39.8506 40.7729 39.8506C40.7691 39.8506 40.7653 39.8506 40.7615 39.8506L40.3983 39.8529C40.3869 39.6179 40.3708 39.3727 40.3537 39.1171C40.2724 37.9101 40.1717 36.4083 40.6188 35.648L46.5899 25.4948ZM41.001 48.5378H31.2194V44.9997L41.001 44.9341V48.5378ZM40.7714 41.3124H40.7725C40.8881 41.3124 40.9823 41.4059 40.9831 41.5215L40.9961 43.4723L31.2144 43.5379L31.2015 41.5871C31.2007 41.5154 31.2339 41.4662 31.2621 41.4379C31.29 41.4097 31.3384 41.3758 31.4105 41.3754L40.7714 41.3124ZM39.3584 34.9072C38.6828 36.0562 38.7954 37.7342 38.8946 39.2151C38.9098 39.4409 38.9239 39.6576 38.9346 39.8628C38.9346 39.8628 32.4641 39.9063 32.4637 39.9063C32.508 39.9059 32.252 38.6994 32.2108 38.5647C32.0987 38.197 31.9499 37.8357 31.8179 37.4745C31.5658 36.7874 31.2461 35.8666 31.2305 35.1303C31.2114 34.2484 31.4445 33.3908 31.903 32.637C31.9083 32.6287 31.914 32.6203 31.919 32.6119C31.9442 32.571 31.9697 32.5306 31.9961 32.4906C32.3161 32.0088 32.6186 31.5155 32.904 31.0124C33.3774 30.1781 33.7924 29.3408 34.1685 28.4561C34.6927 27.2228 35.2168 25.9899 35.741 24.7566C36.2155 23.6405 36.6546 22.5094 37.1356 21.3963C37.3889 20.8103 37.5621 20.1695 37.9584 19.6572C38.4246 19.054 39.2867 18.8679 39.9634 19.2288C40.6753 19.6083 40.9751 20.5105 40.6466 21.2834L36.1995 31.7455C36.0415 32.1171 36.2147 32.5463 36.5863 32.7042C36.9578 32.8625 37.387 32.6889 37.5449 32.3174L41.9921 21.8552C42.6143 20.3915 42.0253 18.6714 40.6516 17.9386C40.6199 17.9218 40.5875 17.9066 40.5555 17.8906L41.1765 7.16669C41.2417 6.03907 42.1882 5.15711 43.283 5.20327C44.3454 5.24675 45.1846 6.07759 45.2353 7.13617L45.9567 22.2107C45.9994 23.1037 45.7828 23.983 45.3296 24.7536L39.3584 34.9072Z" fill="url(#paint1_linear)"/>
<path d="M23.7123 0C16.7482 0 11.083 5.66559 11.083 12.6293C11.083 19.5934 16.7482 25.259 23.7123 25.259C27.2634 25.259 30.6707 23.7507 33.0606 21.1216C33.3322 20.8229 33.3101 20.3606 33.0114 20.089C32.7127 19.8174 32.25 19.8395 31.9788 20.1382C29.8654 22.4632 26.8522 23.7968 23.7123 23.7968C17.5546 23.7968 12.5448 18.7874 12.5448 12.6293C12.5448 6.47163 17.5546 1.46217 23.7123 1.46217C29.87 1.46217 34.8799 6.47163 34.8799 12.6293C34.8799 14.3284 34.5083 15.9592 33.7759 17.477C33.6004 17.8406 33.7526 18.2777 34.1161 18.4532C34.4797 18.6287 34.9169 18.4761 35.0923 18.1126C35.9216 16.3952 36.3416 14.55 36.3416 12.6293C36.3416 5.66559 30.6761 0 23.7123 0V0Z" fill="url(#paint2_linear)"/>
<path d="M25.2621 12.8018C24.883 12.46 24.4725 12.2235 24.0758 11.995C23.7302 11.7958 23.4036 11.6078 23.1404 11.3713C22.8696 11.1271 22.8234 10.7582 23.0233 10.4313C23.1442 10.233 23.3987 10.0994 23.6867 10.0827C23.8846 10.0712 24.1376 10.178 24.3005 10.3436C24.3714 10.4157 24.4542 10.5275 24.4454 10.6507C24.4164 11.0531 24.7193 11.4033 25.1218 11.4323C25.525 11.4628 25.8744 11.1584 25.9038 10.756C25.9415 10.2337 25.7416 9.72255 25.3415 9.31705C25.0905 9.06261 24.7769 8.86806 24.4431 8.7498V8.27411C24.4431 7.87013 24.1158 7.54321 23.7122 7.54321C23.3086 7.54321 22.9813 7.87013 22.9813 8.27411V8.73988C22.474 8.90468 22.0441 9.22969 21.7755 9.66914C21.2094 10.5961 21.3685 11.7424 22.1623 12.4573C22.54 12.7976 22.9497 13.0337 23.346 13.2618C23.6924 13.4613 24.0193 13.6498 24.2837 13.8878C24.5549 14.132 24.601 14.5008 24.4012 14.8278C24.2799 15.0261 24.0258 15.1596 23.7378 15.1764C23.5402 15.1882 23.2869 15.0807 23.124 14.9155C23.0527 14.8434 22.9703 14.7316 22.979 14.6084C23.008 14.206 22.7051 13.8558 22.3027 13.8268C21.8999 13.797 21.5501 14.1007 21.5207 14.5031C21.4829 15.0254 21.6828 15.5361 22.083 15.942C22.334 16.1965 22.6475 16.3906 22.9813 16.5089V16.985C22.9813 17.3886 23.3086 17.7159 23.7122 17.7159C24.1158 17.7159 24.4431 17.3886 24.4431 16.985V16.5192C24.9505 16.3544 25.3804 16.0294 25.6489 15.5896C26.215 14.663 26.056 13.5163 25.2621 12.8018Z" fill="url(#paint3_linear)"/>
<path d="M23.7121 4.24731C19.0902 4.24731 15.3301 8.00746 15.3301 12.6293C15.3301 17.2512 19.0902 21.0114 23.7121 21.0114C28.334 21.0114 32.0941 17.2512 32.0941 12.6293C32.0941 8.00746 28.334 4.24731 23.7121 4.24731ZM23.7121 19.5496C19.8963 19.5496 16.7919 16.4452 16.7919 12.6293C16.7919 8.81389 19.8963 5.70949 23.7121 5.70949C27.528 5.70949 30.6324 8.81389 30.6324 12.6293C30.6324 16.4452 27.528 19.5496 23.7121 19.5496Z" fill="url(#paint4_linear)"/>
<defs>
<linearGradient id="paint0_linear" x1="5.53078e-07" y1="-3.18464" x2="12.2088" y2="-2.39884" gradientUnits="userSpaceOnUse">
<stop offset="0.364583" stop-color="#F6931B"/>
<stop offset="1" stop-color="#F26921"/>
</linearGradient>
<linearGradient id="paint1_linear" x1="29.7393" y1="-3.1993" x2="41.9483" y2="-2.41514" gradientUnits="userSpaceOnUse">
<stop offset="0.364583" stop-color="#F6931B"/>
<stop offset="1" stop-color="#F26921"/>
</linearGradient>
<linearGradient id="paint2_linear" x1="11.083" y1="-3.78886" x2="28.1118" y2="-0.92796" gradientUnits="userSpaceOnUse">
<stop offset="0.364583" stop-color="#F6931B"/>
<stop offset="1" stop-color="#F26921"/>
</linearGradient>
<linearGradient id="paint3_linear" x1="21.4385" y1="6.01731" x2="24.5731" y2="6.25274" gradientUnits="userSpaceOnUse">
<stop offset="0.364583" stop-color="#F6931B"/>
<stop offset="1" stop-color="#F26921"/>
</linearGradient>
<linearGradient id="paint4_linear" x1="15.3301" y1="1.7327" x2="26.632" y2="3.6315" gradientUnits="userSpaceOnUse">
<stop offset="0.364583" stop-color="#F6931B"/>
<stop offset="1" stop-color="#F26921"/>
</linearGradient>
</defs>
</svg>
