<svg width="61" height="76" viewBox="0 0 61 76" fill="none" xmlns="http://www.w3.org/2000/svg">
<path d="M25.9218 40.0609L6.41786 31.4558C5.68027 31.1307 4.84961 31.6715 4.84961 32.4781C4.84961 33.2129 4.84961 57.2804 4.84961 57.8902C4.84961 58.6979 5.32713 59.4304 6.06606 59.7565L25.0199 68.1189C25.1642 68.1826 25.3178 68.2139 25.4709 68.2139C25.6843 68.2139 25.8968 68.1529 26.0811 68.0327C26.3976 67.8263 26.5883 67.4743 26.5883 67.0966C26.5883 66.4482 26.5883 41.8162 26.5883 41.0832C26.5882 40.6404 26.3269 40.2396 25.9218 40.0609ZM24.3533 65.3823L7.08404 57.7633V41.1188L24.3533 48.738V65.3823ZM24.3533 46.2954L7.08404 38.6761V34.1924L24.3533 41.8116V46.2954Z" fill="url(#paint0_linear)"/>
<path d="M30.6278 11.8215V9.33008C31.5762 9.40103 31.9019 9.85392 32.2982 9.85392C32.8221 9.85392 33.0484 9.20272 33.0484 8.8772C33.0484 8.05604 31.5479 7.78722 30.6278 7.75887V7.39074C30.6278 7.20698 30.3872 7.03687 30.1466 7.03687C29.8775 7.03687 29.6654 7.20683 29.6654 7.39074V7.78722C28.2499 7.97128 26.9191 8.74969 26.9191 10.5474C26.9191 12.3592 28.3772 12.9113 29.6654 13.3925V16.2094C28.4198 16.068 27.995 15.1478 27.4571 15.1478C27.0183 15.1478 26.6646 15.7423 26.6646 16.1386C26.6646 16.9313 27.9525 17.8514 29.6655 17.8939V18.2902C29.6655 18.4743 29.8778 18.6441 30.1468 18.6441C30.3874 18.6441 30.628 18.4743 30.628 18.2902V17.8514C32.2135 17.5966 33.3033 16.5915 33.3033 14.8505C33.3031 12.9255 31.8875 12.2886 30.6278 11.8215ZM29.7785 11.51C29.1273 11.2552 28.6459 10.9862 28.6459 10.3635C28.6459 9.82557 29.0706 9.48579 29.7785 9.37268V11.51ZM30.5146 16.1955V13.7324C31.1233 14.0016 31.5764 14.3412 31.5764 15.0348C31.5764 15.7001 31.1374 16.068 30.5146 16.1955Z" fill="url(#paint1_linear)"/>
<path d="M59.5233 46.1147C58.9061 46.1147 58.406 46.6148 58.406 47.232V61.099C58.406 61.2035 58.3441 61.2984 58.2486 61.3405L31.4375 73.1693V36.662L38.4316 33.5763L58.4058 24.7637V42.0178C58.4058 42.635 58.9059 43.1351 59.5231 43.1351C60.1403 43.1351 60.6404 42.635 60.6404 42.0178C60.6404 41.3725 60.6403 22.8064 60.6403 23.0478C60.6404 22.6027 60.3713 22.1997 59.9689 22.0247L43.6714 14.9373C44.4442 7.7162 39.4926 1.42244 32.8518 0.025343C32.2478 -0.102759 31.6556 0.284664 31.5285 0.888657C31.4013 1.4925 31.7878 2.08492 32.3918 2.21198C40.8922 4.0008 44.5033 14.4004 38.6382 21.0535H36.2819C43.2825 15.3443 39.3265 3.63253 30.0123 3.63253C20.7993 3.63253 16.678 15.1762 23.7769 21.0535H21.3865C15.5621 14.4449 19.089 4.00615 27.6373 2.21109C28.2413 2.08432 28.628 1.49191 28.5012 0.888064C28.3743 0.283922 27.7815 -0.102907 27.1782 0.0241555C20.3441 1.4591 15.4727 7.98532 16.3819 15.1927L0.671681 22.0249C0.278766 22.1956 0.00771876 22.5888 0.00103906 23.0329C0.00103906 23.0375 0 23.042 0 23.0466C0 23.047 0.000148356 23.0475 0.000148356 23.0479C0.000148356 23.0483 0 23.0489 0 23.0494V61.099C0 62.0885 0.584845 62.9857 1.48987 63.385L29.8692 75.906C30.1471 76.0283 30.479 76.0347 30.7715 75.906L59.151 63.3851C60.0559 62.9855 60.6405 62.0884 60.6405 61.0992V47.2321C60.6407 46.6148 60.1405 46.1147 59.5233 46.1147ZM30.0123 5.86697C33.3574 5.86697 36.2718 8.01085 37.2643 11.2018C39.2992 17.7436 32.3636 23.2018 26.5512 20.2179C19.4541 16.5701 22.0988 5.86697 30.0123 5.86697ZM2.23443 61.099V24.7637C2.99548 25.0993 28.5856 36.3896 29.2028 36.662V73.1694L2.39178 61.3404C2.29618 61.2984 2.23443 61.2035 2.23443 61.099ZM30.3202 34.7126L3.90213 23.0568L16.8567 17.4231C17.2431 18.701 17.8192 19.9237 18.574 21.0535H17.9302C17.3132 21.0535 16.813 21.5536 16.813 22.1708C16.813 22.788 17.3132 23.2881 17.9302 23.2881C18.7688 23.2881 40.5306 23.2881 42.0993 23.2881C42.7165 23.2881 43.2166 22.788 43.2166 22.1708C43.2166 21.5536 42.7165 21.0535 42.0993 21.0535H41.4505C42.2519 19.854 42.8513 18.5492 43.2368 17.1852L56.7387 23.057L30.3202 34.7126Z" fill="url(#paint2_linear)"/>
<path d="M21.5152 51.9452L10.7307 47.1872C10.1659 46.9385 9.50653 47.194 9.25746 47.7585C9.00838 48.3232 9.26414 48.9827 9.82864 49.2319L20.6131 53.9899C21.1806 54.2397 21.8383 53.9809 22.0863 53.4186C22.3354 52.8538 22.0797 52.1944 21.5152 51.9452Z" fill="url(#paint3_linear)"/>
<path d="M21.5152 56.9744L10.7307 52.2162C10.166 51.9676 9.50653 52.2231 9.25746 52.7876C9.00838 53.3522 9.26414 54.0117 9.82864 54.2608L20.6131 59.0188C21.178 59.2682 21.8374 59.012 22.0863 58.4477C22.3354 57.8828 22.0797 57.2235 21.5152 56.9744Z" fill="url(#paint4_linear)"/>
<defs>
<linearGradient id="paint0_linear" x1="4.84961" y1="25.8317" x2="19.7725" y2="27.3106" gradientUnits="userSpaceOnUse">
<stop offset="0.364583" stop-color="#F6931B"/>
<stop offset="1" stop-color="#F26921"/>
</linearGradient>
<linearGradient id="paint1_linear" x1="26.6646" y1="5.29578" x2="31.2245" y2="5.73394" gradientUnits="userSpaceOnUse">
<stop offset="0.364583" stop-color="#F6931B"/>
<stop offset="1" stop-color="#F26921"/>
</linearGradient>
<linearGradient id="paint2_linear" x1="1.89646e-06" y1="-11.4" x2="41.2944" y2="-5.86445" gradientUnits="userSpaceOnUse">
<stop offset="0.364583" stop-color="#F6931B"/>
<stop offset="1" stop-color="#F26921"/>
</linearGradient>
<linearGradient id="paint3_linear" x1="9.16211" y1="46.0431" x2="17.3831" y2="48.6145" gradientUnits="userSpaceOnUse">
<stop offset="0.364583" stop-color="#F6931B"/>
<stop offset="1" stop-color="#F26921"/>
</linearGradient>
<linearGradient id="paint4_linear" x1="9.16211" y1="51.0721" x2="17.3831" y2="53.6435" gradientUnits="userSpaceOnUse">
<stop offset="0.364583" stop-color="#F6931B"/>
<stop offset="1" stop-color="#F26921"/>
</linearGradient>
</defs>
</svg>
