<svg width="50" height="50" viewBox="0 0 50 50" fill="none" xmlns="http://www.w3.org/2000/svg">
<g clip-path="url(#clip0)">
<path d="M10.737 2.08057C15.5564 1.67197 20.3547 1.46484 24.9983 1.46484C36.4435 1.46484 45.8592 2.74688 48.1902 3.09277C48.2598 3.84697 48.38 5.33896 48.4579 7.37227C48.473 7.76699 48.7977 8.07666 49.1893 8.07666C49.1988 8.07666 49.2084 8.07646 49.2179 8.07607C49.6221 8.06064 49.9373 7.72031 49.9217 7.31621C49.8045 4.25918 49.5989 2.44697 49.5902 2.37129C49.5528 2.04619 49.3043 1.78525 48.9813 1.73223C48.8759 1.71494 38.2872 0 24.9983 0C20.3135 0 15.4737 0.208887 10.6133 0.620801C10.2101 0.655078 9.91111 1.00937 9.94529 1.4125C9.97947 1.81562 10.3332 2.11416 10.737 2.08057Z" fill="url(#paint0_linear)"/>
<path d="M49.9993 11.0805C49.9979 10.6768 49.6703 10.3505 49.2669 10.3505H49.2644C48.8599 10.3519 48.5331 10.6809 48.5343 11.0853C48.5446 14.169 48.4256 17.2638 48.1807 20.2932C47.0039 20.4683 44.053 20.8783 39.9865 21.2405C39.9306 17.7039 39.8433 14.7089 39.7636 12.4746C41.204 12.6009 42.5022 12.7329 43.6312 12.8586C43.6587 12.8616 43.6861 12.8632 43.7131 12.8632C44.0814 12.8632 44.3985 12.5861 44.4402 12.2117C44.4849 11.8097 44.1953 11.4475 43.7932 11.4027C39.4805 10.9228 32.719 10.3506 24.9983 10.3506C17.2776 10.3506 10.5161 10.9228 6.20338 11.4027C5.80133 11.4475 5.51168 11.8097 5.55641 12.2117C5.60123 12.6137 5.96285 12.9037 6.36539 12.8586C7.49439 12.7329 8.79264 12.6009 10.233 12.4746C10.1492 14.8175 10.0633 17.7963 10.0085 21.2404C5.94283 20.8782 2.99264 20.4684 1.81598 20.2933C1.12818 11.7809 1.63053 5.02002 1.80699 3.09228C2.67096 2.96347 4.50602 2.70566 7.03795 2.43466C7.4401 2.3917 7.73141 2.03066 7.68834 1.62851C7.64527 1.22636 7.28443 0.935348 6.88209 0.978219C3.25963 1.36591 1.03746 1.72871 1.01549 1.73232C0.692538 1.78535 0.444003 2.04629 0.406601 2.37138C0.397421 2.45136 -0.502286 10.4916 0.40455 20.9925C0.433359 21.3262 0.684921 21.5978 1.01549 21.6521C1.05162 21.6581 4.55338 22.2286 9.98756 22.7094C9.89381 30.0427 9.94996 39.238 10.4422 48.8172C10.4612 49.1858 10.7515 49.4827 11.1197 49.5101C11.1859 49.5149 17.8242 50.0002 24.9986 50.0002C32.173 50.0002 38.8112 49.5149 38.8775 49.5101C39.2457 49.4828 39.536 49.1859 39.5549 48.8172C39.6394 47.1718 39.7141 45.4727 39.7769 43.767C39.7918 43.3628 39.4761 43.023 39.0718 43.0081C38.6668 42.9945 38.3278 43.3089 38.3129 43.7132C38.2587 45.1884 38.1955 46.6587 38.1247 48.0933C36.2943 48.213 30.8244 48.5353 24.9987 48.5353C19.1726 48.5353 13.7026 48.2129 11.8727 48.0933C11.1455 33.3805 11.4392 19.6568 11.7037 12.3521C13.4561 12.2135 15.3829 12.0876 17.4432 11.9926C17.0973 13.1434 16.0481 13.9813 14.7851 14.0116C14.3962 14.021 14.0823 14.3328 14.0706 14.7217C14.0414 15.6873 14.0148 16.6722 13.9917 17.6488C13.9821 18.0533 14.3022 18.3889 14.7066 18.3984C14.7126 18.3985 14.7183 18.3986 14.7243 18.3986C15.1208 18.3986 15.4467 18.082 15.4562 17.6836C15.4742 16.9243 15.4942 16.1601 15.516 15.4039C17.2775 15.0771 18.6499 13.6929 18.9623 11.9294C20.8833 11.858 22.9055 11.8155 24.9988 11.8155C27.0889 11.8155 29.1083 11.8578 31.0266 11.9291C31.339 13.6973 32.7153 15.0826 34.4821 15.406C34.6613 21.6188 34.7959 30.8768 34.4928 41.0421C32.7205 41.3635 31.3403 42.752 31.0296 44.526C28.9199 44.5947 26.8941 44.6296 24.9987 44.6296C23.1041 44.6296 21.0782 44.5947 18.9677 44.5258C18.6572 42.7519 17.277 41.3633 15.5047 41.0419C15.3186 34.791 15.2773 28.207 15.3822 21.4598C15.3884 21.0553 15.0657 20.7224 14.6612 20.7161C14.2548 20.71 13.9237 21.0326 13.9174 21.4371C13.8087 28.4377 13.8567 35.2645 14.0602 41.7278C14.0725 42.1175 14.3879 42.4293 14.7777 42.437C16.3217 42.4679 17.5475 43.7017 17.5683 45.2458C17.5736 45.6363 17.8843 45.954 18.2747 45.968C20.6336 46.052 22.8959 46.0946 24.9988 46.0946C27.1026 46.0946 29.3649 46.052 31.7229 45.9683C32.1132 45.9544 32.424 45.6366 32.4293 45.2462C32.4501 43.702 33.6759 42.4683 35.22 42.4373C35.6097 42.4296 35.9252 42.1179 35.9375 41.7281C36.2781 30.9182 36.1201 21.0757 35.9275 14.7224C35.9157 14.3328 35.6008 14.0207 35.2112 14.0123C33.944 13.985 32.8916 13.1464 32.5456 11.9924C34.6092 12.0874 36.5389 12.2135 38.2939 12.3523C38.4934 17.8778 38.7481 28.2824 38.4302 40.0395C38.4193 40.4438 38.7382 40.7806 39.1426 40.7914C39.1494 40.7916 39.1561 40.7917 39.1628 40.7917C39.5582 40.7917 39.8839 40.4767 39.8947 40.0791C40.067 33.7074 40.0716 27.7318 40.008 22.7097C45.4431 22.2289 48.9458 21.6583 48.9819 21.6523C49.3125 21.598 49.564 21.3264 49.5928 20.9927C49.8734 17.7373 50.0103 14.4024 49.9993 11.0805Z" fill="url(#paint1_linear)"/>
<path d="M21.9281 26.517C22.3135 26.394 22.5262 25.9819 22.4034 25.5966C22.2805 25.2112 21.8685 24.9985 21.483 25.1214C20.3662 25.4776 19.5514 26.3867 19.299 27.492H18.5935C18.189 27.492 17.8611 27.8198 17.8611 28.2244C17.8611 28.629 18.189 28.9568 18.5935 28.9568H19.2998C19.633 30.4011 20.9296 31.4812 22.4739 31.4812C24.2699 31.4812 25.7311 30.0202 25.7311 28.2244C25.7311 27.2364 26.5351 26.4325 27.5234 26.4325C28.5116 26.4325 29.3156 27.2363 29.3156 28.2244C29.3156 29.0421 28.7635 29.7557 27.9731 29.9597C27.5814 30.0606 27.3459 30.4602 27.4468 30.8519C27.548 31.2436 27.9476 31.4794 28.3391 31.378C29.534 31.0697 30.4294 30.1216 30.6975 28.9569H31.4038C31.8083 28.9569 32.1362 28.6291 32.1362 28.2245C32.1362 27.8199 31.8083 27.4921 31.4038 27.4921H30.6975C30.3643 26.0479 29.0676 24.9678 27.5234 24.9678C25.7274 24.9678 24.2662 26.4287 24.2662 28.2245C24.2662 29.2125 23.4622 30.0164 22.4739 30.0164C21.4857 30.0164 20.6817 29.2126 20.6817 28.2245C20.6815 27.441 21.1825 26.7549 21.9281 26.517Z" fill="url(#paint2_linear)"/>
<path d="M35.6875 44.7704C35.6611 44.7304 35.6299 44.6923 35.5967 44.6591C35.5625 44.6248 35.5254 44.5946 35.4854 44.5682C35.4453 44.5418 35.4023 44.5193 35.3584 44.5009C35.3145 44.4823 35.2686 44.4686 35.2217 44.4589C34.9834 44.411 34.7305 44.4892 34.5605 44.6591C34.5264 44.6923 34.4961 44.7303 34.4697 44.7704C34.4434 44.8104 34.4199 44.8524 34.4023 44.8964C34.3838 44.9413 34.3701 44.9872 34.3604 45.0341C34.3506 45.0809 34.3457 45.1288 34.3457 45.1767C34.3457 45.3699 34.4238 45.5585 34.5605 45.6942C34.5938 45.7285 34.6318 45.7587 34.6719 45.786C34.7119 45.8124 34.7539 45.8349 34.7979 45.8533C34.8428 45.8719 34.8887 45.8855 34.9355 45.8954C34.9824 45.9042 35.0303 45.9091 35.0781 45.9091C35.126 45.9091 35.1738 45.9042 35.2217 45.8954C35.2686 45.8855 35.3145 45.872 35.3584 45.8533C35.4023 45.8349 35.4453 45.8123 35.4854 45.786C35.5254 45.7587 35.5625 45.7284 35.5967 45.6942C35.7324 45.5585 35.8105 45.37 35.8105 45.1767C35.8105 45.1288 35.8057 45.0809 35.7969 45.0341C35.7871 44.9872 35.7734 44.9413 35.7549 44.8964C35.7363 44.8524 35.7139 44.8104 35.6875 44.7704Z" fill="url(#paint3_linear)"/>
<path d="M15.5925 44.7704C15.5662 44.7304 15.5359 44.6923 15.5017 44.6591C15.365 44.5224 15.1765 44.4442 14.9841 44.4442C14.7908 44.4442 14.6023 44.5224 14.4656 44.6591C14.4324 44.6923 14.4011 44.7303 14.3748 44.7704C14.3484 44.8106 14.3259 44.8524 14.3074 44.8964C14.2888 44.9413 14.2751 44.9872 14.2654 45.0341C14.2566 45.0809 14.2517 45.1288 14.2517 45.1767C14.2517 45.3699 14.3298 45.5585 14.4656 45.6942C14.4998 45.7285 14.5369 45.7587 14.5769 45.786C14.6169 45.8124 14.6599 45.8349 14.7039 45.8533C14.7478 45.8719 14.7937 45.8856 14.8406 45.8954C14.8884 45.9042 14.9363 45.9091 14.9841 45.9091C15.1765 45.9091 15.366 45.831 15.5017 45.6942C15.6384 45.5585 15.7166 45.37 15.7166 45.1767C15.7166 45.1288 15.7117 45.081 15.7019 45.0341C15.6921 44.9872 15.6785 44.9413 15.6599 44.8964C15.6422 44.8524 15.6189 44.8105 15.5925 44.7704Z" fill="url(#paint4_linear)"/>
<path d="M31.4033 21.3714C31.8078 21.3714 32.1357 21.0435 32.1357 20.639V18.2848C32.1357 17.8802 31.8078 17.5523 31.4033 17.5523C30.9988 17.5523 30.6709 17.8802 30.6709 18.2848V20.639C30.6709 21.0435 30.9988 21.3714 31.4033 21.3714Z" fill="url(#paint5_linear)"/>
<path d="M18.1541 36.475V38.8292C18.1541 39.2338 18.482 39.5616 18.8865 39.5616C19.291 39.5616 19.6189 39.2338 19.6189 38.8292V36.475C19.6189 36.0704 19.291 35.7426 18.8865 35.7426C18.482 35.7426 18.1541 36.0704 18.1541 36.475Z" fill="url(#paint6_linear)"/>
<path d="M17.3315 5.81046C17.3315 6.21495 17.6596 6.54288 18.0643 6.54288C18.4688 6.54288 18.7969 6.21495 18.7969 5.81046C18.7969 5.40596 18.4688 5.07803 18.0643 5.07803C17.6597 5.07803 17.3315 5.40596 17.3315 5.81046Z" fill="url(#paint7_linear)"/>
<path d="M24.2656 5.81046C24.2656 6.21495 24.5937 6.54288 24.9983 6.54288C25.4029 6.54288 25.7309 6.21495 25.7309 5.81046C25.7309 5.40596 25.4029 5.07803 24.9983 5.07803C24.5937 5.07803 24.2656 5.40596 24.2656 5.81046Z" fill="url(#paint8_linear)"/>
<path d="M31.1995 5.81046C31.1995 6.21495 31.5275 6.54288 31.9322 6.54288C32.3368 6.54288 32.6648 6.21495 32.6648 5.81046C32.6648 5.40596 32.3368 5.07803 31.9322 5.07803C31.5275 5.07803 31.1995 5.40596 31.1995 5.81046Z" fill="url(#paint9_linear)"/>
</g>
<defs>
<linearGradient id="paint0_linear" x1="9.94263" y1="-1.2115" x2="26.3259" y2="12.4134" gradientUnits="userSpaceOnUse">
<stop offset="0.364583" stop-color="#F6931B"/>
<stop offset="1" stop-color="#F26921"/>
</linearGradient>
<linearGradient id="paint1_linear" x1="1.56369e-06" y1="-6.3799" x2="33.6717" y2="-0.610502" gradientUnits="userSpaceOnUse">
<stop offset="0.364583" stop-color="#F6931B"/>
<stop offset="1" stop-color="#F26921"/>
</linearGradient>
<linearGradient id="paint2_linear" x1="17.8611" y1="23.9908" x2="26.5752" y2="27.1994" gradientUnits="userSpaceOnUse">
<stop offset="0.364583" stop-color="#F6931B"/>
<stop offset="1" stop-color="#F26921"/>
</linearGradient>
<linearGradient id="paint3_linear" x1="34.3457" y1="44.2254" x2="35.3332" y2="44.3914" gradientUnits="userSpaceOnUse">
<stop offset="0.364583" stop-color="#F6931B"/>
<stop offset="1" stop-color="#F26921"/>
</linearGradient>
<linearGradient id="paint4_linear" x1="14.2517" y1="44.2245" x2="15.2393" y2="44.3904" gradientUnits="userSpaceOnUse">
<stop offset="0.364583" stop-color="#F6931B"/>
<stop offset="1" stop-color="#F26921"/>
</linearGradient>
<linearGradient id="paint5_linear" x1="30.6709" y1="16.9795" x2="31.6821" y2="17.0446" gradientUnits="userSpaceOnUse">
<stop offset="0.364583" stop-color="#F6931B"/>
<stop offset="1" stop-color="#F26921"/>
</linearGradient>
<linearGradient id="paint6_linear" x1="18.1541" y1="35.1697" x2="19.1653" y2="35.2349" gradientUnits="userSpaceOnUse">
<stop offset="0.364583" stop-color="#F6931B"/>
<stop offset="1" stop-color="#F26921"/>
</linearGradient>
<linearGradient id="paint7_linear" x1="17.3315" y1="4.85831" x2="18.3194" y2="5.02433" gradientUnits="userSpaceOnUse">
<stop offset="0.364583" stop-color="#F6931B"/>
<stop offset="1" stop-color="#F26921"/>
</linearGradient>
<linearGradient id="paint8_linear" x1="24.2656" y1="4.85831" x2="25.2535" y2="5.02433" gradientUnits="userSpaceOnUse">
<stop offset="0.364583" stop-color="#F6931B"/>
<stop offset="1" stop-color="#F26921"/>
</linearGradient>
<linearGradient id="paint9_linear" x1="31.1995" y1="4.85831" x2="32.1873" y2="5.02433" gradientUnits="userSpaceOnUse">
<stop offset="0.364583" stop-color="#F6931B"/>
<stop offset="1" stop-color="#F26921"/>
</linearGradient>
<clipPath id="clip0">
<rect width="50" height="50" fill="white"/>
</clipPath>
</defs>
</svg>
