<svg width="80" height="80" viewBox="0 0 80 80" fill="none" xmlns="http://www.w3.org/2000/svg">
<path d="M43.5156 80H36.4844C33.8997 80 31.7969 77.8972 31.7969 75.3125C31.7969 73.1323 33.293 71.295 35.3125 70.7733V68.8286C35.3125 68.3841 34.9895 67.9989 34.5444 67.9123C30.8017 67.185 27.297 65.7334 24.1277 63.598C23.7483 63.342 23.2447 63.3848 22.93 63.6992L21.5428 65.0863C22.5103 66.7703 22.3881 68.94 21.1159 70.4589C20.27 71.4688 19.0338 72.0809 17.7237 72.1386C16.4139 72.195 15.1294 71.6977 14.2019 70.7703L9.22984 65.7984C8.34453 64.9131 7.85703 63.7361 7.85703 62.4839C7.85703 61.2317 8.34453 60.0545 9.22984 59.1692C10.1153 58.2839 11.2923 57.7964 12.5445 57.7964C13.3959 57.7964 14.2128 58.0217 14.9266 58.4444L16.3009 57.07C16.6155 56.7556 16.658 56.2519 16.4022 55.8723C14.2667 52.703 12.8152 49.1983 12.0878 45.4558C12.0013 45.0105 11.6159 44.6875 11.1716 44.6875H9.22859C9.01641 45.5183 8.57734 46.2759 7.9425 46.8888C7.01875 47.7803 5.80375 48.2436 4.51797 48.2003C1.98453 48.11 0 46.0194 0 43.4408V36.4844C0 35.2027 0.5075 34.0059 1.42906 33.1147C2.35063 32.2238 3.56672 31.7567 4.84688 31.7997C6.91969 31.8688 8.67156 33.3539 9.20687 35.3125H11.1714C11.6159 35.3125 12.0013 34.9895 12.0877 34.5444C12.815 30.8017 14.2666 27.297 16.402 24.1277C16.6578 23.7481 16.6152 23.2444 16.3008 22.93L14.9264 21.5556C14.2127 21.9783 13.3958 22.2036 12.5444 22.2036C11.2922 22.2036 10.1152 21.7161 9.22969 20.8308C7.40203 19.0031 7.40203 16.0292 9.22969 14.2014L14.2016 9.22969C16.0292 7.40188 19.003 7.40219 20.8308 9.22969C21.7161 10.1152 22.2036 11.2922 22.2036 12.5444C22.2036 13.3956 21.9783 14.2125 21.5556 14.9264L22.93 16.3008C23.2447 16.6155 23.7481 16.6578 24.1275 16.402C27.297 14.2666 30.8017 12.815 34.5442 12.0877C34.9895 12.0011 35.3125 11.6158 35.3125 11.1714V9.22672C33.293 8.705 31.7969 6.86766 31.7969 4.6875C31.7969 2.10281 33.8997 0 36.4844 0H43.5156C46.1003 0 48.2031 2.10281 48.2031 4.6875C48.2031 6.86766 46.707 8.705 44.6875 9.22672V11.1714C44.6875 11.6159 45.0105 12.0013 45.4556 12.0877C49.1983 12.815 52.703 14.2666 55.8723 16.402C56.2517 16.6578 56.7555 16.6153 57.07 16.3008L58.4456 14.9253C57.3864 13.128 57.6278 10.7711 59.1692 9.22969C60.9967 7.40219 63.9706 7.40188 65.7984 9.22969L70.7703 14.2014C72.598 16.0291 72.598 19.003 70.7703 20.8308C69.8848 21.7161 68.7078 22.2036 67.4556 22.2036C66.6044 22.2036 65.7875 21.9783 65.0736 21.5556L63.6992 22.93C63.3847 23.2444 63.3422 23.7481 63.598 24.1277C65.7334 27.297 67.185 30.8017 67.9123 34.5442C67.9989 34.9895 68.3842 35.3125 68.8286 35.3125H70.7898C71.2966 33.4373 72.9173 31.9897 74.8911 31.8155H74.8913C76.2038 31.6984 77.5105 32.1411 78.4775 33.0266C79.445 33.9125 80 35.1728 80 36.4844V43.5156C80 44.8272 79.445 46.0875 78.4775 46.9734C77.5105 47.8589 76.2022 48.3002 74.8913 48.1845C72.9173 48.0103 71.2966 46.5627 70.7898 44.6875H68.8286C68.3841 44.6875 67.9989 45.0105 67.9123 45.4556C67.185 49.1983 65.7334 52.703 63.598 55.8723C63.3422 56.2519 63.3848 56.7556 63.6992 57.07L65.0736 58.4444C65.7875 58.0217 66.6044 57.7964 67.4556 57.7964C68.7078 57.7964 69.8848 58.2839 70.7703 59.1692C71.6556 60.0545 72.1431 61.2317 72.1431 62.4839C72.1431 63.7361 71.6556 64.9131 70.7702 65.7984L65.7984 70.7703C64.8709 71.6978 63.588 72.1966 62.2764 72.1386C60.9664 72.0809 59.7302 71.4688 58.8842 70.4591C57.612 68.94 57.4895 66.7705 58.4573 65.0863L57.0702 63.6992C56.7556 63.3847 56.252 63.342 55.8727 63.598C52.7031 65.7334 49.1984 67.185 45.4559 67.9123C45.0106 67.9989 44.6877 68.3842 44.6877 68.8286V70.7733C46.7072 71.295 48.2033 73.1323 48.2033 75.3125C48.2031 77.8972 46.1003 80 43.5156 80ZM23.5875 60.3078C24.38 60.3078 25.178 60.5373 25.8741 61.0064C28.6937 62.9062 31.8116 64.1978 35.1406 64.8447C37.0508 65.2158 38.4375 66.8913 38.4375 68.8286V71.7969C38.4375 72.8739 37.5614 73.75 36.4844 73.75C35.6228 73.75 34.9219 74.4509 34.9219 75.3125C34.9219 76.1741 35.6228 76.875 36.4844 76.875H43.5156C44.3772 76.875 45.0781 76.1741 45.0781 75.3125C45.0781 74.4509 44.3772 73.75 43.5156 73.75C42.4386 73.75 41.5625 72.8739 41.5625 71.7969V68.8286C41.5625 66.8914 42.9492 65.2158 44.8597 64.8447C48.1886 64.1977 51.3064 62.9062 54.1262 61.0064C55.743 59.917 57.9105 60.12 59.2798 61.4895L61.4291 63.6387C62.163 64.3727 62.163 65.567 61.4291 66.3009C60.8336 66.8964 60.7681 67.8412 61.2798 68.4525C61.5684 68.7967 61.9713 68.9972 62.4141 69.0167C62.8598 69.0352 63.2752 68.8744 63.5889 68.5606L68.5606 63.5887C68.8559 63.2936 69.0183 62.9014 69.0183 62.4841C69.0183 62.0666 68.8558 61.6742 68.5606 61.3792C67.9514 60.77 66.96 60.7703 66.3509 61.3792L66.3009 61.4292C65.5672 62.1631 64.3728 62.1633 63.6387 61.4292L61.4895 59.28C60.1202 57.9106 59.917 55.7431 61.0064 54.1264C62.9062 51.3066 64.1978 48.1887 64.8447 44.8597C65.2158 42.9492 66.8913 41.5625 68.8286 41.5625H71.8673C72.9053 41.5625 73.75 42.407 73.75 43.4452C73.75 44.2872 74.3719 45.0016 75.1659 45.0717C75.6131 45.1108 76.0402 44.968 76.3669 44.6686C76.6945 44.3688 76.8748 43.9592 76.8748 43.5156V36.4844C76.8748 36.0408 76.6945 35.6312 76.3669 35.3314C76.0398 35.0317 75.6111 34.8884 75.1659 34.9283C74.3719 34.9984 73.75 35.7128 73.75 36.5548C73.75 37.5928 72.9055 38.4375 71.8673 38.4375H68.8286C66.8914 38.4375 65.2158 37.0508 64.8447 35.1403C64.1977 31.8114 62.9062 28.6936 61.0064 25.8737C59.9169 24.2569 60.1202 22.0894 61.4895 20.7202L63.5887 18.6209C64.3505 17.8594 65.5894 17.8595 66.3511 18.6209C66.9602 19.23 67.9516 19.2303 68.5608 18.6209C69.17 18.0117 69.17 17.0205 68.5608 16.4111L63.5889 11.4394C62.9802 10.8305 61.9888 10.8298 61.3792 11.4394C60.77 12.0484 60.77 13.0398 61.3792 13.6491C62.1408 14.4106 62.1408 15.6498 61.3792 16.4114L59.28 18.5106C57.9105 19.88 55.7431 20.0831 54.1262 18.9937C51.3066 17.0939 48.1887 15.8023 44.8597 15.1555C42.9492 14.7842 41.5625 13.1088 41.5625 11.1714V8.20312C41.5625 7.12609 42.4386 6.25 43.5156 6.25C44.3772 6.25 45.0781 5.54906 45.0781 4.6875C45.0781 3.82594 44.3772 3.125 43.5156 3.125H36.4844C35.6228 3.125 34.9219 3.82594 34.9219 4.6875C34.9219 5.54906 35.6228 6.25 36.4844 6.25C37.5614 6.25 38.4375 7.12609 38.4375 8.20312V11.1714C38.4375 13.1086 37.0508 14.7842 35.1403 15.1553C31.8114 15.8023 28.6936 17.0938 25.8737 18.9936C24.257 20.083 22.0895 19.88 20.7202 18.5105L18.6209 16.4112C18.2522 16.0423 18.0489 15.5519 18.0489 15.0302C18.0489 14.5081 18.2523 14.0175 18.6216 13.6486C19.2303 13.0398 19.2303 12.0484 18.6209 11.4392C18.0117 10.8297 17.0203 10.83 16.4112 11.4392L11.4394 16.4109C10.8302 17.0202 10.8302 18.0114 11.4394 18.6208C11.7345 18.9159 12.1269 19.0784 12.5442 19.0784C12.9616 19.0784 13.3539 18.9161 13.6489 18.6209C14.4103 17.8592 15.6495 17.8594 16.4112 18.6208L18.5105 20.72C19.8798 22.0894 20.083 24.2569 18.9936 25.8736C17.0938 28.6934 15.8022 31.8112 15.1553 35.1403C14.7842 37.0508 13.1088 38.4375 11.1714 38.4375H8.12125C7.08938 38.4375 6.25 37.5981 6.25 36.5662C6.25 35.6878 5.57375 34.9505 4.74266 34.9228C4.315 34.907 3.90844 35.0638 3.60156 35.3611C3.29422 35.6581 3.125 36.0572 3.125 36.4844V43.4408C3.125 44.3136 3.79969 45.0477 4.62906 45.0772C5.05953 45.093 5.46453 44.9373 5.77219 44.6403C6.08031 44.343 6.25 43.9434 6.25 43.5156C6.25 42.4386 7.12609 41.5625 8.20312 41.5625H11.1714C13.1086 41.5625 14.7842 42.9492 15.1553 44.8597C15.8023 48.1886 17.0938 51.3064 18.9936 54.1262C20.0831 55.7431 19.8798 57.9106 18.5105 59.2798L16.3612 61.4291C15.6273 62.1631 14.433 62.163 13.6991 61.4291L13.6491 61.3791C13.3539 61.0837 12.9617 60.9214 12.5444 60.9214C12.127 60.9214 11.7345 61.0839 11.4395 61.3791C11.1444 61.6742 10.9819 62.0664 10.9819 62.4839C10.9819 62.9012 11.1442 63.2936 11.4394 63.5886L16.4114 68.5605C16.7252 68.8741 17.1433 69.0362 17.5861 69.0166C18.0289 68.997 18.4317 68.7966 18.7203 68.4522C19.232 67.8412 19.1666 66.8963 18.5713 66.3008C17.8372 65.5669 17.8372 64.3725 18.5711 63.6386L20.7203 61.4894C21.5002 60.7095 22.5391 60.3078 23.5875 60.3078Z" fill="url(#paint0_linear)"/>
<path d="M33.9646 33.4182C30.346 33.4182 27.4021 30.4743 27.4021 26.8557C27.4021 23.2371 30.346 20.2932 33.9646 20.2932C37.5832 20.2932 40.5271 23.2371 40.5271 26.8557C40.5271 30.4743 37.5832 33.4182 33.9646 33.4182ZM33.9646 23.4182C32.0691 23.4182 30.5271 24.9602 30.5271 26.8557C30.5271 28.7512 32.0691 30.2932 33.9646 30.2932C35.8601 30.2932 37.4021 28.7512 37.4021 26.8557C37.4021 24.9602 35.8601 23.4182 33.9646 23.4182Z" fill="url(#paint1_linear)"/>
<path d="M29.5313 55.5945C26.401 55.5945 23.8542 53.0477 23.8542 49.9174C23.8542 46.7871 26.401 44.2402 29.5313 44.2402C32.6616 44.2402 35.2083 46.7871 35.2083 49.9174C35.2083 53.0477 32.6616 55.5945 29.5313 55.5945ZM29.5313 47.3652C28.1241 47.3652 26.9792 48.5101 26.9792 49.9174C26.9792 51.3246 28.1241 52.4695 29.5313 52.4695C30.9385 52.4695 32.0833 51.3246 32.0833 49.9174C32.0833 48.5101 30.9385 47.3652 29.5313 47.3652Z" fill="url(#paint2_linear)"/>
<path d="M50.9113 54.0397C46.0145 54.0397 41.8941 50.3764 41.3271 45.5186C41.227 44.6615 41.8409 43.8856 42.6979 43.7854C43.5552 43.6861 44.3309 44.299 44.431 45.1564C44.8141 48.4392 47.6001 50.9147 50.9113 50.9147C54.509 50.9147 57.4362 47.9876 57.4362 44.3898C57.4362 41.0576 54.943 38.2695 51.637 37.9047C50.7793 37.8101 50.1605 37.0379 50.2552 36.1803C50.3499 35.3225 51.1229 34.7056 51.9796 34.7986C56.872 35.3384 60.5612 39.4619 60.5612 44.3898C60.5612 49.7108 56.2323 54.0397 50.9113 54.0397Z" fill="url(#paint3_linear)"/>
<path d="M48.906 28.4185C48.4951 28.4185 48.0919 28.2513 47.8013 27.9606C47.5107 27.67 47.3435 27.2669 47.3435 26.856C47.3435 26.4435 47.5105 26.0419 47.8013 25.7513C48.0919 25.4608 48.4951 25.2935 48.906 25.2935C49.3169 25.2935 49.7201 25.4606 50.0105 25.7513C50.3012 26.0419 50.4685 26.445 50.4685 26.856C50.4685 27.2669 50.3013 27.67 50.0105 27.9606C49.7201 28.2513 49.3169 28.4185 48.906 28.4185Z" fill="url(#paint4_linear)"/>
<path d="M40 60.1562C39.5891 60.1562 39.1859 59.9891 38.8953 59.6983C38.6047 59.4078 38.4375 59.0047 38.4375 58.5938C38.4375 58.1828 38.6045 57.7797 38.8953 57.4891C39.1859 57.1984 39.5875 57.0312 40 57.0312C40.4109 57.0312 40.8141 57.1983 41.1045 57.4891C41.3952 57.7797 41.5625 58.1828 41.5625 58.5938C41.5625 59.0047 41.3953 59.4078 41.1045 59.6983C40.8141 59.9891 40.4109 60.1562 40 60.1562Z" fill="url(#paint5_linear)"/>
<path d="M22.4485 41.5828C22.036 41.5828 21.6344 41.4156 21.3438 41.125C21.0516 40.8343 20.886 40.4312 20.886 40.0203C20.886 39.6078 21.0516 39.2062 21.3438 38.9156C21.633 38.6234 22.0361 38.4578 22.4485 38.4578C22.8594 38.4578 23.2625 38.6234 23.5532 38.9156C23.8436 39.2062 24.011 39.6093 24.011 40.0203C24.011 40.4312 23.8438 40.8328 23.5532 41.125C23.2625 41.4156 22.8594 41.5828 22.4485 41.5828Z" fill="url(#paint6_linear)"/>
<path d="M45.175 40.2534C44.7641 40.2534 44.361 40.0862 44.0704 39.7954C43.7797 39.505 43.6125 39.1019 43.6125 38.6909C43.6125 38.2783 43.7796 37.8769 44.0704 37.5847C44.361 37.294 44.7641 37.1284 45.175 37.1284C45.586 37.1284 45.9891 37.294 46.2796 37.5847C46.5702 37.8769 46.7375 38.2784 46.7375 38.6909C46.7375 39.1019 46.5704 39.5033 46.2796 39.7954C45.9891 40.0862 45.586 40.2534 45.175 40.2534Z" fill="url(#paint7_linear)"/>
<defs>
<linearGradient id="paint0_linear" x1="2.5019e-06" y1="-12" x2="53.9342" y2="-2.93876" gradientUnits="userSpaceOnUse">
<stop offset="0.364583" stop-color="#F6931B"/>
<stop offset="1" stop-color="#F26921"/>
</linearGradient>
<linearGradient id="paint1_linear" x1="27.4021" y1="18.3245" x2="36.2507" y2="19.8111" gradientUnits="userSpaceOnUse">
<stop offset="0.364583" stop-color="#F6931B"/>
<stop offset="1" stop-color="#F26921"/>
</linearGradient>
<linearGradient id="paint2_linear" x1="23.8542" y1="42.5371" x2="31.5089" y2="43.8231" gradientUnits="userSpaceOnUse">
<stop offset="0.364583" stop-color="#F6931B"/>
<stop offset="1" stop-color="#F26921"/>
</linearGradient>
<linearGradient id="paint3_linear" x1="41.3164" y1="31.9017" x2="54.291" y2="34.0809" gradientUnits="userSpaceOnUse">
<stop offset="0.364583" stop-color="#F6931B"/>
<stop offset="1" stop-color="#F26921"/>
</linearGradient>
<linearGradient id="paint4_linear" x1="47.3435" y1="24.8247" x2="49.4503" y2="25.1787" gradientUnits="userSpaceOnUse">
<stop offset="0.364583" stop-color="#F6931B"/>
<stop offset="1" stop-color="#F26921"/>
</linearGradient>
<linearGradient id="paint5_linear" x1="38.4375" y1="56.5625" x2="40.5443" y2="56.9165" gradientUnits="userSpaceOnUse">
<stop offset="0.364583" stop-color="#F6931B"/>
<stop offset="1" stop-color="#F26921"/>
</linearGradient>
<linearGradient id="paint6_linear" x1="20.886" y1="37.989" x2="22.9928" y2="38.343" gradientUnits="userSpaceOnUse">
<stop offset="0.364583" stop-color="#F6931B"/>
<stop offset="1" stop-color="#F26921"/>
</linearGradient>
<linearGradient id="paint7_linear" x1="43.6125" y1="36.6597" x2="45.7194" y2="37.0136" gradientUnits="userSpaceOnUse">
<stop offset="0.364583" stop-color="#F6931B"/>
<stop offset="1" stop-color="#F26921"/>
</linearGradient>
</defs>
</svg>
