<svg width="50" height="50" viewBox="0 0 50 50" fill="none" xmlns="http://www.w3.org/2000/svg">
<g clip-path="url(#clip0)">
<path d="M42.1832 25.1162C42.1832 20.6541 40.4811 16.4247 37.3906 13.2068C37.1108 12.9155 36.6477 12.9062 36.3563 13.186C36.065 13.4658 36.0556 13.9289 36.3355 14.2202C39.163 17.1642 40.7203 21.0337 40.7203 25.1161C40.7203 33.7907 33.6629 40.8481 24.9883 40.8481C16.3136 40.8481 9.25601 33.7908 9.25601 25.1162C9.25601 16.4415 16.3134 9.38403 24.9881 9.38403C28.2655 9.38403 31.4065 10.382 34.0716 12.2701C34.401 12.5037 34.8578 12.4258 35.0913 12.0961C35.3249 11.7664 35.247 11.3099 34.9173 11.0764C32.0036 9.01212 28.5702 7.92099 24.9881 7.92099C15.5067 7.92099 7.79297 15.6347 7.79297 25.1161C7.79297 34.5974 15.5067 42.3112 24.9881 42.3112C34.4694 42.3112 42.1832 34.5975 42.1832 25.1162Z" fill="url(#paint0_linear)"/>
<path d="M17.3044 34.1107C16.8208 33.6972 16.3673 33.2423 15.9496 32.7482C15.6887 32.4397 15.2273 32.4008 14.9187 32.6617C14.6102 32.9226 14.5714 33.3841 14.8323 33.6927C17.3661 36.6904 21.0678 38.4095 24.9882 38.4095C32.3182 38.4095 38.2815 32.4461 38.2815 25.1162C38.2815 17.7863 32.3181 11.8228 24.9882 11.8228C17.6583 11.8228 11.6948 17.7863 11.6948 25.1162C11.6948 27.1278 12.1332 29.0609 12.9977 30.862C13.1725 31.2262 13.6096 31.3798 13.9737 31.2049C14.3379 31.0302 14.4915 30.5932 14.3167 30.2289C13.5478 28.627 13.1579 26.9068 13.1579 25.1162C13.1579 18.5929 18.465 13.2859 24.9882 13.2859C31.5114 13.2859 36.8185 18.593 36.8185 25.1162C36.8185 28.7107 35.2066 31.9355 32.6682 34.1069C31.4598 32.8206 29.9082 31.8908 28.204 31.4318V30.0977C28.6908 29.8051 29.1423 29.4449 29.5452 29.0185C29.8227 28.7249 29.8097 28.2619 29.516 27.9843C29.2224 27.7069 28.7594 27.72 28.4818 28.0136C27.5633 28.9855 26.3225 29.5209 24.9881 29.5209C22.3372 29.5209 20.1803 27.3642 20.1803 24.7132V22.637H29.7957V24.7132C29.7957 24.9981 29.769 25.2894 29.7164 25.579C29.6441 25.9764 29.9078 26.3573 30.3053 26.4296C30.7025 26.5018 31.0836 26.2382 31.1559 25.8408C31.2242 25.4651 31.2589 25.0856 31.2589 24.7132V21.9055C31.2589 21.9047 31.2588 21.904 31.2588 21.9032C31.2588 21.9024 31.2589 21.9015 31.2589 21.9006L31.2229 16.4609C31.2202 16.0629 30.996 15.7083 30.6376 15.5351C30.2792 15.3621 29.8619 15.4071 29.5487 15.6524L28.8379 16.2091H23.4016C20.8187 16.2091 18.7175 18.3103 18.7175 20.8932V21.9054V24.7131C18.7175 26.9959 19.9441 28.997 21.7723 30.0938V31.4317C20.0662 31.8913 18.5133 32.8225 17.3044 34.1107ZM23.4015 17.6722H29.0902C29.2537 17.6722 29.4126 17.6174 29.5413 17.5167L29.7656 17.341L29.7909 21.1741H20.1804V20.8934C20.1804 19.1171 21.6254 17.6722 23.4015 17.6722ZM31.4931 34.9924C29.6255 36.2267 27.3894 36.9465 24.9881 36.9465C22.6459 36.9465 20.3918 36.2558 18.4804 34.9951C19.4266 34.0262 20.6082 33.3091 21.9032 32.915C22.2957 34.2482 23.5297 35.2244 24.9881 35.2244C26.4464 35.2244 27.6806 34.2482 28.0729 32.915C29.3667 33.3088 30.5473 34.0248 31.4931 34.9924ZM24.9881 30.9839C25.5914 30.9839 26.1794 30.8982 26.7409 30.7359V32.0086C26.7409 32.9751 25.9546 33.7615 24.9881 33.7615C24.0216 33.7615 23.2353 32.9751 23.2353 32.0086V30.7328C23.7919 30.8951 24.3797 30.9839 24.9881 30.9839Z" fill="url(#paint1_linear)"/>
<path d="M33.0817 8.27571C33.4803 8.34076 33.8564 8.0703 33.9215 7.67157C34.1988 5.9723 35.0754 4.41534 36.3897 3.28753C36.4517 3.23427 36.5154 3.18336 36.579 3.13235C36.339 3.71405 36.2063 4.35086 36.2063 5.0182C36.2063 6.27134 36.6743 7.41661 37.4434 8.29073C37.0241 8.55758 36.6329 8.86882 36.275 9.22405C35.9882 9.50856 35.9865 9.97176 36.2711 10.2585C36.4141 10.4026 36.6022 10.4747 36.7903 10.4747C36.9766 10.4747 37.1629 10.404 37.3056 10.2624C37.7033 9.86769 38.1524 9.54133 38.6427 9.28647C39.3829 9.72597 40.2461 9.97946 41.1676 9.97946C42.0896 9.97946 42.9532 9.72577 43.6937 9.28579C45.3827 10.1642 46.5053 11.8717 46.6371 13.7745C45.5612 14.9731 44.0886 15.8194 42.3923 16.1041C41.9939 16.171 41.7252 16.5482 41.792 16.9466C41.852 17.3041 42.1618 17.5571 42.5126 17.5571C42.5528 17.5571 42.5936 17.5538 42.6345 17.547C44.6645 17.2062 46.5227 16.1525 47.8665 14.58C49.2259 12.9892 49.9745 10.9592 49.9745 8.86394C49.9745 4.00773 46.0237 0.0569458 41.1675 0.0569458C39.0653 0.0569458 37.03 0.809923 35.4368 2.17728C33.8612 3.52932 32.8102 5.39694 32.4774 7.43602C32.4124 7.83465 32.6828 8.21065 33.0817 8.27571ZM37.6693 5.0182C37.6693 3.08924 39.2386 1.51989 41.1676 1.51989C43.0966 1.51989 44.6659 3.08924 44.6659 5.0182C44.6659 6.94717 43.0966 8.51652 41.1676 8.51652C39.2386 8.51652 37.6693 6.94717 37.6693 5.0182ZM48.5116 8.86394C48.5116 10.0041 48.2527 11.0882 47.7874 12.0569C47.2959 10.5119 46.2731 9.1705 44.892 8.29063C45.6611 7.41642 46.1289 6.27125 46.1289 5.0182C46.1289 4.35262 45.9969 3.71747 45.758 3.13723C47.4352 4.48429 48.5116 6.5503 48.5116 8.86394Z" fill="url(#paint2_linear)"/>
<path d="M7.36901 17.4907C7.40998 17.4975 7.45055 17.5009 7.49074 17.5009C7.84157 17.5009 8.15145 17.2477 8.21133 16.8901C8.27805 16.4917 8.00914 16.1145 7.61071 16.0478C5.91553 15.7638 4.44352 14.9192 3.36751 13.7224C3.51605 11.8407 4.63352 10.1563 6.30704 9.2859C7.04753 9.72589 7.91112 9.97958 8.83312 9.97958C9.75464 9.97958 10.6178 9.72618 11.358 9.28658C11.8445 9.5394 12.2905 9.86273 12.686 10.2535C12.8285 10.3943 13.0143 10.4645 13.2 10.4645C13.3887 10.4645 13.5774 10.392 13.7205 10.2471C14.0044 9.95968 14.0015 9.49648 13.7141 9.21265C13.3593 8.86221 12.9718 8.55526 12.557 8.29113C13.3263 7.41692 13.7944 6.27156 13.7944 5.01822C13.7944 4.31733 13.6482 3.65008 13.3847 3.04517C13.4661 3.10944 13.5468 3.17469 13.6256 3.24268C14.9429 4.37868 15.8167 5.94501 16.0862 7.65305C16.1492 8.05217 16.5244 8.32488 16.9227 8.26168C17.3219 8.19877 17.5943 7.82423 17.5314 7.42511C17.2081 5.3754 16.1604 3.49666 14.5812 2.13477C12.985 0.758146 10.9437 0 8.83322 0C3.97701 0 0.026123 3.95079 0.026123 8.807C0.026123 10.9028 0.775101 12.9333 2.13514 14.5242C3.47958 16.097 5.33832 17.1505 7.36901 17.4907ZM5.3349 5.01822C5.3349 3.08925 6.90425 1.5199 8.83322 1.5199C10.7622 1.5199 12.3315 3.08925 12.3315 5.01822C12.3315 6.94719 10.7622 8.51654 8.83322 8.51654C6.90425 8.51654 5.3349 6.94719 5.3349 5.01822ZM4.28005 3.05034C4.01807 3.65408 3.87186 4.31928 3.87186 5.01832C3.87186 6.27165 4.34004 7.41721 5.1094 8.29143C3.73834 9.16476 2.72055 10.4927 2.22487 12.0232C1.75241 11.0488 1.48916 9.95656 1.48916 8.8071C1.48916 6.47628 2.58147 4.39653 4.28005 3.05034Z" fill="url(#paint3_linear)"/>
<path d="M42.6694 32.6266C42.2716 32.5559 41.8919 32.8211 41.8211 33.2189C41.7554 33.5889 41.9804 33.9431 42.3323 34.0476C42.3384 34.05 42.344 34.0529 42.3502 34.055C43.7352 34.5528 44.6658 35.8757 44.6658 37.3473C44.6658 39.2762 43.0964 40.8456 41.1675 40.8456C40.0213 40.8456 38.946 40.2818 38.2911 39.3375C38.061 39.0056 37.6053 38.9229 37.2731 39.1532C36.9411 39.3834 36.8586 39.8392 37.0889 40.1712C37.1982 40.3288 37.3164 40.4783 37.4415 40.6206C36.0628 41.4995 35.0413 42.8383 34.5494 44.3805C34.2728 43.805 34.068 43.1856 33.9477 42.5325C33.8744 42.1352 33.4935 41.8725 33.0957 41.9456C32.6984 42.0188 32.4357 42.4003 32.5088 42.7976C33.278 46.9709 36.9194 49.9999 41.1675 49.9999C46.0237 49.9999 49.9745 46.0491 49.9745 41.1929C49.9746 36.9815 46.9023 33.3789 42.6694 32.6266ZM41.1676 48.537C39.0167 48.537 37.0535 47.6048 35.6986 46.0945C35.8334 44.1954 36.9551 42.4921 38.6413 41.615C39.3961 42.0621 40.266 42.3086 41.1675 42.3086C42.0895 42.3086 42.953 42.0549 43.6935 41.6149C45.378 42.491 46.4992 44.1917 46.6359 46.0884C45.2904 47.59 43.3377 48.537 41.1676 48.537ZM47.7846 44.3773C47.292 42.8361 46.2702 41.4982 44.8917 40.6201C45.6608 39.7459 46.1289 38.6005 46.1289 37.3473C46.1289 36.7418 46.0171 36.1542 45.8114 35.6076C47.4742 36.9467 48.5116 38.9674 48.5116 41.193C48.5115 42.3332 48.2503 43.4135 47.7846 44.3773Z" fill="url(#paint4_linear)"/>
<path d="M16.9033 41.956C16.5057 41.8822 16.1244 42.1446 16.0505 42.5417C15.93 43.1912 15.7257 43.8074 15.4504 44.38C14.9581 42.838 13.9362 41.4996 12.5573 40.6209C12.6786 40.4829 12.7937 40.3386 12.9002 40.1862C13.1317 39.8551 13.0509 39.399 12.7198 39.1676C12.3886 38.936 11.9326 39.0168 11.7011 39.348C11.0457 40.2857 9.97317 40.8455 8.83239 40.8455C6.90342 40.8455 5.33407 39.2761 5.33407 37.3472C5.33407 35.8806 6.26037 34.5591 7.63894 34.0586C7.64489 34.0565 7.65045 34.0536 7.6563 34.0513C8.00353 33.943 8.22406 33.591 8.15773 33.2238C8.08595 32.8262 7.70497 32.5623 7.30791 32.6339C3.08821 33.3959 0.0253906 36.9955 0.0253906 41.1929C0.0253906 46.0491 3.97618 49.9999 8.83239 49.9999C13.0749 49.9999 16.7155 46.9756 17.489 42.8087C17.5628 42.4116 17.3006 42.0298 16.9033 41.956ZM4.18666 35.614C3.98223 36.159 3.87123 36.7444 3.87123 37.3473C3.87123 38.6002 4.33911 39.7454 5.10798 40.6195C3.72941 41.4978 2.70811 42.8362 2.21575 44.3777C1.74992 43.4138 1.48853 42.3334 1.48853 41.193C1.48843 38.9723 2.52533 36.9532 4.18666 35.614ZM8.83249 48.537C6.66222 48.537 4.70965 47.59 3.36404 46.0884C3.50079 44.1917 4.62186 42.491 6.30641 41.6149C7.0469 42.0549 7.91048 42.3086 8.83249 42.3086C9.73323 42.3086 10.6034 42.0621 11.3586 41.6149C13.0447 42.4918 14.1663 44.195 14.3014 46.0939C12.9462 47.6044 10.9827 48.537 8.83249 48.537Z" fill="url(#paint5_linear)"/>
</g>
<defs>
<linearGradient id="paint0_linear" x1="7.79297" y1="2.76246" x2="30.9781" y2="6.65771" gradientUnits="userSpaceOnUse">
<stop offset="0.364583" stop-color="#F6931B"/>
<stop offset="1" stop-color="#F26921"/>
</linearGradient>
<linearGradient id="paint1_linear" x1="11.6948" y1="7.8348" x2="29.619" y2="10.8462" gradientUnits="userSpaceOnUse">
<stop offset="0.364583" stop-color="#F6931B"/>
<stop offset="1" stop-color="#F26921"/>
</linearGradient>
<linearGradient id="paint2_linear" x1="32.4678" y1="-2.56808" x2="44.2702" y2="-0.584471" gradientUnits="userSpaceOnUse">
<stop offset="0.364583" stop-color="#F6931B"/>
<stop offset="1" stop-color="#F26921"/>
</linearGradient>
<linearGradient id="paint3_linear" x1="0.0261236" y1="-2.62513" x2="11.8334" y2="-0.639926" gradientUnits="userSpaceOnUse">
<stop offset="0.364583" stop-color="#F6931B"/>
<stop offset="1" stop-color="#F26921"/>
</linearGradient>
<linearGradient id="paint4_linear" x1="32.4966" y1="30.0075" x2="44.2763" y2="31.9972" gradientUnits="userSpaceOnUse">
<stop offset="0.364583" stop-color="#F6931B"/>
<stop offset="1" stop-color="#F26921"/>
</linearGradient>
<linearGradient id="paint5_linear" x1="0.0253912" y1="30.0156" x2="11.8037" y2="32.0056" gradientUnits="userSpaceOnUse">
<stop offset="0.364583" stop-color="#F6931B"/>
<stop offset="1" stop-color="#F26921"/>
</linearGradient>
<clipPath id="clip0">
<rect width="50" height="50" fill="white"/>
</clipPath>
</defs>
</svg>
