<svg width="82" height="64" viewBox="0 0 82 64" fill="none" xmlns="http://www.w3.org/2000/svg">
<path d="M80.0603 39.1467C78.3605 37.1179 75.5657 36.4122 73.1067 37.3902L60.6076 42.363C59.0302 42.991 57.2701 43.0569 55.6498 42.5501L36.4545 36.5316C35.3074 36.1716 34.1161 35.9894 32.9136 35.9894H26.6706C26.3187 35.3223 25.6192 34.8659 24.8141 34.8659H20.5016V34.8174C20.5016 33.638 19.5422 32.678 18.3622 32.678H2.13944C0.959983 32.678 0 33.638 0 34.8174V59.8217C0 61.0012 0.959983 61.9612 2.13944 61.9612H18.3628C19.5422 61.9612 20.5022 61.0012 20.5022 59.8217V59.7732H24.8141C25.6112 59.7732 26.3056 59.3268 26.6607 58.6715C32.6761 62.083 42.9965 63.4217 48.9566 63.9272C49.5324 63.9757 50.1106 63.9999 50.6882 63.9999C53.1622 63.9999 55.6305 63.5547 57.9142 62.6893C60.607 61.6683 63.3806 60.27 66.158 58.5322C66.7176 58.1828 66.8867 57.446 66.5373 56.8865C66.1872 56.3275 65.4504 56.1578 64.8915 56.5078C62.2466 58.1623 59.6141 59.4903 57.068 60.4559C54.5829 61.3979 51.8478 61.7747 49.1581 61.5471C35.0984 60.354 29.129 57.4983 26.9131 56.0191V38.3776H32.9136C33.873 38.3776 34.8242 38.5231 35.7401 38.8103L54.9298 44.8276L54.9522 44.8344C54.9528 44.8344 54.9702 44.84 54.9702 44.84C56.302 45.2516 57.1258 46.5747 56.8871 47.9177L56.8591 48.075C56.6135 49.4522 55.3321 50.4296 53.9375 50.2978L38.0636 48.8062C37.4101 48.7446 36.825 49.2271 36.7629 49.8837C36.7013 50.5403 37.1838 51.1228 37.8404 51.1844L53.7143 52.676C53.8722 52.6909 54.0295 52.6983 54.1856 52.6983C56.6191 52.6983 58.7766 50.9288 59.2099 48.4934L59.2385 48.3361C59.4319 47.2481 59.2572 46.1675 58.799 45.2293C59.7173 45.1416 60.625 44.9271 61.4905 44.5826L73.9896 39.6099C75.4892 39.013 77.1934 39.4432 78.2299 40.6805C79.4604 42.1485 79.3839 44.2941 78.0527 45.6719C76.1439 47.6485 73.0793 50.6012 69.3208 53.4457C68.7948 53.8436 68.6916 54.5928 69.0895 55.1182C69.4875 55.6442 70.2361 55.748 70.7621 55.3501C74.6424 52.4136 77.8028 49.3689 79.7706 47.3314C81.9529 45.072 82.0773 41.5535 80.0603 39.1467ZM18.1135 36.0603V59.573H2.38814V35.0661H18.1135V36.0603ZM24.525 56.6359V57.3845H20.5016V37.2541H24.525V56.6359Z" fill="url(#paint0_linear)"/>
<path d="M56.5325 37.2541C66.8032 37.2541 75.1596 28.8983 75.1596 18.627C75.1596 8.35571 66.8032 0 56.5325 0C46.2612 0 37.9055 8.35633 37.9055 18.627C37.9055 28.8983 46.2612 37.2541 56.5325 37.2541ZM56.5325 2.38814C65.4864 2.38814 72.7714 9.6732 72.7714 18.627C72.7714 27.5815 65.487 34.8659 56.5325 34.8659C47.5781 34.8659 40.2937 27.5815 40.2937 18.627C40.2937 9.67257 47.5787 2.38814 56.5325 2.38814Z" fill="url(#paint1_linear)"/>
<path d="M56.5326 11.0515C55.8729 11.0515 55.3382 11.5862 55.3382 12.2459V12.839C54.6045 13.0971 53.984 13.5808 53.5898 14.2256C52.7287 15.6351 52.9712 17.3784 54.1793 18.4665C54.7426 18.9739 55.3488 19.3227 55.9345 19.6603C56.4362 19.9494 56.91 20.2223 57.2874 20.5624C57.6437 20.8833 57.7015 21.3514 57.4372 21.7836C57.2799 22.0403 56.9448 22.2138 56.5631 22.2362C56.3081 22.2505 55.9705 22.1056 55.7579 21.8899C55.6876 21.8184 55.5707 21.6772 55.5807 21.5355C55.6286 20.8777 55.1337 20.3063 54.4758 20.2584C53.818 20.2118 53.246 20.7054 53.1988 21.3632C53.1409 22.1641 53.4462 22.9468 54.058 23.5667C54.4174 23.9317 54.8626 24.2152 55.3382 24.3968V25.0086C55.3382 25.6676 55.8729 26.2023 56.5326 26.2023C57.1923 26.2023 57.727 25.6676 57.727 25.0086V24.4148C58.4606 24.1568 59.0811 23.673 59.4753 23.0283C60.3358 21.6194 60.0934 19.8754 58.8859 18.7873C58.3207 18.2787 57.7139 17.9287 57.1264 17.5911C56.6259 17.3026 56.1533 17.0303 55.7772 16.6914C55.4209 16.3706 55.3637 15.903 55.6279 15.4709C55.7846 15.2135 56.1197 15.04 56.5021 15.0183C56.7577 15.0027 57.094 15.1488 57.3067 15.364C57.3769 15.4355 57.4944 15.5766 57.4839 15.7184C57.436 16.3762 57.9309 16.9482 58.5887 16.9954C59.2465 17.0421 59.8185 16.5484 59.8658 15.8906C59.9236 15.0898 59.619 14.3076 59.0072 13.6871C58.6472 13.3228 58.202 13.0399 57.7264 12.8583V12.2459C57.727 11.5862 57.1923 11.0515 56.5326 11.0515Z" fill="url(#paint2_linear)"/>
<path d="M56.5327 31.0316C63.3726 31.0316 68.9366 25.4669 68.9366 18.6271C68.9366 11.7872 63.3726 6.22314 56.5327 6.22314C54.8559 6.22314 53.2287 6.55205 51.6961 7.20178C51.0893 7.45856 50.8058 8.1599 51.0626 8.76673C51.32 9.37418 52.0213 9.65769 52.6281 9.40029C53.8642 8.87678 55.1773 8.61129 56.5327 8.61129C62.0551 8.61129 66.5485 13.1041 66.5485 18.6271C66.5485 24.1501 62.0551 28.6428 56.5327 28.6428C51.0097 28.6428 46.5163 24.1501 46.5163 18.6271C46.5163 16.3459 47.263 14.1977 48.6763 12.4139C49.086 11.8966 48.9983 11.1455 48.4817 10.7364C47.9644 10.3267 47.2139 10.4137 46.8042 10.931C45.0533 13.1407 44.1282 15.8025 44.1282 18.6271C44.1288 25.4669 49.6928 31.0316 56.5327 31.0316Z" fill="url(#paint3_linear)"/>
<defs>
<linearGradient id="paint0_linear" x1="2.54863e-06" y1="27.9797" x2="47.4296" y2="48.7122" gradientUnits="userSpaceOnUse">
<stop offset="0.364583" stop-color="#F6931B"/>
<stop offset="1" stop-color="#F26921"/>
</linearGradient>
<linearGradient id="paint1_linear" x1="37.9055" y1="-5.58812" x2="63.0214" y2="-1.36851" gradientUnits="userSpaceOnUse">
<stop offset="0.364583" stop-color="#F6931B"/>
<stop offset="1" stop-color="#F26921"/>
</linearGradient>
<linearGradient id="paint2_linear" x1="53.0774" y1="8.77889" x2="57.8395" y2="9.14377" gradientUnits="userSpaceOnUse">
<stop offset="0.364583" stop-color="#F6931B"/>
<stop offset="1" stop-color="#F26921"/>
</linearGradient>
<linearGradient id="paint3_linear" x1="44.1282" y1="2.50187" x2="60.8535" y2="5.31182" gradientUnits="userSpaceOnUse">
<stop offset="0.364583" stop-color="#F6931B"/>
<stop offset="1" stop-color="#F26921"/>
</linearGradient>
</defs>
</svg>
