<svg width="77" height="76" viewBox="0 0 77 76" fill="none" xmlns="http://www.w3.org/2000/svg">
<g clip-path="url(#clip0)">
<path d="M62.1008 12.433L61.3029 6.73416C61.2627 6.44723 61.1094 6.18835 60.8769 6.01527C60.6446 5.84234 60.3528 5.76961 60.0661 5.81355L53.7878 6.77513C53.1963 6.86567 52.7903 7.4186 52.8809 8.00998C52.9714 8.6015 53.5247 9.00777 54.1157 8.91693L57.7743 8.35658C52.8818 14.4053 47.6198 19.5575 42.1085 23.6857C37.3127 27.2779 32.3189 30.1092 27.2656 32.1012C18.6653 35.4914 12.7925 35.2687 12.7348 35.2667C12.136 35.2364 11.6308 35.6992 11.6019 36.2962C11.5728 36.8938 12.0337 37.4018 12.6313 37.4309C12.6666 37.4325 12.8145 37.4389 13.068 37.4389C14.629 37.4389 20.1823 37.1993 27.9244 34.1702C33.1743 32.1161 38.3552 29.1932 43.3234 25.4826C49.0326 21.2184 54.4744 15.8938 59.5221 9.64116L59.955 12.7334C60.0308 13.2751 60.4948 13.6666 61.0265 13.6666C61.0764 13.6666 61.1272 13.6632 61.1781 13.6561C61.7707 13.5731 62.1838 13.0255 62.1008 12.433Z" fill="url(#paint0_linear)"/>
<path d="M74.3213 64.2354H65.5666C66.2873 63.7563 66.9659 63.2026 67.5917 62.5766C70.0586 60.1097 71.4171 56.8299 71.4171 53.3413C71.4171 49.8526 70.0586 46.5727 67.5917 44.1059C66.713 43.2272 65.7375 42.5037 64.7014 41.9282V37.5547C64.7014 36.9563 64.2163 36.4714 63.6181 36.4714C63.0197 36.4714 62.5348 36.9565 62.5348 37.5547V40.966C59.5694 39.9622 56.3495 40.0578 53.454 41.2331V27.926C53.454 27.7858 53.568 27.6718 53.7081 27.6718H62.2806C62.4208 27.6718 62.5348 27.7858 62.5348 27.926V30.6149C62.5348 31.2133 63.0199 31.6982 63.6181 31.6982C64.2164 31.6982 64.7014 31.2131 64.7014 30.6149V27.926C64.7014 26.5911 63.6154 25.5051 62.2805 25.5051H53.7079C52.373 25.5051 51.2871 26.5911 51.2871 27.926V42.3603C50.5196 42.8545 49.792 43.4346 49.1211 44.1057C46.6542 46.5725 45.2957 49.8524 45.2957 53.341C45.2957 56.8297 46.6542 60.1096 49.1211 62.5763C49.7469 63.2021 50.4255 63.756 51.1462 64.2351H44.3052V37.7559C44.3052 36.421 43.2192 35.3351 41.8843 35.3351H33.3119C31.977 35.3351 30.891 36.421 30.891 37.7559V64.2354H23.909V46.6677C23.909 45.3328 22.823 44.2468 21.4881 44.2468H12.9155C11.5806 44.2468 10.4947 45.3328 10.4947 46.6677V64.2354H6.03219V8.52147C6.03219 7.41917 5.13548 6.52246 4.03318 6.52246H2.31932C1.21702 6.52246 0.320313 7.41917 0.320313 8.52147V16.2126C0.320313 16.811 0.805406 17.2959 1.40361 17.2959C2.00181 17.2959 2.48691 16.8108 2.48691 16.2126V8.6892H3.8653V64.4031C3.8653 65.5054 4.76216 66.4022 5.8643 66.4022H74.1534V68.0324H2.48705V23.0585C2.48705 22.4602 2.00196 21.9753 1.40376 21.9753C0.805555 21.9753 0.320312 22.4602 0.320312 23.0585V68.2C0.320312 69.3023 1.21702 70.199 2.31932 70.199H74.3213C75.4236 70.199 76.3203 69.3023 76.3203 68.2V66.2343C76.3203 65.1321 75.4236 64.2354 74.3213 64.2354ZM21.7422 64.2354H12.6614V46.6677C12.6614 46.5276 12.7754 46.4136 12.9155 46.4136H21.4881C21.6282 46.4136 21.7422 46.5276 21.7422 46.6677V64.2354ZM33.0576 64.2354V37.7559C33.0576 37.6158 33.1716 37.5018 33.3117 37.5018H41.8841C42.0243 37.5018 42.1383 37.6158 42.1383 37.7559V64.2354H33.0576ZM63.1422 63.1278C62.0449 63.6644 60.8527 64.0131 59.6383 64.1582C59.6178 64.1606 59.5975 64.1634 59.577 64.1658C59.494 64.1753 59.4111 64.1833 59.3279 64.1909C59.2012 64.202 59.0742 64.2121 58.9467 64.2188C58.9065 64.221 58.8663 64.2222 58.8261 64.224C58.6701 64.2305 58.5136 64.2354 58.3564 64.2354C58.1988 64.2354 58.042 64.2305 57.8856 64.224C57.8361 64.2219 57.7866 64.2195 57.7373 64.2167C57.6193 64.2102 57.5017 64.2011 57.3843 64.1909C57.2869 64.1821 57.1897 64.1719 57.0926 64.1604C57.0231 64.1524 56.9538 64.1443 56.8848 64.1349C56.7861 64.1214 56.6877 64.1072 56.5894 64.091C56.5766 64.0889 56.5639 64.0865 56.5511 64.0843C55.2729 63.8697 54.0385 63.429 52.9123 62.7784C52.9064 62.7749 52.9001 62.7727 52.8942 62.7694C52.0858 62.2993 51.3319 61.7234 50.6531 61.0444C48.5955 58.9868 47.4623 56.2511 47.4623 53.3411C47.4623 50.4312 48.5955 47.6955 50.6531 45.6378C51.441 44.8499 52.3209 44.209 53.2582 43.7133C53.2846 43.6992 53.3113 43.6859 53.3379 43.6721C54.9058 42.8595 56.6308 42.4522 58.3564 42.4522C59.7358 42.4522 61.1151 42.7129 62.4139 43.2321C62.4365 43.2411 62.4592 43.2498 62.4816 43.259C62.6166 43.3139 62.7503 43.3725 62.8833 43.4331C62.9363 43.4573 62.9891 43.4825 63.0418 43.5076C64.1337 44.0265 65.1572 44.7353 66.0596 45.6377C70.3071 49.8854 70.3071 56.7966 66.0596 61.0443C65.2056 61.8987 64.2333 62.5907 63.1817 63.1114C63.1686 63.1172 63.1551 63.1214 63.1422 63.1278Z" fill="url(#paint1_linear)"/>
<path d="M58.8597 52.2924V48.4338C60.1903 48.5288 60.6846 49.1371 61.1408 49.1371C61.7111 49.1371 61.9772 48.4148 61.9772 48.0537C61.9772 47.1222 60.1525 46.7231 58.8599 46.6851V46.1718C58.8599 45.9436 58.5749 45.7346 58.2897 45.7346C57.9666 45.7346 57.7384 45.9436 57.7384 46.1718V46.7231C55.9326 46.9132 54.1268 47.8637 54.1268 50.2587C54.1268 52.6917 56.0277 53.376 57.7384 53.9843V58.4513C55.7996 58.2993 55.2864 56.9687 54.6591 56.9687C54.1838 56.9687 53.7847 57.5958 53.7847 58.0521C53.7847 58.9836 55.3814 60.2572 57.7384 60.2952H57.7383V60.8843C57.7383 61.1124 57.9664 61.3214 58.2896 61.3214C58.5746 61.3214 58.8597 61.1124 58.8597 60.8843V60.238C60.9126 59.9529 62.3192 58.6603 62.3192 56.3222C62.3192 53.737 60.5135 52.9007 58.8597 52.2924ZM57.8526 51.9313C56.845 51.5511 56.0277 51.152 56.0279 50.0685C56.0279 49.08 56.7882 48.6048 57.8526 48.4718V51.9313ZM58.7459 58.4133V54.4025C59.6773 54.8016 60.4186 55.3338 60.4186 56.5314C60.4186 57.615 59.7723 58.2233 58.7459 58.4133Z" fill="url(#paint2_linear)"/>
</g>
<defs>
<linearGradient id="paint0_linear" x1="11.6006" y1="1.05534" x2="44.265" y2="9.81678" gradientUnits="userSpaceOnUse">
<stop offset="0.364583" stop-color="#F6931B"/>
<stop offset="1" stop-color="#F26921"/>
</linearGradient>
<linearGradient id="paint1_linear" x1="0.320315" y1="-3.02904" x2="50.9676" y2="7.12677" gradientUnits="userSpaceOnUse">
<stop offset="0.364583" stop-color="#F6931B"/>
<stop offset="1" stop-color="#F26921"/>
</linearGradient>
<linearGradient id="paint2_linear" x1="53.7847" y1="43.3966" x2="59.6512" y2="43.9363" gradientUnits="userSpaceOnUse">
<stop offset="0.364583" stop-color="#F6931B"/>
<stop offset="1" stop-color="#F26921"/>
</linearGradient>
<clipPath id="clip0">
<rect width="76" height="76" fill="white" transform="translate(0.320312)"/>
</clipPath>
</defs>
</svg>
