<svg width="24" height="30" viewBox="0 0 24 30" fill="none" xmlns="http://www.w3.org/2000/svg">
<path d="M12 0C5.79639 0 0.75 5.04697 0.75 11.25C0.75 19.5496 11.1296 29.4141 11.5716 29.8303C11.6924 29.9432 11.8462 30 12 30C12.1538 30 12.3076 29.9432 12.4285 29.8303C12.8704 29.4141 23.25 19.5496 23.25 11.25C23.25 5.04697 18.2036 0 12 0ZM12 17.5C8.55393 17.5 5.74998 14.6961 5.74998 11.25C5.74998 7.80393 8.55398 4.99998 12 4.99998C15.446 4.99998 18.25 7.80398 18.25 11.25C18.25 14.696 15.4461 17.5 12 17.5Z" fill="url(#paint0_linear)"/>
<defs>
<linearGradient id="paint0_linear" x1="0.750001" y1="-4.50001" x2="16.1034" y2="-2.56541" gradientUnits="userSpaceOnUse">
<stop offset="0.364583" stop-color="#F6931B"/>
<stop offset="1" stop-color="#F26921"/>
</linearGradient>
</defs>
</svg>
