<svg width="30" height="34" viewBox="0 0 30 34" fill="none" xmlns="http://www.w3.org/2000/svg">
<path d="M24.0308 2.71362C22.4709 0.91375 19.7475 0 15.9421 0H6.40267C5.19417 0 4.18281 0.869125 3.99425 2.06763L0.0216495 27.5676C-0.0619165 28.118 0.0987876 28.6748 0.46305 29.0955C0.820884 29.512 1.34371 29.75 1.89224 29.75H8.69966L10.2746 19.6308C10.3067 19.4884 10.4246 19.3864 10.5574 19.3864H13.3558C20.1568 19.3864 24.2344 16.1351 25.4664 9.72613L25.5757 9.112C25.9828 6.34313 25.5221 4.43062 24.0308 2.71362ZM23.4587 8.7805L23.3623 9.32238C22.3359 14.6625 19.064 17.2592 13.3579 17.2592H10.5595C9.45604 17.2592 8.51539 17.9881 8.21969 19.0294L8.20255 19.0251L8.15755 19.3162C8.15541 19.3184 8.15541 19.3205 8.15541 19.3247L6.86335 27.625H2.18151L6.11126 2.39275C6.13483 2.23763 6.25696 2.125 6.40267 2.125H15.9399C19.094 2.125 21.271 2.788 22.4088 4.09912C23.4801 5.33375 23.7715 6.65337 23.4587 8.7805Z" fill="#324165"/>
<path d="M12.4805 23.2874L12.4374 23.584L14.5583 23.8868L14.6013 23.5902L12.4805 23.2874Z" fill="#324165"/>
<path d="M28.3184 6.95087C27.4742 5.99038 26.2828 5.27425 24.7765 4.82587L24.1615 6.86163C25.2736 7.19313 26.1285 7.6925 26.6985 8.34275C27.7591 9.56675 28.0591 10.9267 27.742 13.0199C27.742 13.0199 27.6842 13.362 27.637 13.5724C26.6214 18.9104 23.3516 21.505 17.6348 21.505H14.8493C13.6493 21.505 12.6358 22.372 12.4409 23.5747L11.1466 31.875H6.45838L6.92978 28.849L4.81277 28.526L4.29423 31.8495C4.22566 32.402 4.39708 32.9545 4.76349 33.3667C5.12346 33.7705 5.63557 34 6.17125 34H12.983L14.5557 23.9062C14.5793 23.7681 14.6864 23.63 14.8493 23.63H17.6348C24.4508 23.63 28.5241 20.3787 29.7326 14.0059C29.7819 13.7955 29.8547 13.3726 29.8569 13.3535C30.2704 10.6314 29.7969 8.65938 28.3184 6.95087Z" fill="#324165"/>
</svg>
