<svg width="28" height="28" viewBox="0 0 28 28" fill="none" xmlns="http://www.w3.org/2000/svg">
<path d="M27.238 20.5492L23.3305 16.6417C21.935 15.2462 19.5626 15.8044 19.0044 17.6186C18.5857 18.8746 17.1902 19.5724 15.9342 19.2932C13.1431 18.5954 9.3752 14.9671 8.67743 12.0364C8.25877 10.7804 9.09609 9.38488 10.3521 8.96628C12.1663 8.40807 12.7245 6.03567 11.3289 4.64014L7.42146 0.732653C6.30503 -0.244218 4.6304 -0.244218 3.65353 0.732653L1.00202 3.38416C-1.64949 6.17522 1.28113 13.5715 7.84012 20.1305C14.3991 26.6895 21.7954 29.7597 24.5865 26.9686L27.238 24.3171C28.2149 23.2007 28.2149 21.526 27.238 20.5492Z" fill="url(#paint0_linear)"/>
<defs>
<linearGradient id="paint0_linear" x1="0.0294656" y1="-4.20001" x2="18.869" y2="-1.04151" gradientUnits="userSpaceOnUse">
<stop offset="0.364583" stop-color="#F6931B"/>
<stop offset="1" stop-color="#F26921"/>
</linearGradient>
</defs>
</svg>
