<svg width="52" height="53" viewBox="0 0 52 53" fill="none" xmlns="http://www.w3.org/2000/svg">
<path d="M26.0863 53C40.0368 53 51.3459 41.1355 51.3459 26.5C51.3459 11.8645 40.0368 0 26.0863 0C12.1358 0 0.82666 11.8645 0.82666 26.5C0.82666 41.1355 12.1358 53 26.0863 53Z" fill="#1590D8"/>
<path d="M37.6164 21.3813C37.6337 21.6358 37.6337 21.8903 37.6337 22.1448C37.6337 29.9068 32.0024 38.8504 21.71 38.8504C18.5391 38.8504 15.5935 37.887 13.1157 36.2146C13.5662 36.2691 13.9994 36.2873 14.4672 36.2873C17.0836 36.2873 19.4921 35.3603 21.4155 33.7788C18.955 33.7242 16.893 32.0337 16.1826 29.7069C16.5292 29.7614 16.8757 29.7977 17.2396 29.7977C17.7421 29.7977 18.2446 29.725 18.7124 29.5978C16.148 29.0524 14.2246 26.6893 14.2246 23.8353V23.7627C14.9697 24.1989 15.8361 24.4716 16.7544 24.5079C15.2469 23.4536 14.2593 21.654 14.2593 19.618C14.2593 18.5273 14.5365 17.5276 15.0217 16.655C17.7767 20.2179 21.9179 22.5446 26.5616 22.7992C26.475 22.3629 26.423 21.9085 26.423 21.454C26.423 18.2183 28.9181 15.5825 32.0196 15.5825C33.6311 15.5825 35.0865 16.2915 36.1089 17.4367C37.3737 17.1822 38.5866 16.6914 39.6609 16.0188C39.245 17.3822 38.3614 18.5274 37.2005 19.2545C38.3268 19.1273 39.4184 18.8 40.4233 18.3456C39.6611 19.509 38.708 20.5451 37.6164 21.3813Z" fill="white"/>
<mask id="mask0" mask-type="alpha" maskUnits="userSpaceOnUse" x="13" y="15" width="28" height="24">
<path d="M37.6164 21.3813C37.6337 21.6358 37.6337 21.8903 37.6337 22.1448C37.6337 29.9068 32.0024 38.8504 21.71 38.8504C18.5391 38.8504 15.5935 37.887 13.1157 36.2146C13.5662 36.2691 13.9994 36.2873 14.4672 36.2873C17.0836 36.2873 19.4921 35.3603 21.4155 33.7788C18.955 33.7242 16.893 32.0337 16.1826 29.7069C16.5292 29.7614 16.8757 29.7977 17.2396 29.7977C17.7421 29.7977 18.2446 29.725 18.7124 29.5978C16.148 29.0524 14.2246 26.6893 14.2246 23.8353V23.7627C14.9697 24.1989 15.8361 24.4716 16.7544 24.5079C15.2469 23.4536 14.2593 21.654 14.2593 19.618C14.2593 18.5273 14.5365 17.5276 15.0217 16.655C17.7767 20.2179 21.9179 22.5446 26.5616 22.7992C26.475 22.3629 26.423 21.9085 26.423 21.454C26.423 18.2183 28.9181 15.5825 32.0196 15.5825C33.6311 15.5825 35.0865 16.2915 36.1089 17.4367C37.3737 17.1822 38.5866 16.6914 39.6609 16.0188C39.245 17.3822 38.3614 18.5274 37.2005 19.2545C38.3268 19.1273 39.4184 18.8 40.4233 18.3456C39.6611 19.509 38.708 20.5451 37.6164 21.3813Z" fill="white"/>
</mask>
<g mask="url(#mask0)">
</g>
</svg>
