<svg width="52" height="53" viewBox="0 0 52 53" fill="none" xmlns="http://www.w3.org/2000/svg">
<path d="M25.913 53C39.8635 53 51.1726 41.1355 51.1726 26.5C51.1726 11.8645 39.8635 0 25.913 0C11.9624 0 0.65332 11.8645 0.65332 26.5C0.65332 41.1355 11.9624 53 25.913 53Z" fill="#D0021B"/>
<path fill-rule="evenodd" clip-rule="evenodd" d="M35.3468 18.1253C36.4608 18.4436 37.3381 19.3816 37.6359 20.5726C38.1769 22.7313 38.1769 27.2353 38.1769 27.2353C38.1769 27.2353 38.1769 31.7393 37.6359 33.8981C37.3381 35.0891 36.4608 35.988 35.3468 36.3063C33.3276 36.8847 25.231 36.8847 25.231 36.8847C25.231 36.8847 17.1345 36.8847 15.1153 36.3063C14.0013 35.988 13.124 35.0891 12.8262 33.8981C12.2852 31.7393 12.2852 27.2353 12.2852 27.2353C12.2852 27.2353 12.2852 22.7313 12.8262 20.5726C13.124 19.3816 14.0013 18.4437 15.1153 18.1253C17.1345 17.5469 25.231 17.5469 25.231 17.5469C25.231 17.5469 33.3276 17.5469 35.3468 18.1253ZM22.5824 23.1457V31.3242L29.3495 27.2351L22.5824 23.1457Z" fill="white"/>
<mask id="mask0" mask-type="alpha" maskUnits="userSpaceOnUse" x="12" y="17" width="27" height="20">
<path fill-rule="evenodd" clip-rule="evenodd" d="M35.3468 18.1253C36.4608 18.4436 37.3381 19.3816 37.6359 20.5726C38.1769 22.7313 38.1769 27.2353 38.1769 27.2353C38.1769 27.2353 38.1769 31.7393 37.6359 33.8981C37.3381 35.0891 36.4608 35.988 35.3468 36.3063C33.3276 36.8847 25.231 36.8847 25.231 36.8847C25.231 36.8847 17.1345 36.8847 15.1153 36.3063C14.0013 35.988 13.124 35.0891 12.8262 33.8981C12.2852 31.7393 12.2852 27.2353 12.2852 27.2353C12.2852 27.2353 12.2852 22.7313 12.8262 20.5726C13.124 19.3816 14.0013 18.4437 15.1153 18.1253C17.1345 17.5469 25.231 17.5469 25.231 17.5469C25.231 17.5469 33.3276 17.5469 35.3468 18.1253ZM22.5824 23.1457V31.3242L29.3495 27.2351L22.5824 23.1457Z" fill="white"/>
</mask>
<g mask="url(#mask0)">
</g>
</svg>
